G04 #@! TF.FileFunction,Legend,Top*
%FSLAX46Y46*%
G04 Gerber Fmt 4.6, Leading zero omitted, Abs format (unit mm)*
G04 Created by KiCad (PCBNEW no-vcs-found-undefined) date Fri Nov 11 20:13:07 2016*
%MOMM*%
%LPD*%
G01*
G04 APERTURE LIST*
%ADD10C,0.100000*%
%ADD11C,0.300000*%
%ADD12C,1.000000*%
%ADD13C,0.150000*%
%ADD14C,0.002540*%
%ADD15C,0.075000*%
%ADD16C,0.110000*%
%ADD17C,0.120000*%
%ADD18R,1.727200X1.727200*%
%ADD19O,1.727200X1.727200*%
%ADD20R,0.900000X0.500000*%
%ADD21R,0.800000X0.750000*%
%ADD22R,0.500000X0.900000*%
%ADD23R,0.750000X0.800000*%
%ADD24R,0.700000X0.600000*%
%ADD25R,0.650000X1.060000*%
%ADD26R,0.800100X0.800100*%
%ADD27R,0.800000X0.800000*%
%ADD28O,3.600000X0.800000*%
%ADD29O,0.800000X3.600000*%
%ADD30R,2.790000X5.080000*%
G04 APERTURE END LIST*
D10*
D11*
X146932142Y-80357142D02*
X147003571Y-80142857D01*
X147003571Y-79785714D01*
X146932142Y-79642857D01*
X146860714Y-79571428D01*
X146717857Y-79500000D01*
X146575000Y-79500000D01*
X146432142Y-79571428D01*
X146360714Y-79642857D01*
X146289285Y-79785714D01*
X146217857Y-80071428D01*
X146146428Y-80214285D01*
X146075000Y-80285714D01*
X145932142Y-80357142D01*
X145789285Y-80357142D01*
X145646428Y-80285714D01*
X145575000Y-80214285D01*
X145503571Y-80071428D01*
X145503571Y-79714285D01*
X145575000Y-79500000D01*
X147003571Y-78642857D02*
X146932142Y-78785714D01*
X146860714Y-78857142D01*
X146717857Y-78928571D01*
X146289285Y-78928571D01*
X146146428Y-78857142D01*
X146075000Y-78785714D01*
X146003571Y-78642857D01*
X146003571Y-78428571D01*
X146075000Y-78285714D01*
X146146428Y-78214285D01*
X146289285Y-78142857D01*
X146717857Y-78142857D01*
X146860714Y-78214285D01*
X146932142Y-78285714D01*
X147003571Y-78428571D01*
X147003571Y-78642857D01*
X147003571Y-77500000D02*
X146003571Y-77500000D01*
X145503571Y-77500000D02*
X145575000Y-77571428D01*
X145646428Y-77500000D01*
X145575000Y-77428571D01*
X145503571Y-77500000D01*
X145646428Y-77500000D01*
X147003571Y-76571428D02*
X146932142Y-76714285D01*
X146789285Y-76785714D01*
X145503571Y-76785714D01*
X147003571Y-74857142D02*
X146003571Y-74857142D01*
X146146428Y-74857142D02*
X146075000Y-74785714D01*
X146003571Y-74642857D01*
X146003571Y-74428571D01*
X146075000Y-74285714D01*
X146217857Y-74214285D01*
X147003571Y-74214285D01*
X146217857Y-74214285D02*
X146075000Y-74142857D01*
X146003571Y-74000000D01*
X146003571Y-73785714D01*
X146075000Y-73642857D01*
X146217857Y-73571428D01*
X147003571Y-73571428D01*
X147003571Y-72642857D02*
X146932142Y-72785714D01*
X146860714Y-72857142D01*
X146717857Y-72928571D01*
X146289285Y-72928571D01*
X146146428Y-72857142D01*
X146075000Y-72785714D01*
X146003571Y-72642857D01*
X146003571Y-72428571D01*
X146075000Y-72285714D01*
X146146428Y-72214285D01*
X146289285Y-72142857D01*
X146717857Y-72142857D01*
X146860714Y-72214285D01*
X146932142Y-72285714D01*
X147003571Y-72428571D01*
X147003571Y-72642857D01*
X147003571Y-71500000D02*
X146003571Y-71500000D01*
X145503571Y-71500000D02*
X145575000Y-71571428D01*
X145646428Y-71500000D01*
X145575000Y-71428571D01*
X145503571Y-71500000D01*
X145646428Y-71500000D01*
X146932142Y-70857142D02*
X147003571Y-70714285D01*
X147003571Y-70428571D01*
X146932142Y-70285714D01*
X146789285Y-70214285D01*
X146717857Y-70214285D01*
X146575000Y-70285714D01*
X146503571Y-70428571D01*
X146503571Y-70642857D01*
X146432142Y-70785714D01*
X146289285Y-70857142D01*
X146217857Y-70857142D01*
X146075000Y-70785714D01*
X146003571Y-70642857D01*
X146003571Y-70428571D01*
X146075000Y-70285714D01*
X146003571Y-69785714D02*
X146003571Y-69214285D01*
X145503571Y-69571428D02*
X146789285Y-69571428D01*
X146932142Y-69500000D01*
X147003571Y-69357142D01*
X147003571Y-69214285D01*
X146003571Y-68071428D02*
X147003571Y-68071428D01*
X146003571Y-68714285D02*
X146789285Y-68714285D01*
X146932142Y-68642857D01*
X147003571Y-68500000D01*
X147003571Y-68285714D01*
X146932142Y-68142857D01*
X146860714Y-68071428D01*
X147003571Y-67357142D02*
X146003571Y-67357142D01*
X146289285Y-67357142D02*
X146146428Y-67285714D01*
X146075000Y-67214285D01*
X146003571Y-67071428D01*
X146003571Y-66928571D01*
X146932142Y-65857142D02*
X147003571Y-66000000D01*
X147003571Y-66285714D01*
X146932142Y-66428571D01*
X146789285Y-66500000D01*
X146217857Y-66500000D01*
X146075000Y-66428571D01*
X146003571Y-66285714D01*
X146003571Y-66000000D01*
X146075000Y-65857142D01*
X146217857Y-65785714D01*
X146360714Y-65785714D01*
X146503571Y-66500000D01*
X149482142Y-78821428D02*
X149553571Y-78678571D01*
X149553571Y-78392857D01*
X149482142Y-78250000D01*
X149339285Y-78178571D01*
X149267857Y-78178571D01*
X149125000Y-78250000D01*
X149053571Y-78392857D01*
X149053571Y-78607142D01*
X148982142Y-78750000D01*
X148839285Y-78821428D01*
X148767857Y-78821428D01*
X148625000Y-78750000D01*
X148553571Y-78607142D01*
X148553571Y-78392857D01*
X148625000Y-78250000D01*
X149482142Y-76964285D02*
X149553571Y-77107142D01*
X149553571Y-77392857D01*
X149482142Y-77535714D01*
X149339285Y-77607142D01*
X148767857Y-77607142D01*
X148625000Y-77535714D01*
X148553571Y-77392857D01*
X148553571Y-77107142D01*
X148625000Y-76964285D01*
X148767857Y-76892857D01*
X148910714Y-76892857D01*
X149053571Y-77607142D01*
X148553571Y-76250000D02*
X149553571Y-76250000D01*
X148696428Y-76250000D02*
X148625000Y-76178571D01*
X148553571Y-76035714D01*
X148553571Y-75821428D01*
X148625000Y-75678571D01*
X148767857Y-75607142D01*
X149553571Y-75607142D01*
X149482142Y-74964285D02*
X149553571Y-74821428D01*
X149553571Y-74535714D01*
X149482142Y-74392857D01*
X149339285Y-74321428D01*
X149267857Y-74321428D01*
X149125000Y-74392857D01*
X149053571Y-74535714D01*
X149053571Y-74750000D01*
X148982142Y-74892857D01*
X148839285Y-74964285D01*
X148767857Y-74964285D01*
X148625000Y-74892857D01*
X148553571Y-74750000D01*
X148553571Y-74535714D01*
X148625000Y-74392857D01*
X149553571Y-73464285D02*
X149482142Y-73607142D01*
X149410714Y-73678571D01*
X149267857Y-73750000D01*
X148839285Y-73750000D01*
X148696428Y-73678571D01*
X148625000Y-73607142D01*
X148553571Y-73464285D01*
X148553571Y-73250000D01*
X148625000Y-73107142D01*
X148696428Y-73035714D01*
X148839285Y-72964285D01*
X149267857Y-72964285D01*
X149410714Y-73035714D01*
X149482142Y-73107142D01*
X149553571Y-73250000D01*
X149553571Y-73464285D01*
X149553571Y-72321428D02*
X148553571Y-72321428D01*
X148839285Y-72321428D02*
X148696428Y-72250000D01*
X148625000Y-72178571D01*
X148553571Y-72035714D01*
X148553571Y-71892857D01*
X148553571Y-70392857D02*
X149553571Y-70035714D01*
X148553571Y-69678571D01*
X148053571Y-69250000D02*
X148053571Y-68321428D01*
X148625000Y-68821428D01*
X148625000Y-68607142D01*
X148696428Y-68464285D01*
X148767857Y-68392857D01*
X148910714Y-68321428D01*
X149267857Y-68321428D01*
X149410714Y-68392857D01*
X149482142Y-68464285D01*
X149553571Y-68607142D01*
X149553571Y-69035714D01*
X149482142Y-69178571D01*
X149410714Y-69250000D01*
X149410714Y-67678571D02*
X149482142Y-67607142D01*
X149553571Y-67678571D01*
X149482142Y-67750000D01*
X149410714Y-67678571D01*
X149553571Y-67678571D01*
X148053571Y-66678571D02*
X148053571Y-66535714D01*
X148125000Y-66392857D01*
X148196428Y-66321428D01*
X148339285Y-66250000D01*
X148625000Y-66178571D01*
X148982142Y-66178571D01*
X149267857Y-66250000D01*
X149410714Y-66321428D01*
X149482142Y-66392857D01*
X149553571Y-66535714D01*
X149553571Y-66678571D01*
X149482142Y-66821428D01*
X149410714Y-66892857D01*
X149267857Y-66964285D01*
X148982142Y-67035714D01*
X148625000Y-67035714D01*
X148339285Y-66964285D01*
X148196428Y-66892857D01*
X148125000Y-66821428D01*
X148053571Y-66678571D01*
D12*
X178000000Y-81000000D02*
X178000000Y-65000000D01*
D11*
X189642857Y-72571428D02*
X188119047Y-73142857D01*
X189642857Y-73714285D01*
X190595238Y-73142857D02*
X192119047Y-73142857D01*
X194595238Y-72571428D02*
X194595238Y-74571428D01*
X194595238Y-72666666D02*
X194785714Y-72571428D01*
X195166666Y-72571428D01*
X195357142Y-72666666D01*
X195452380Y-72761904D01*
X195547619Y-72952380D01*
X195547619Y-73523809D01*
X195452380Y-73714285D01*
X195357142Y-73809523D01*
X195166666Y-73904761D01*
X194785714Y-73904761D01*
X194595238Y-73809523D01*
X197261904Y-72571428D02*
X197261904Y-73904761D01*
X196404761Y-72571428D02*
X196404761Y-73619047D01*
X196500000Y-73809523D01*
X196690476Y-73904761D01*
X196976190Y-73904761D01*
X197166666Y-73809523D01*
X197261904Y-73714285D01*
X197928571Y-72571428D02*
X198690476Y-72571428D01*
X198214285Y-71904761D02*
X198214285Y-73619047D01*
X198309523Y-73809523D01*
X198500000Y-73904761D01*
X198690476Y-73904761D01*
X200595238Y-72571428D02*
X201357142Y-72571428D01*
X200880952Y-71904761D02*
X200880952Y-73619047D01*
X200976190Y-73809523D01*
X201166666Y-73904761D01*
X201357142Y-73904761D01*
X202023809Y-73904761D02*
X202023809Y-71904761D01*
X202880952Y-73904761D02*
X202880952Y-72857142D01*
X202785714Y-72666666D01*
X202595238Y-72571428D01*
X202309523Y-72571428D01*
X202119047Y-72666666D01*
X202023809Y-72761904D01*
X203833333Y-73904761D02*
X203833333Y-72571428D01*
X203833333Y-71904761D02*
X203738095Y-72000000D01*
X203833333Y-72095238D01*
X203928571Y-72000000D01*
X203833333Y-71904761D01*
X203833333Y-72095238D01*
X204690476Y-73809523D02*
X204880952Y-73904761D01*
X205261904Y-73904761D01*
X205452380Y-73809523D01*
X205547619Y-73619047D01*
X205547619Y-73523809D01*
X205452380Y-73333333D01*
X205261904Y-73238095D01*
X204976190Y-73238095D01*
X204785714Y-73142857D01*
X204690476Y-72952380D01*
X204690476Y-72857142D01*
X204785714Y-72666666D01*
X204976190Y-72571428D01*
X205261904Y-72571428D01*
X205452380Y-72666666D01*
X207928571Y-72571428D02*
X207928571Y-74571428D01*
X207928571Y-72666666D02*
X208119047Y-72571428D01*
X208500000Y-72571428D01*
X208690476Y-72666666D01*
X208785714Y-72761904D01*
X208880952Y-72952380D01*
X208880952Y-73523809D01*
X208785714Y-73714285D01*
X208690476Y-73809523D01*
X208500000Y-73904761D01*
X208119047Y-73904761D01*
X207928571Y-73809523D01*
X210595238Y-73904761D02*
X210595238Y-72857142D01*
X210500000Y-72666666D01*
X210309523Y-72571428D01*
X209928571Y-72571428D01*
X209738095Y-72666666D01*
X210595238Y-73809523D02*
X210404761Y-73904761D01*
X209928571Y-73904761D01*
X209738095Y-73809523D01*
X209642857Y-73619047D01*
X209642857Y-73428571D01*
X209738095Y-73238095D01*
X209928571Y-73142857D01*
X210404761Y-73142857D01*
X210595238Y-73047619D01*
X211547619Y-73904761D02*
X211547619Y-72571428D01*
X211547619Y-72952380D02*
X211642857Y-72761904D01*
X211738095Y-72666666D01*
X211928571Y-72571428D01*
X212119047Y-72571428D01*
X212500000Y-72571428D02*
X213261904Y-72571428D01*
X212785714Y-71904761D02*
X212785714Y-73619047D01*
X212880952Y-73809523D01*
X213071428Y-73904761D01*
X213261904Y-73904761D01*
X215166666Y-72571428D02*
X215928571Y-72571428D01*
X215452380Y-71904761D02*
X215452380Y-73619047D01*
X215547619Y-73809523D01*
X215738095Y-73904761D01*
X215928571Y-73904761D01*
X216880952Y-73904761D02*
X216690476Y-73809523D01*
X216595238Y-73714285D01*
X216500000Y-73523809D01*
X216500000Y-72952380D01*
X216595238Y-72761904D01*
X216690476Y-72666666D01*
X216880952Y-72571428D01*
X217166666Y-72571428D01*
X217357142Y-72666666D01*
X217452380Y-72761904D01*
X217547619Y-72952380D01*
X217547619Y-73523809D01*
X217452380Y-73714285D01*
X217357142Y-73809523D01*
X217166666Y-73904761D01*
X216880952Y-73904761D01*
X219833333Y-73809523D02*
X220023809Y-73904761D01*
X220404761Y-73904761D01*
X220595238Y-73809523D01*
X220690476Y-73619047D01*
X220690476Y-73523809D01*
X220595238Y-73333333D01*
X220404761Y-73238095D01*
X220119047Y-73238095D01*
X219928571Y-73142857D01*
X219833333Y-72952380D01*
X219833333Y-72857142D01*
X219928571Y-72666666D01*
X220119047Y-72571428D01*
X220404761Y-72571428D01*
X220595238Y-72666666D01*
X221833333Y-73904761D02*
X221642857Y-73809523D01*
X221547619Y-73714285D01*
X221452380Y-73523809D01*
X221452380Y-72952380D01*
X221547619Y-72761904D01*
X221642857Y-72666666D01*
X221833333Y-72571428D01*
X222119047Y-72571428D01*
X222309523Y-72666666D01*
X222404761Y-72761904D01*
X222500000Y-72952380D01*
X222500000Y-73523809D01*
X222404761Y-73714285D01*
X222309523Y-73809523D01*
X222119047Y-73904761D01*
X221833333Y-73904761D01*
X223357142Y-73904761D02*
X223357142Y-72571428D01*
X223357142Y-71904761D02*
X223261904Y-72000000D01*
X223357142Y-72095238D01*
X223452380Y-72000000D01*
X223357142Y-71904761D01*
X223357142Y-72095238D01*
X224595238Y-73904761D02*
X224404761Y-73809523D01*
X224309523Y-73619047D01*
X224309523Y-71904761D01*
X226880952Y-73142857D02*
X228404761Y-73142857D01*
X229357142Y-72571428D02*
X230880952Y-73142857D01*
X229357142Y-73714285D01*
X189642857Y-90571428D02*
X188119047Y-91142857D01*
X189642857Y-91714285D01*
X190595238Y-91142857D02*
X192119047Y-91142857D01*
X194595238Y-90571428D02*
X194595238Y-92571428D01*
X194595238Y-90666666D02*
X194785714Y-90571428D01*
X195166666Y-90571428D01*
X195357142Y-90666666D01*
X195452380Y-90761904D01*
X195547619Y-90952380D01*
X195547619Y-91523809D01*
X195452380Y-91714285D01*
X195357142Y-91809523D01*
X195166666Y-91904761D01*
X194785714Y-91904761D01*
X194595238Y-91809523D01*
X197261904Y-90571428D02*
X197261904Y-91904761D01*
X196404761Y-90571428D02*
X196404761Y-91619047D01*
X196500000Y-91809523D01*
X196690476Y-91904761D01*
X196976190Y-91904761D01*
X197166666Y-91809523D01*
X197261904Y-91714285D01*
X197928571Y-90571428D02*
X198690476Y-90571428D01*
X198214285Y-89904761D02*
X198214285Y-91619047D01*
X198309523Y-91809523D01*
X198500000Y-91904761D01*
X198690476Y-91904761D01*
X200595238Y-90571428D02*
X201357142Y-90571428D01*
X200880952Y-89904761D02*
X200880952Y-91619047D01*
X200976190Y-91809523D01*
X201166666Y-91904761D01*
X201357142Y-91904761D01*
X202023809Y-91904761D02*
X202023809Y-89904761D01*
X202880952Y-91904761D02*
X202880952Y-90857142D01*
X202785714Y-90666666D01*
X202595238Y-90571428D01*
X202309523Y-90571428D01*
X202119047Y-90666666D01*
X202023809Y-90761904D01*
X203833333Y-91904761D02*
X203833333Y-90571428D01*
X203833333Y-89904761D02*
X203738095Y-90000000D01*
X203833333Y-90095238D01*
X203928571Y-90000000D01*
X203833333Y-89904761D01*
X203833333Y-90095238D01*
X204690476Y-91809523D02*
X204880952Y-91904761D01*
X205261904Y-91904761D01*
X205452380Y-91809523D01*
X205547619Y-91619047D01*
X205547619Y-91523809D01*
X205452380Y-91333333D01*
X205261904Y-91238095D01*
X204976190Y-91238095D01*
X204785714Y-91142857D01*
X204690476Y-90952380D01*
X204690476Y-90857142D01*
X204785714Y-90666666D01*
X204976190Y-90571428D01*
X205261904Y-90571428D01*
X205452380Y-90666666D01*
X207928571Y-90571428D02*
X207928571Y-92571428D01*
X207928571Y-90666666D02*
X208119047Y-90571428D01*
X208500000Y-90571428D01*
X208690476Y-90666666D01*
X208785714Y-90761904D01*
X208880952Y-90952380D01*
X208880952Y-91523809D01*
X208785714Y-91714285D01*
X208690476Y-91809523D01*
X208500000Y-91904761D01*
X208119047Y-91904761D01*
X207928571Y-91809523D01*
X210595238Y-91904761D02*
X210595238Y-90857142D01*
X210500000Y-90666666D01*
X210309523Y-90571428D01*
X209928571Y-90571428D01*
X209738095Y-90666666D01*
X210595238Y-91809523D02*
X210404761Y-91904761D01*
X209928571Y-91904761D01*
X209738095Y-91809523D01*
X209642857Y-91619047D01*
X209642857Y-91428571D01*
X209738095Y-91238095D01*
X209928571Y-91142857D01*
X210404761Y-91142857D01*
X210595238Y-91047619D01*
X211547619Y-91904761D02*
X211547619Y-90571428D01*
X211547619Y-90952380D02*
X211642857Y-90761904D01*
X211738095Y-90666666D01*
X211928571Y-90571428D01*
X212119047Y-90571428D01*
X212500000Y-90571428D02*
X213261904Y-90571428D01*
X212785714Y-89904761D02*
X212785714Y-91619047D01*
X212880952Y-91809523D01*
X213071428Y-91904761D01*
X213261904Y-91904761D01*
X215166666Y-90571428D02*
X215928571Y-90571428D01*
X215452380Y-89904761D02*
X215452380Y-91619047D01*
X215547619Y-91809523D01*
X215738095Y-91904761D01*
X215928571Y-91904761D01*
X216880952Y-91904761D02*
X216690476Y-91809523D01*
X216595238Y-91714285D01*
X216500000Y-91523809D01*
X216500000Y-90952380D01*
X216595238Y-90761904D01*
X216690476Y-90666666D01*
X216880952Y-90571428D01*
X217166666Y-90571428D01*
X217357142Y-90666666D01*
X217452380Y-90761904D01*
X217547619Y-90952380D01*
X217547619Y-91523809D01*
X217452380Y-91714285D01*
X217357142Y-91809523D01*
X217166666Y-91904761D01*
X216880952Y-91904761D01*
X219833333Y-91809523D02*
X220023809Y-91904761D01*
X220404761Y-91904761D01*
X220595238Y-91809523D01*
X220690476Y-91619047D01*
X220690476Y-91523809D01*
X220595238Y-91333333D01*
X220404761Y-91238095D01*
X220119047Y-91238095D01*
X219928571Y-91142857D01*
X219833333Y-90952380D01*
X219833333Y-90857142D01*
X219928571Y-90666666D01*
X220119047Y-90571428D01*
X220404761Y-90571428D01*
X220595238Y-90666666D01*
X221833333Y-91904761D02*
X221642857Y-91809523D01*
X221547619Y-91714285D01*
X221452380Y-91523809D01*
X221452380Y-90952380D01*
X221547619Y-90761904D01*
X221642857Y-90666666D01*
X221833333Y-90571428D01*
X222119047Y-90571428D01*
X222309523Y-90666666D01*
X222404761Y-90761904D01*
X222500000Y-90952380D01*
X222500000Y-91523809D01*
X222404761Y-91714285D01*
X222309523Y-91809523D01*
X222119047Y-91904761D01*
X221833333Y-91904761D01*
X223357142Y-91904761D02*
X223357142Y-90571428D01*
X223357142Y-89904761D02*
X223261904Y-90000000D01*
X223357142Y-90095238D01*
X223452380Y-90000000D01*
X223357142Y-89904761D01*
X223357142Y-90095238D01*
X224595238Y-91904761D02*
X224404761Y-91809523D01*
X224309523Y-91619047D01*
X224309523Y-89904761D01*
X226880952Y-91142857D02*
X228404761Y-91142857D01*
X229357142Y-90571428D02*
X230880952Y-91142857D01*
X229357142Y-91714285D01*
D12*
X178000000Y-99000000D02*
X178000000Y-83000000D01*
D11*
X146932142Y-98357142D02*
X147003571Y-98142857D01*
X147003571Y-97785714D01*
X146932142Y-97642857D01*
X146860714Y-97571428D01*
X146717857Y-97500000D01*
X146575000Y-97500000D01*
X146432142Y-97571428D01*
X146360714Y-97642857D01*
X146289285Y-97785714D01*
X146217857Y-98071428D01*
X146146428Y-98214285D01*
X146075000Y-98285714D01*
X145932142Y-98357142D01*
X145789285Y-98357142D01*
X145646428Y-98285714D01*
X145575000Y-98214285D01*
X145503571Y-98071428D01*
X145503571Y-97714285D01*
X145575000Y-97500000D01*
X147003571Y-96642857D02*
X146932142Y-96785714D01*
X146860714Y-96857142D01*
X146717857Y-96928571D01*
X146289285Y-96928571D01*
X146146428Y-96857142D01*
X146075000Y-96785714D01*
X146003571Y-96642857D01*
X146003571Y-96428571D01*
X146075000Y-96285714D01*
X146146428Y-96214285D01*
X146289285Y-96142857D01*
X146717857Y-96142857D01*
X146860714Y-96214285D01*
X146932142Y-96285714D01*
X147003571Y-96428571D01*
X147003571Y-96642857D01*
X147003571Y-95500000D02*
X146003571Y-95500000D01*
X145503571Y-95500000D02*
X145575000Y-95571428D01*
X145646428Y-95500000D01*
X145575000Y-95428571D01*
X145503571Y-95500000D01*
X145646428Y-95500000D01*
X147003571Y-94571428D02*
X146932142Y-94714285D01*
X146789285Y-94785714D01*
X145503571Y-94785714D01*
X147003571Y-92857142D02*
X146003571Y-92857142D01*
X146146428Y-92857142D02*
X146075000Y-92785714D01*
X146003571Y-92642857D01*
X146003571Y-92428571D01*
X146075000Y-92285714D01*
X146217857Y-92214285D01*
X147003571Y-92214285D01*
X146217857Y-92214285D02*
X146075000Y-92142857D01*
X146003571Y-92000000D01*
X146003571Y-91785714D01*
X146075000Y-91642857D01*
X146217857Y-91571428D01*
X147003571Y-91571428D01*
X147003571Y-90642857D02*
X146932142Y-90785714D01*
X146860714Y-90857142D01*
X146717857Y-90928571D01*
X146289285Y-90928571D01*
X146146428Y-90857142D01*
X146075000Y-90785714D01*
X146003571Y-90642857D01*
X146003571Y-90428571D01*
X146075000Y-90285714D01*
X146146428Y-90214285D01*
X146289285Y-90142857D01*
X146717857Y-90142857D01*
X146860714Y-90214285D01*
X146932142Y-90285714D01*
X147003571Y-90428571D01*
X147003571Y-90642857D01*
X147003571Y-89500000D02*
X146003571Y-89500000D01*
X145503571Y-89500000D02*
X145575000Y-89571428D01*
X145646428Y-89500000D01*
X145575000Y-89428571D01*
X145503571Y-89500000D01*
X145646428Y-89500000D01*
X146932142Y-88857142D02*
X147003571Y-88714285D01*
X147003571Y-88428571D01*
X146932142Y-88285714D01*
X146789285Y-88214285D01*
X146717857Y-88214285D01*
X146575000Y-88285714D01*
X146503571Y-88428571D01*
X146503571Y-88642857D01*
X146432142Y-88785714D01*
X146289285Y-88857142D01*
X146217857Y-88857142D01*
X146075000Y-88785714D01*
X146003571Y-88642857D01*
X146003571Y-88428571D01*
X146075000Y-88285714D01*
X146003571Y-87785714D02*
X146003571Y-87214285D01*
X145503571Y-87571428D02*
X146789285Y-87571428D01*
X146932142Y-87500000D01*
X147003571Y-87357142D01*
X147003571Y-87214285D01*
X146003571Y-86071428D02*
X147003571Y-86071428D01*
X146003571Y-86714285D02*
X146789285Y-86714285D01*
X146932142Y-86642857D01*
X147003571Y-86500000D01*
X147003571Y-86285714D01*
X146932142Y-86142857D01*
X146860714Y-86071428D01*
X147003571Y-85357142D02*
X146003571Y-85357142D01*
X146289285Y-85357142D02*
X146146428Y-85285714D01*
X146075000Y-85214285D01*
X146003571Y-85071428D01*
X146003571Y-84928571D01*
X146932142Y-83857142D02*
X147003571Y-84000000D01*
X147003571Y-84285714D01*
X146932142Y-84428571D01*
X146789285Y-84500000D01*
X146217857Y-84500000D01*
X146075000Y-84428571D01*
X146003571Y-84285714D01*
X146003571Y-84000000D01*
X146075000Y-83857142D01*
X146217857Y-83785714D01*
X146360714Y-83785714D01*
X146503571Y-84500000D01*
X149482142Y-96821428D02*
X149553571Y-96678571D01*
X149553571Y-96392857D01*
X149482142Y-96250000D01*
X149339285Y-96178571D01*
X149267857Y-96178571D01*
X149125000Y-96250000D01*
X149053571Y-96392857D01*
X149053571Y-96607142D01*
X148982142Y-96750000D01*
X148839285Y-96821428D01*
X148767857Y-96821428D01*
X148625000Y-96750000D01*
X148553571Y-96607142D01*
X148553571Y-96392857D01*
X148625000Y-96250000D01*
X149482142Y-94964285D02*
X149553571Y-95107142D01*
X149553571Y-95392857D01*
X149482142Y-95535714D01*
X149339285Y-95607142D01*
X148767857Y-95607142D01*
X148625000Y-95535714D01*
X148553571Y-95392857D01*
X148553571Y-95107142D01*
X148625000Y-94964285D01*
X148767857Y-94892857D01*
X148910714Y-94892857D01*
X149053571Y-95607142D01*
X148553571Y-94250000D02*
X149553571Y-94250000D01*
X148696428Y-94250000D02*
X148625000Y-94178571D01*
X148553571Y-94035714D01*
X148553571Y-93821428D01*
X148625000Y-93678571D01*
X148767857Y-93607142D01*
X149553571Y-93607142D01*
X149482142Y-92964285D02*
X149553571Y-92821428D01*
X149553571Y-92535714D01*
X149482142Y-92392857D01*
X149339285Y-92321428D01*
X149267857Y-92321428D01*
X149125000Y-92392857D01*
X149053571Y-92535714D01*
X149053571Y-92750000D01*
X148982142Y-92892857D01*
X148839285Y-92964285D01*
X148767857Y-92964285D01*
X148625000Y-92892857D01*
X148553571Y-92750000D01*
X148553571Y-92535714D01*
X148625000Y-92392857D01*
X149553571Y-91464285D02*
X149482142Y-91607142D01*
X149410714Y-91678571D01*
X149267857Y-91750000D01*
X148839285Y-91750000D01*
X148696428Y-91678571D01*
X148625000Y-91607142D01*
X148553571Y-91464285D01*
X148553571Y-91250000D01*
X148625000Y-91107142D01*
X148696428Y-91035714D01*
X148839285Y-90964285D01*
X149267857Y-90964285D01*
X149410714Y-91035714D01*
X149482142Y-91107142D01*
X149553571Y-91250000D01*
X149553571Y-91464285D01*
X149553571Y-90321428D02*
X148553571Y-90321428D01*
X148839285Y-90321428D02*
X148696428Y-90250000D01*
X148625000Y-90178571D01*
X148553571Y-90035714D01*
X148553571Y-89892857D01*
X148553571Y-88392857D02*
X149553571Y-88035714D01*
X148553571Y-87678571D01*
X148053571Y-87250000D02*
X148053571Y-86321428D01*
X148625000Y-86821428D01*
X148625000Y-86607142D01*
X148696428Y-86464285D01*
X148767857Y-86392857D01*
X148910714Y-86321428D01*
X149267857Y-86321428D01*
X149410714Y-86392857D01*
X149482142Y-86464285D01*
X149553571Y-86607142D01*
X149553571Y-87035714D01*
X149482142Y-87178571D01*
X149410714Y-87250000D01*
X149410714Y-85678571D02*
X149482142Y-85607142D01*
X149553571Y-85678571D01*
X149482142Y-85750000D01*
X149410714Y-85678571D01*
X149553571Y-85678571D01*
X148053571Y-84678571D02*
X148053571Y-84535714D01*
X148125000Y-84392857D01*
X148196428Y-84321428D01*
X148339285Y-84250000D01*
X148625000Y-84178571D01*
X148982142Y-84178571D01*
X149267857Y-84250000D01*
X149410714Y-84321428D01*
X149482142Y-84392857D01*
X149553571Y-84535714D01*
X149553571Y-84678571D01*
X149482142Y-84821428D01*
X149410714Y-84892857D01*
X149267857Y-84964285D01*
X148982142Y-85035714D01*
X148625000Y-85035714D01*
X148339285Y-84964285D01*
X148196428Y-84892857D01*
X148125000Y-84821428D01*
X148053571Y-84678571D01*
D13*
X139237000Y-74790000D02*
X139237000Y-75790000D01*
X137887000Y-75790000D02*
X137887000Y-74790000D01*
X139665000Y-75790000D02*
X139665000Y-74790000D01*
X141015000Y-74790000D02*
X141015000Y-75790000D01*
X141015000Y-71996000D02*
X141015000Y-72996000D01*
X139665000Y-72996000D02*
X139665000Y-71996000D01*
X139250000Y-69000000D02*
X138550000Y-69000000D01*
X138550000Y-67800000D02*
X139250000Y-67800000D01*
X138200000Y-69325000D02*
X139200000Y-69325000D01*
X139200000Y-70675000D02*
X138200000Y-70675000D01*
X137887000Y-72996000D02*
X137887000Y-71996000D01*
X139237000Y-71996000D02*
X139237000Y-72996000D01*
X142718000Y-72146000D02*
X142718000Y-72846000D01*
X141518000Y-72846000D02*
X141518000Y-72146000D01*
X141518000Y-75640000D02*
X141518000Y-74940000D01*
X142718000Y-74940000D02*
X142718000Y-75640000D01*
D14*
G36*
X154845360Y-74313840D02*
X154830120Y-74288440D01*
X154794560Y-74230020D01*
X154738680Y-74146200D01*
X154672640Y-74047140D01*
X154606600Y-73948080D01*
X154553260Y-73866800D01*
X154515160Y-73810920D01*
X154502460Y-73785520D01*
X154507540Y-73772820D01*
X154530400Y-73727100D01*
X154565960Y-73658520D01*
X154586280Y-73617880D01*
X154611680Y-73556920D01*
X154619300Y-73523900D01*
X154609140Y-73518820D01*
X154560880Y-73495960D01*
X154479600Y-73460400D01*
X154370380Y-73414680D01*
X154243380Y-73358800D01*
X154108760Y-73302920D01*
X153969060Y-73244500D01*
X153834440Y-73188620D01*
X153715060Y-73140360D01*
X153618540Y-73099720D01*
X153549960Y-73074320D01*
X153522020Y-73064160D01*
X153514400Y-73066700D01*
X153483920Y-73099720D01*
X153443280Y-73153060D01*
X153346760Y-73272440D01*
X153201980Y-73389280D01*
X153036880Y-73460400D01*
X152851460Y-73483260D01*
X152681280Y-73462940D01*
X152518720Y-73396900D01*
X152371400Y-73282600D01*
X152262180Y-73142900D01*
X152193600Y-72980340D01*
X152170740Y-72800000D01*
X152191060Y-72627280D01*
X152257100Y-72459640D01*
X152368860Y-72312320D01*
X152439980Y-72248820D01*
X152589840Y-72162460D01*
X152747320Y-72114200D01*
X152787960Y-72109120D01*
X152963220Y-72116740D01*
X153133400Y-72167540D01*
X153283260Y-72261520D01*
X153407720Y-72391060D01*
X153417880Y-72406300D01*
X153463600Y-72464720D01*
X153494080Y-72505360D01*
X153519480Y-72535840D01*
X154057960Y-72312320D01*
X154141780Y-72276760D01*
X154289100Y-72215800D01*
X154416100Y-72162460D01*
X154517700Y-72119280D01*
X154583740Y-72088800D01*
X154611680Y-72076100D01*
X154614220Y-72076100D01*
X154616760Y-72055780D01*
X154601520Y-72015140D01*
X154565960Y-71938940D01*
X154540560Y-71890680D01*
X154512620Y-71832260D01*
X154502460Y-71806860D01*
X154515160Y-71784000D01*
X154550720Y-71730660D01*
X154604060Y-71649380D01*
X154667560Y-71552860D01*
X154731060Y-71461420D01*
X154786940Y-71377600D01*
X154825040Y-71316640D01*
X154842820Y-71286160D01*
X154842820Y-71281080D01*
X154827580Y-71255680D01*
X154786940Y-71207420D01*
X154718360Y-71133760D01*
X154614220Y-71029620D01*
X154598980Y-71014380D01*
X154512620Y-70928020D01*
X154438960Y-70859440D01*
X154388160Y-70813720D01*
X154365300Y-70795940D01*
X154365300Y-70795940D01*
X154334820Y-70811180D01*
X154273860Y-70849280D01*
X154187500Y-70905160D01*
X154088440Y-70973740D01*
X153829360Y-71151540D01*
X153585520Y-71055020D01*
X153509320Y-71024540D01*
X153420420Y-70986440D01*
X153354380Y-70958500D01*
X153326440Y-70943260D01*
X153316280Y-70917860D01*
X153301040Y-70849280D01*
X153280720Y-70752760D01*
X153260400Y-70638460D01*
X153240080Y-70526700D01*
X153219760Y-70427640D01*
X153207060Y-70356520D01*
X153199440Y-70323500D01*
X153194360Y-70315880D01*
X153179120Y-70308260D01*
X153146100Y-70305720D01*
X153085140Y-70303180D01*
X152991160Y-70300640D01*
X152851460Y-70300640D01*
X152836220Y-70300640D01*
X152706680Y-70303180D01*
X152600000Y-70305720D01*
X152533960Y-70308260D01*
X152506020Y-70313340D01*
X152506020Y-70313340D01*
X152498400Y-70343820D01*
X152483160Y-70414940D01*
X152465380Y-70514000D01*
X152442520Y-70633380D01*
X152439980Y-70641000D01*
X152417120Y-70757840D01*
X152396800Y-70856900D01*
X152381560Y-70928020D01*
X152371400Y-70955960D01*
X152363780Y-70963580D01*
X152318060Y-70986440D01*
X152244400Y-71019460D01*
X152155500Y-71060100D01*
X152061520Y-71098200D01*
X151977700Y-71131220D01*
X151916740Y-71154080D01*
X151888800Y-71161700D01*
X151886260Y-71159160D01*
X151858320Y-71141380D01*
X151797360Y-71100740D01*
X151713540Y-71044860D01*
X151611940Y-70976280D01*
X151604320Y-70971200D01*
X151505260Y-70902620D01*
X151418900Y-70846740D01*
X151360480Y-70811180D01*
X151332540Y-70795940D01*
X151330000Y-70795940D01*
X151299520Y-70818800D01*
X151243640Y-70869600D01*
X151167440Y-70943260D01*
X151078540Y-71029620D01*
X151053140Y-71057560D01*
X150956620Y-71156620D01*
X150895660Y-71222660D01*
X150862640Y-71265840D01*
X150855020Y-71286160D01*
X150855020Y-71286160D01*
X150872800Y-71316640D01*
X150913440Y-71380140D01*
X150971860Y-71463960D01*
X151040440Y-71565560D01*
X151045520Y-71573180D01*
X151114100Y-71672240D01*
X151169980Y-71756060D01*
X151210620Y-71814480D01*
X151225860Y-71842420D01*
X151225860Y-71844960D01*
X151213160Y-71885600D01*
X151187760Y-71956720D01*
X151154740Y-72045620D01*
X151116640Y-72137060D01*
X151081080Y-72220880D01*
X151053140Y-72284380D01*
X151035360Y-72314860D01*
X151035360Y-72314860D01*
X150999800Y-72325020D01*
X150923600Y-72342800D01*
X150822000Y-72363120D01*
X150700080Y-72388520D01*
X150679760Y-72391060D01*
X150560380Y-72413920D01*
X150461320Y-72431700D01*
X150392740Y-72446940D01*
X150364800Y-72454560D01*
X150362260Y-72469800D01*
X150357180Y-72528220D01*
X150354640Y-72617120D01*
X150354640Y-72726340D01*
X150354640Y-72838100D01*
X150357180Y-72947320D01*
X150359720Y-73041300D01*
X150364800Y-73109880D01*
X150369880Y-73137820D01*
X150372420Y-73137820D01*
X150410520Y-73147980D01*
X150484180Y-73165760D01*
X150588320Y-73186080D01*
X150710240Y-73208940D01*
X150733100Y-73214020D01*
X150849940Y-73236880D01*
X150949000Y-73257200D01*
X151015040Y-73269900D01*
X151042980Y-73277520D01*
X151048060Y-73290220D01*
X151068380Y-73338480D01*
X151101400Y-73417220D01*
X151142040Y-73516280D01*
X151233480Y-73744880D01*
X151042980Y-74026820D01*
X151025200Y-74052220D01*
X150956620Y-74153820D01*
X150900740Y-74235100D01*
X150862640Y-74293520D01*
X150849940Y-74316380D01*
X150849940Y-74318920D01*
X150875340Y-74346860D01*
X150928680Y-74402740D01*
X151002340Y-74478940D01*
X151088700Y-74567840D01*
X151154740Y-74631340D01*
X151233480Y-74710080D01*
X151286820Y-74758340D01*
X151319840Y-74786280D01*
X151340160Y-74793900D01*
X151355400Y-74791360D01*
X151383340Y-74773580D01*
X151444300Y-74732940D01*
X151530660Y-74674520D01*
X151629720Y-74605940D01*
X151713540Y-74550060D01*
X151807520Y-74489100D01*
X151873560Y-74451000D01*
X151906580Y-74435760D01*
X151919280Y-74440840D01*
X151975160Y-74458620D01*
X152058980Y-74494180D01*
X152158040Y-74534820D01*
X152379020Y-74633880D01*
X152406960Y-74778660D01*
X152424740Y-74867560D01*
X152447600Y-74989480D01*
X152470460Y-75108860D01*
X152506020Y-75291740D01*
X153181660Y-75299360D01*
X153194360Y-75271420D01*
X153201980Y-75243480D01*
X153217220Y-75174900D01*
X153237540Y-75078380D01*
X153257860Y-74961540D01*
X153275640Y-74865020D01*
X153295960Y-74765960D01*
X153308660Y-74694840D01*
X153316280Y-74664360D01*
X153326440Y-74654200D01*
X153374700Y-74631340D01*
X153450900Y-74595780D01*
X153542340Y-74555140D01*
X153636320Y-74517040D01*
X153725220Y-74481480D01*
X153791260Y-74458620D01*
X153824280Y-74448460D01*
X153852220Y-74461160D01*
X153910640Y-74499260D01*
X153991920Y-74552600D01*
X154090980Y-74621180D01*
X154187500Y-74687220D01*
X154271320Y-74745640D01*
X154332280Y-74783740D01*
X154360220Y-74801520D01*
X154378000Y-74791360D01*
X154426260Y-74753260D01*
X154502460Y-74679600D01*
X154611680Y-74567840D01*
X154629460Y-74550060D01*
X154713280Y-74463700D01*
X154781860Y-74390040D01*
X154827580Y-74336700D01*
X154845360Y-74313840D01*
X154845360Y-74313840D01*
G37*
X154845360Y-74313840D02*
X154830120Y-74288440D01*
X154794560Y-74230020D01*
X154738680Y-74146200D01*
X154672640Y-74047140D01*
X154606600Y-73948080D01*
X154553260Y-73866800D01*
X154515160Y-73810920D01*
X154502460Y-73785520D01*
X154507540Y-73772820D01*
X154530400Y-73727100D01*
X154565960Y-73658520D01*
X154586280Y-73617880D01*
X154611680Y-73556920D01*
X154619300Y-73523900D01*
X154609140Y-73518820D01*
X154560880Y-73495960D01*
X154479600Y-73460400D01*
X154370380Y-73414680D01*
X154243380Y-73358800D01*
X154108760Y-73302920D01*
X153969060Y-73244500D01*
X153834440Y-73188620D01*
X153715060Y-73140360D01*
X153618540Y-73099720D01*
X153549960Y-73074320D01*
X153522020Y-73064160D01*
X153514400Y-73066700D01*
X153483920Y-73099720D01*
X153443280Y-73153060D01*
X153346760Y-73272440D01*
X153201980Y-73389280D01*
X153036880Y-73460400D01*
X152851460Y-73483260D01*
X152681280Y-73462940D01*
X152518720Y-73396900D01*
X152371400Y-73282600D01*
X152262180Y-73142900D01*
X152193600Y-72980340D01*
X152170740Y-72800000D01*
X152191060Y-72627280D01*
X152257100Y-72459640D01*
X152368860Y-72312320D01*
X152439980Y-72248820D01*
X152589840Y-72162460D01*
X152747320Y-72114200D01*
X152787960Y-72109120D01*
X152963220Y-72116740D01*
X153133400Y-72167540D01*
X153283260Y-72261520D01*
X153407720Y-72391060D01*
X153417880Y-72406300D01*
X153463600Y-72464720D01*
X153494080Y-72505360D01*
X153519480Y-72535840D01*
X154057960Y-72312320D01*
X154141780Y-72276760D01*
X154289100Y-72215800D01*
X154416100Y-72162460D01*
X154517700Y-72119280D01*
X154583740Y-72088800D01*
X154611680Y-72076100D01*
X154614220Y-72076100D01*
X154616760Y-72055780D01*
X154601520Y-72015140D01*
X154565960Y-71938940D01*
X154540560Y-71890680D01*
X154512620Y-71832260D01*
X154502460Y-71806860D01*
X154515160Y-71784000D01*
X154550720Y-71730660D01*
X154604060Y-71649380D01*
X154667560Y-71552860D01*
X154731060Y-71461420D01*
X154786940Y-71377600D01*
X154825040Y-71316640D01*
X154842820Y-71286160D01*
X154842820Y-71281080D01*
X154827580Y-71255680D01*
X154786940Y-71207420D01*
X154718360Y-71133760D01*
X154614220Y-71029620D01*
X154598980Y-71014380D01*
X154512620Y-70928020D01*
X154438960Y-70859440D01*
X154388160Y-70813720D01*
X154365300Y-70795940D01*
X154365300Y-70795940D01*
X154334820Y-70811180D01*
X154273860Y-70849280D01*
X154187500Y-70905160D01*
X154088440Y-70973740D01*
X153829360Y-71151540D01*
X153585520Y-71055020D01*
X153509320Y-71024540D01*
X153420420Y-70986440D01*
X153354380Y-70958500D01*
X153326440Y-70943260D01*
X153316280Y-70917860D01*
X153301040Y-70849280D01*
X153280720Y-70752760D01*
X153260400Y-70638460D01*
X153240080Y-70526700D01*
X153219760Y-70427640D01*
X153207060Y-70356520D01*
X153199440Y-70323500D01*
X153194360Y-70315880D01*
X153179120Y-70308260D01*
X153146100Y-70305720D01*
X153085140Y-70303180D01*
X152991160Y-70300640D01*
X152851460Y-70300640D01*
X152836220Y-70300640D01*
X152706680Y-70303180D01*
X152600000Y-70305720D01*
X152533960Y-70308260D01*
X152506020Y-70313340D01*
X152506020Y-70313340D01*
X152498400Y-70343820D01*
X152483160Y-70414940D01*
X152465380Y-70514000D01*
X152442520Y-70633380D01*
X152439980Y-70641000D01*
X152417120Y-70757840D01*
X152396800Y-70856900D01*
X152381560Y-70928020D01*
X152371400Y-70955960D01*
X152363780Y-70963580D01*
X152318060Y-70986440D01*
X152244400Y-71019460D01*
X152155500Y-71060100D01*
X152061520Y-71098200D01*
X151977700Y-71131220D01*
X151916740Y-71154080D01*
X151888800Y-71161700D01*
X151886260Y-71159160D01*
X151858320Y-71141380D01*
X151797360Y-71100740D01*
X151713540Y-71044860D01*
X151611940Y-70976280D01*
X151604320Y-70971200D01*
X151505260Y-70902620D01*
X151418900Y-70846740D01*
X151360480Y-70811180D01*
X151332540Y-70795940D01*
X151330000Y-70795940D01*
X151299520Y-70818800D01*
X151243640Y-70869600D01*
X151167440Y-70943260D01*
X151078540Y-71029620D01*
X151053140Y-71057560D01*
X150956620Y-71156620D01*
X150895660Y-71222660D01*
X150862640Y-71265840D01*
X150855020Y-71286160D01*
X150855020Y-71286160D01*
X150872800Y-71316640D01*
X150913440Y-71380140D01*
X150971860Y-71463960D01*
X151040440Y-71565560D01*
X151045520Y-71573180D01*
X151114100Y-71672240D01*
X151169980Y-71756060D01*
X151210620Y-71814480D01*
X151225860Y-71842420D01*
X151225860Y-71844960D01*
X151213160Y-71885600D01*
X151187760Y-71956720D01*
X151154740Y-72045620D01*
X151116640Y-72137060D01*
X151081080Y-72220880D01*
X151053140Y-72284380D01*
X151035360Y-72314860D01*
X151035360Y-72314860D01*
X150999800Y-72325020D01*
X150923600Y-72342800D01*
X150822000Y-72363120D01*
X150700080Y-72388520D01*
X150679760Y-72391060D01*
X150560380Y-72413920D01*
X150461320Y-72431700D01*
X150392740Y-72446940D01*
X150364800Y-72454560D01*
X150362260Y-72469800D01*
X150357180Y-72528220D01*
X150354640Y-72617120D01*
X150354640Y-72726340D01*
X150354640Y-72838100D01*
X150357180Y-72947320D01*
X150359720Y-73041300D01*
X150364800Y-73109880D01*
X150369880Y-73137820D01*
X150372420Y-73137820D01*
X150410520Y-73147980D01*
X150484180Y-73165760D01*
X150588320Y-73186080D01*
X150710240Y-73208940D01*
X150733100Y-73214020D01*
X150849940Y-73236880D01*
X150949000Y-73257200D01*
X151015040Y-73269900D01*
X151042980Y-73277520D01*
X151048060Y-73290220D01*
X151068380Y-73338480D01*
X151101400Y-73417220D01*
X151142040Y-73516280D01*
X151233480Y-73744880D01*
X151042980Y-74026820D01*
X151025200Y-74052220D01*
X150956620Y-74153820D01*
X150900740Y-74235100D01*
X150862640Y-74293520D01*
X150849940Y-74316380D01*
X150849940Y-74318920D01*
X150875340Y-74346860D01*
X150928680Y-74402740D01*
X151002340Y-74478940D01*
X151088700Y-74567840D01*
X151154740Y-74631340D01*
X151233480Y-74710080D01*
X151286820Y-74758340D01*
X151319840Y-74786280D01*
X151340160Y-74793900D01*
X151355400Y-74791360D01*
X151383340Y-74773580D01*
X151444300Y-74732940D01*
X151530660Y-74674520D01*
X151629720Y-74605940D01*
X151713540Y-74550060D01*
X151807520Y-74489100D01*
X151873560Y-74451000D01*
X151906580Y-74435760D01*
X151919280Y-74440840D01*
X151975160Y-74458620D01*
X152058980Y-74494180D01*
X152158040Y-74534820D01*
X152379020Y-74633880D01*
X152406960Y-74778660D01*
X152424740Y-74867560D01*
X152447600Y-74989480D01*
X152470460Y-75108860D01*
X152506020Y-75291740D01*
X153181660Y-75299360D01*
X153194360Y-75271420D01*
X153201980Y-75243480D01*
X153217220Y-75174900D01*
X153237540Y-75078380D01*
X153257860Y-74961540D01*
X153275640Y-74865020D01*
X153295960Y-74765960D01*
X153308660Y-74694840D01*
X153316280Y-74664360D01*
X153326440Y-74654200D01*
X153374700Y-74631340D01*
X153450900Y-74595780D01*
X153542340Y-74555140D01*
X153636320Y-74517040D01*
X153725220Y-74481480D01*
X153791260Y-74458620D01*
X153824280Y-74448460D01*
X153852220Y-74461160D01*
X153910640Y-74499260D01*
X153991920Y-74552600D01*
X154090980Y-74621180D01*
X154187500Y-74687220D01*
X154271320Y-74745640D01*
X154332280Y-74783740D01*
X154360220Y-74801520D01*
X154378000Y-74791360D01*
X154426260Y-74753260D01*
X154502460Y-74679600D01*
X154611680Y-74567840D01*
X154629460Y-74550060D01*
X154713280Y-74463700D01*
X154781860Y-74390040D01*
X154827580Y-74336700D01*
X154845360Y-74313840D01*
D15*
X155640000Y-75440000D02*
X155680000Y-75390000D01*
X155610000Y-75460000D02*
X155640000Y-75440000D01*
X155550000Y-75480000D02*
X155610000Y-75460000D01*
X155350000Y-75480000D02*
X155550000Y-75480000D01*
X155260000Y-75260000D02*
X155220000Y-75310000D01*
X155290000Y-75240000D02*
X155260000Y-75260000D01*
X155350000Y-75220000D02*
X155290000Y-75240000D01*
X155550000Y-75220000D02*
X155350000Y-75220000D01*
X155620000Y-75240000D02*
X155550000Y-75220000D01*
X155650000Y-75260000D02*
X155620000Y-75240000D01*
X155680000Y-75310000D02*
X155650000Y-75260000D01*
X155680000Y-75390000D02*
X155680000Y-75310000D01*
X155280000Y-75450000D02*
X155350000Y-75480000D01*
X155250000Y-75430000D02*
X155280000Y-75450000D01*
X155220000Y-75390000D02*
X155250000Y-75430000D01*
X155220000Y-75310000D02*
X155220000Y-75390000D01*
X155920000Y-75000000D02*
X155220000Y-75000000D01*
X155680000Y-74950000D02*
X155650000Y-75000000D01*
X155680000Y-74850000D02*
X155680000Y-74950000D01*
X155650000Y-74810000D02*
X155680000Y-74850000D01*
X155620000Y-74790000D02*
X155650000Y-74810000D01*
X155560000Y-74770000D02*
X155620000Y-74790000D01*
X155340000Y-74770000D02*
X155560000Y-74770000D01*
X155280000Y-74790000D02*
X155340000Y-74770000D01*
X155250000Y-74820000D02*
X155280000Y-74790000D01*
X155220000Y-74860000D02*
X155250000Y-74820000D01*
X155220000Y-74960000D02*
X155220000Y-74860000D01*
X155250000Y-75000000D02*
X155220000Y-74960000D01*
X155680000Y-74410000D02*
X155650000Y-74360000D01*
X155680000Y-74510000D02*
X155680000Y-74410000D01*
X155650000Y-74550000D02*
X155680000Y-74510000D01*
X155580000Y-74570000D02*
X155650000Y-74550000D01*
X155310000Y-74570000D02*
X155580000Y-74570000D01*
X155250000Y-74540000D02*
X155310000Y-74570000D01*
X155220000Y-74500000D02*
X155250000Y-74540000D01*
X155220000Y-74400000D02*
X155220000Y-74500000D01*
X155260000Y-74360000D02*
X155220000Y-74400000D01*
X155330000Y-74340000D02*
X155260000Y-74360000D01*
X155450000Y-74340000D02*
X155330000Y-74340000D01*
X155220000Y-74120000D02*
X155680000Y-74120000D01*
X155310000Y-73910000D02*
X155680000Y-73910000D01*
X155250000Y-73930000D02*
X155310000Y-73910000D01*
X155220000Y-73970000D02*
X155250000Y-73930000D01*
X155220000Y-74060000D02*
X155220000Y-73970000D01*
X155250000Y-74100000D02*
X155220000Y-74060000D01*
X155280000Y-74120000D02*
X155250000Y-74100000D01*
X155450000Y-74340000D02*
X155450000Y-74570000D01*
X154980000Y-73290000D02*
X155680000Y-73290000D01*
X155310000Y-73080000D02*
X155680000Y-73080000D01*
X155250000Y-73100000D02*
X155310000Y-73080000D01*
X155220000Y-73140000D02*
X155250000Y-73100000D01*
X155220000Y-73220000D02*
X155220000Y-73140000D01*
X155250000Y-73270000D02*
X155220000Y-73220000D01*
X155290000Y-73290000D02*
X155250000Y-73270000D01*
X155310000Y-72620000D02*
X155680000Y-72620000D01*
X155250000Y-72650000D02*
X155310000Y-72620000D01*
X155220000Y-72690000D02*
X155250000Y-72650000D01*
X155220000Y-72790000D02*
X155220000Y-72690000D01*
X155250000Y-72840000D02*
X155220000Y-72790000D01*
X155410000Y-72780000D02*
X155440000Y-72830000D01*
X155410000Y-72660000D02*
X155410000Y-72780000D01*
X155380000Y-72620000D02*
X155410000Y-72660000D01*
X155680000Y-72670000D02*
X155640000Y-72620000D01*
X155680000Y-72790000D02*
X155680000Y-72670000D01*
X155640000Y-72840000D02*
X155680000Y-72790000D01*
X155580000Y-72860000D02*
X155640000Y-72840000D01*
X155510000Y-72860000D02*
X155580000Y-72860000D01*
X155440000Y-72830000D02*
X155510000Y-72860000D01*
X155220000Y-72380000D02*
X155680000Y-72380000D01*
X155220000Y-72290000D02*
X155220000Y-72240000D01*
X155250000Y-72340000D02*
X155220000Y-72290000D01*
X155270000Y-72360000D02*
X155250000Y-72340000D01*
X155340000Y-72380000D02*
X155270000Y-72360000D01*
X154980000Y-71860000D02*
X155680000Y-71860000D01*
X155210000Y-71920000D02*
X155250000Y-71860000D01*
X155210000Y-71990000D02*
X155210000Y-71920000D01*
X155250000Y-72050000D02*
X155210000Y-71990000D01*
X155280000Y-72070000D02*
X155250000Y-72050000D01*
X155350000Y-72100000D02*
X155280000Y-72070000D01*
X155550000Y-72100000D02*
X155350000Y-72100000D01*
X155620000Y-72070000D02*
X155550000Y-72100000D01*
X155650000Y-72050000D02*
X155620000Y-72070000D01*
X155680000Y-72010000D02*
X155650000Y-72050000D01*
X155680000Y-71900000D02*
X155680000Y-72010000D01*
X155650000Y-71860000D02*
X155680000Y-71900000D01*
X155680000Y-71380000D02*
X155220000Y-71280000D01*
X155340000Y-71480000D02*
X155680000Y-71380000D01*
X155680000Y-71570000D02*
X155340000Y-71480000D01*
X155220000Y-71670000D02*
X155680000Y-71570000D01*
X155440000Y-71090000D02*
X155510000Y-71120000D01*
X155510000Y-71120000D02*
X155580000Y-71120000D01*
X155580000Y-71120000D02*
X155640000Y-71100000D01*
X155640000Y-71100000D02*
X155680000Y-71050000D01*
X155680000Y-71050000D02*
X155680000Y-70930000D01*
X155680000Y-70930000D02*
X155640000Y-70880000D01*
X155380000Y-70880000D02*
X155410000Y-70920000D01*
X155410000Y-70920000D02*
X155410000Y-71040000D01*
X155410000Y-71040000D02*
X155440000Y-71090000D01*
X155250000Y-71100000D02*
X155220000Y-71050000D01*
X155220000Y-71050000D02*
X155220000Y-70950000D01*
X155220000Y-70950000D02*
X155250000Y-70910000D01*
X155250000Y-70910000D02*
X155310000Y-70880000D01*
X155310000Y-70880000D02*
X155680000Y-70880000D01*
X155450000Y-70130000D02*
X155450000Y-70360000D01*
X155450000Y-70130000D02*
X155330000Y-70130000D01*
X155330000Y-70130000D02*
X155260000Y-70150000D01*
X155260000Y-70150000D02*
X155220000Y-70190000D01*
X155220000Y-70190000D02*
X155220000Y-70290000D01*
X155220000Y-70290000D02*
X155250000Y-70330000D01*
X155250000Y-70330000D02*
X155310000Y-70360000D01*
X155310000Y-70360000D02*
X155580000Y-70360000D01*
X155580000Y-70360000D02*
X155650000Y-70340000D01*
X155650000Y-70340000D02*
X155680000Y-70300000D01*
X155680000Y-70300000D02*
X155680000Y-70200000D01*
X155680000Y-70200000D02*
X155650000Y-70150000D01*
X155340000Y-70640000D02*
X155270000Y-70620000D01*
X155270000Y-70620000D02*
X155250000Y-70600000D01*
X155250000Y-70600000D02*
X155220000Y-70550000D01*
X155220000Y-70550000D02*
X155220000Y-70500000D01*
X155220000Y-70640000D02*
X155680000Y-70640000D01*
D13*
X144242000Y-72096000D02*
X144242000Y-73646000D01*
X143042000Y-72096000D02*
X143042000Y-73646000D01*
X143642000Y-72746000D02*
X143892000Y-72246000D01*
X143392000Y-72246000D02*
X143642000Y-72746000D01*
X143892000Y-72246000D02*
X143392000Y-72246000D01*
X143892000Y-72746000D02*
X143392000Y-72746000D01*
X144242000Y-74890000D02*
X144242000Y-76440000D01*
X143042000Y-74890000D02*
X143042000Y-76440000D01*
X143392000Y-75040000D02*
X143892000Y-75040000D01*
X143642000Y-75540000D02*
X143392000Y-75040000D01*
X143892000Y-75040000D02*
X143642000Y-75540000D01*
X143892000Y-75540000D02*
X143392000Y-75540000D01*
X143075000Y-79000000D02*
X143075000Y-78000000D01*
X144425000Y-78000000D02*
X144425000Y-79000000D01*
X137150000Y-68750000D02*
X134250000Y-68750000D01*
X134250000Y-68750000D02*
X134250000Y-69250000D01*
X134250000Y-69250000D02*
X137150000Y-69250000D01*
X137150000Y-69250000D02*
X137150000Y-68750000D01*
X137500000Y-68700000D02*
G75*
G03X137500000Y-68700000I-100000J0D01*
G01*
X133000840Y-75250240D02*
X133049100Y-75250240D01*
X135799820Y-74549200D02*
X135799820Y-75250240D01*
X135799820Y-75250240D02*
X135550900Y-75250240D01*
X133000840Y-75250240D02*
X132800180Y-75250240D01*
X132800180Y-75250240D02*
X132800180Y-74549200D01*
X133600000Y-71425000D02*
X134600000Y-71425000D01*
X134600000Y-72775000D02*
X133600000Y-72775000D01*
X133800000Y-69050000D02*
X133800000Y-69750000D01*
X132600000Y-69750000D02*
X132600000Y-69050000D01*
X136225000Y-73100000D02*
X136225000Y-72100000D01*
X137575000Y-72100000D02*
X137575000Y-73100000D01*
X99000000Y-69875000D02*
X98000000Y-69875000D01*
X98000000Y-68525000D02*
X99000000Y-68525000D01*
X103175000Y-70000000D02*
X103175000Y-71000000D01*
X101825000Y-71000000D02*
X101825000Y-70000000D01*
X101825000Y-73700000D02*
X101825000Y-72700000D01*
X103175000Y-72700000D02*
X103175000Y-73700000D01*
X98900000Y-70700000D02*
X98200000Y-70300000D01*
X98200000Y-70300000D02*
X98200000Y-71100000D01*
X98200000Y-71100000D02*
X98900000Y-70700000D01*
X98800000Y-71100000D02*
X98800000Y-70300000D01*
X95500000Y-66950000D02*
X95500000Y-66250000D01*
X96700000Y-66250000D02*
X96700000Y-66950000D01*
X103175000Y-75400000D02*
X103175000Y-76400000D01*
X101825000Y-76400000D02*
X101825000Y-75400000D01*
X106299160Y-69949760D02*
X106250900Y-69949760D01*
X103500180Y-70650800D02*
X103500180Y-69949760D01*
X103500180Y-69949760D02*
X103749100Y-69949760D01*
X106299160Y-69949760D02*
X106499820Y-69949760D01*
X106499820Y-69949760D02*
X106499820Y-70650800D01*
X106299160Y-73249760D02*
X106250900Y-73249760D01*
X103500180Y-73950800D02*
X103500180Y-73249760D01*
X103500180Y-73249760D02*
X103749100Y-73249760D01*
X106299160Y-73249760D02*
X106499820Y-73249760D01*
X106499820Y-73249760D02*
X106499820Y-73950800D01*
X105200000Y-77075000D02*
X104200000Y-77075000D01*
X104200000Y-75725000D02*
X105200000Y-75725000D01*
X107900000Y-77075000D02*
X106900000Y-77075000D01*
X106900000Y-75725000D02*
X107900000Y-75725000D01*
X106499820Y-87949760D02*
X106499820Y-88650800D01*
X106299160Y-87949760D02*
X106499820Y-87949760D01*
X103500180Y-87949760D02*
X103749100Y-87949760D01*
X103500180Y-88650800D02*
X103500180Y-87949760D01*
X106299160Y-87949760D02*
X106250900Y-87949760D01*
X106900000Y-93725000D02*
X107900000Y-93725000D01*
X107900000Y-95075000D02*
X106900000Y-95075000D01*
X106499820Y-91249760D02*
X106499820Y-91950800D01*
X106299160Y-91249760D02*
X106499820Y-91249760D01*
X103500180Y-91249760D02*
X103749100Y-91249760D01*
X103500180Y-91950800D02*
X103500180Y-91249760D01*
X106299160Y-91249760D02*
X106250900Y-91249760D01*
X132800180Y-93250240D02*
X132800180Y-92549200D01*
X133000840Y-93250240D02*
X132800180Y-93250240D01*
X135799820Y-93250240D02*
X135550900Y-93250240D01*
X135799820Y-92549200D02*
X135799820Y-93250240D01*
X133000840Y-93250240D02*
X133049100Y-93250240D01*
X98800000Y-89100000D02*
X98800000Y-88300000D01*
X98200000Y-89100000D02*
X98900000Y-88700000D01*
X98200000Y-88300000D02*
X98200000Y-89100000D01*
X98900000Y-88700000D02*
X98200000Y-88300000D01*
X143892000Y-90746000D02*
X143392000Y-90746000D01*
X143892000Y-90246000D02*
X143392000Y-90246000D01*
X143392000Y-90246000D02*
X143642000Y-90746000D01*
X143642000Y-90746000D02*
X143892000Y-90246000D01*
X143042000Y-90096000D02*
X143042000Y-91646000D01*
X144242000Y-90096000D02*
X144242000Y-91646000D01*
X143892000Y-93540000D02*
X143392000Y-93540000D01*
X143892000Y-93040000D02*
X143642000Y-93540000D01*
X143642000Y-93540000D02*
X143392000Y-93040000D01*
X143392000Y-93040000D02*
X143892000Y-93040000D01*
X143042000Y-92890000D02*
X143042000Y-94440000D01*
X144242000Y-92890000D02*
X144242000Y-94440000D01*
X138550000Y-85800000D02*
X139250000Y-85800000D01*
X139250000Y-87000000D02*
X138550000Y-87000000D01*
X142718000Y-92940000D02*
X142718000Y-93640000D01*
X141518000Y-93640000D02*
X141518000Y-92940000D01*
X141518000Y-90846000D02*
X141518000Y-90146000D01*
X142718000Y-90146000D02*
X142718000Y-90846000D01*
X137575000Y-90100000D02*
X137575000Y-91100000D01*
X136225000Y-91100000D02*
X136225000Y-90100000D01*
X144425000Y-96000000D02*
X144425000Y-97000000D01*
X143075000Y-97000000D02*
X143075000Y-96000000D01*
X137887000Y-93790000D02*
X137887000Y-92790000D01*
X139237000Y-92790000D02*
X139237000Y-93790000D01*
X139237000Y-89996000D02*
X139237000Y-90996000D01*
X137887000Y-90996000D02*
X137887000Y-89996000D01*
X141015000Y-92790000D02*
X141015000Y-93790000D01*
X139665000Y-93790000D02*
X139665000Y-92790000D01*
X139665000Y-90996000D02*
X139665000Y-89996000D01*
X141015000Y-89996000D02*
X141015000Y-90996000D01*
X98000000Y-86525000D02*
X99000000Y-86525000D01*
X99000000Y-87875000D02*
X98000000Y-87875000D01*
X139200000Y-88675000D02*
X138200000Y-88675000D01*
X138200000Y-87325000D02*
X139200000Y-87325000D01*
D15*
X155220000Y-88640000D02*
X155680000Y-88640000D01*
X155220000Y-88550000D02*
X155220000Y-88500000D01*
X155250000Y-88600000D02*
X155220000Y-88550000D01*
X155270000Y-88620000D02*
X155250000Y-88600000D01*
X155340000Y-88640000D02*
X155270000Y-88620000D01*
X155680000Y-88200000D02*
X155650000Y-88150000D01*
X155680000Y-88300000D02*
X155680000Y-88200000D01*
X155650000Y-88340000D02*
X155680000Y-88300000D01*
X155580000Y-88360000D02*
X155650000Y-88340000D01*
X155310000Y-88360000D02*
X155580000Y-88360000D01*
X155250000Y-88330000D02*
X155310000Y-88360000D01*
X155220000Y-88290000D02*
X155250000Y-88330000D01*
X155220000Y-88190000D02*
X155220000Y-88290000D01*
X155260000Y-88150000D02*
X155220000Y-88190000D01*
X155330000Y-88130000D02*
X155260000Y-88150000D01*
X155450000Y-88130000D02*
X155330000Y-88130000D01*
X155450000Y-88130000D02*
X155450000Y-88360000D01*
X155310000Y-88880000D02*
X155680000Y-88880000D01*
X155250000Y-88910000D02*
X155310000Y-88880000D01*
X155220000Y-88950000D02*
X155250000Y-88910000D01*
X155220000Y-89050000D02*
X155220000Y-88950000D01*
X155250000Y-89100000D02*
X155220000Y-89050000D01*
X155410000Y-89040000D02*
X155440000Y-89090000D01*
X155410000Y-88920000D02*
X155410000Y-89040000D01*
X155380000Y-88880000D02*
X155410000Y-88920000D01*
X155680000Y-88930000D02*
X155640000Y-88880000D01*
X155680000Y-89050000D02*
X155680000Y-88930000D01*
X155640000Y-89100000D02*
X155680000Y-89050000D01*
X155580000Y-89120000D02*
X155640000Y-89100000D01*
X155510000Y-89120000D02*
X155580000Y-89120000D01*
X155440000Y-89090000D02*
X155510000Y-89120000D01*
X155220000Y-89670000D02*
X155680000Y-89570000D01*
X155680000Y-89570000D02*
X155340000Y-89480000D01*
X155340000Y-89480000D02*
X155680000Y-89380000D01*
X155680000Y-89380000D02*
X155220000Y-89280000D01*
X155650000Y-89860000D02*
X155680000Y-89900000D01*
X155680000Y-89900000D02*
X155680000Y-90010000D01*
X155680000Y-90010000D02*
X155650000Y-90050000D01*
X155650000Y-90050000D02*
X155620000Y-90070000D01*
X155620000Y-90070000D02*
X155550000Y-90100000D01*
X155550000Y-90100000D02*
X155350000Y-90100000D01*
X155350000Y-90100000D02*
X155280000Y-90070000D01*
X155280000Y-90070000D02*
X155250000Y-90050000D01*
X155250000Y-90050000D02*
X155210000Y-89990000D01*
X155210000Y-89990000D02*
X155210000Y-89920000D01*
X155210000Y-89920000D02*
X155250000Y-89860000D01*
X154980000Y-89860000D02*
X155680000Y-89860000D01*
X155340000Y-90380000D02*
X155270000Y-90360000D01*
X155270000Y-90360000D02*
X155250000Y-90340000D01*
X155250000Y-90340000D02*
X155220000Y-90290000D01*
X155220000Y-90290000D02*
X155220000Y-90240000D01*
X155220000Y-90380000D02*
X155680000Y-90380000D01*
X155440000Y-90830000D02*
X155510000Y-90860000D01*
X155510000Y-90860000D02*
X155580000Y-90860000D01*
X155580000Y-90860000D02*
X155640000Y-90840000D01*
X155640000Y-90840000D02*
X155680000Y-90790000D01*
X155680000Y-90790000D02*
X155680000Y-90670000D01*
X155680000Y-90670000D02*
X155640000Y-90620000D01*
X155380000Y-90620000D02*
X155410000Y-90660000D01*
X155410000Y-90660000D02*
X155410000Y-90780000D01*
X155410000Y-90780000D02*
X155440000Y-90830000D01*
X155250000Y-90840000D02*
X155220000Y-90790000D01*
X155220000Y-90790000D02*
X155220000Y-90690000D01*
X155220000Y-90690000D02*
X155250000Y-90650000D01*
X155250000Y-90650000D02*
X155310000Y-90620000D01*
X155310000Y-90620000D02*
X155680000Y-90620000D01*
X155290000Y-91290000D02*
X155250000Y-91270000D01*
X155250000Y-91270000D02*
X155220000Y-91220000D01*
X155220000Y-91220000D02*
X155220000Y-91140000D01*
X155220000Y-91140000D02*
X155250000Y-91100000D01*
X155250000Y-91100000D02*
X155310000Y-91080000D01*
X155310000Y-91080000D02*
X155680000Y-91080000D01*
X154980000Y-91290000D02*
X155680000Y-91290000D01*
X155450000Y-92340000D02*
X155450000Y-92570000D01*
X155280000Y-92120000D02*
X155250000Y-92100000D01*
X155250000Y-92100000D02*
X155220000Y-92060000D01*
X155220000Y-92060000D02*
X155220000Y-91970000D01*
X155220000Y-91970000D02*
X155250000Y-91930000D01*
X155250000Y-91930000D02*
X155310000Y-91910000D01*
X155310000Y-91910000D02*
X155680000Y-91910000D01*
X155220000Y-92120000D02*
X155680000Y-92120000D01*
X155450000Y-92340000D02*
X155330000Y-92340000D01*
X155330000Y-92340000D02*
X155260000Y-92360000D01*
X155260000Y-92360000D02*
X155220000Y-92400000D01*
X155220000Y-92400000D02*
X155220000Y-92500000D01*
X155220000Y-92500000D02*
X155250000Y-92540000D01*
X155250000Y-92540000D02*
X155310000Y-92570000D01*
X155310000Y-92570000D02*
X155580000Y-92570000D01*
X155580000Y-92570000D02*
X155650000Y-92550000D01*
X155650000Y-92550000D02*
X155680000Y-92510000D01*
X155680000Y-92510000D02*
X155680000Y-92410000D01*
X155680000Y-92410000D02*
X155650000Y-92360000D01*
X155250000Y-93000000D02*
X155220000Y-92960000D01*
X155220000Y-92960000D02*
X155220000Y-92860000D01*
X155220000Y-92860000D02*
X155250000Y-92820000D01*
X155250000Y-92820000D02*
X155280000Y-92790000D01*
X155280000Y-92790000D02*
X155340000Y-92770000D01*
X155340000Y-92770000D02*
X155560000Y-92770000D01*
X155560000Y-92770000D02*
X155620000Y-92790000D01*
X155620000Y-92790000D02*
X155650000Y-92810000D01*
X155650000Y-92810000D02*
X155680000Y-92850000D01*
X155680000Y-92850000D02*
X155680000Y-92950000D01*
X155680000Y-92950000D02*
X155650000Y-93000000D01*
X155920000Y-93000000D02*
X155220000Y-93000000D01*
X155220000Y-93310000D02*
X155220000Y-93390000D01*
X155220000Y-93390000D02*
X155250000Y-93430000D01*
X155250000Y-93430000D02*
X155280000Y-93450000D01*
X155280000Y-93450000D02*
X155350000Y-93480000D01*
X155680000Y-93390000D02*
X155680000Y-93310000D01*
X155680000Y-93310000D02*
X155650000Y-93260000D01*
X155650000Y-93260000D02*
X155620000Y-93240000D01*
X155620000Y-93240000D02*
X155550000Y-93220000D01*
X155550000Y-93220000D02*
X155350000Y-93220000D01*
X155350000Y-93220000D02*
X155290000Y-93240000D01*
X155290000Y-93240000D02*
X155260000Y-93260000D01*
X155260000Y-93260000D02*
X155220000Y-93310000D01*
X155350000Y-93480000D02*
X155550000Y-93480000D01*
X155550000Y-93480000D02*
X155610000Y-93460000D01*
X155610000Y-93460000D02*
X155640000Y-93440000D01*
X155640000Y-93440000D02*
X155680000Y-93390000D01*
D14*
G36*
X154845360Y-92313840D02*
X154830120Y-92288440D01*
X154794560Y-92230020D01*
X154738680Y-92146200D01*
X154672640Y-92047140D01*
X154606600Y-91948080D01*
X154553260Y-91866800D01*
X154515160Y-91810920D01*
X154502460Y-91785520D01*
X154507540Y-91772820D01*
X154530400Y-91727100D01*
X154565960Y-91658520D01*
X154586280Y-91617880D01*
X154611680Y-91556920D01*
X154619300Y-91523900D01*
X154609140Y-91518820D01*
X154560880Y-91495960D01*
X154479600Y-91460400D01*
X154370380Y-91414680D01*
X154243380Y-91358800D01*
X154108760Y-91302920D01*
X153969060Y-91244500D01*
X153834440Y-91188620D01*
X153715060Y-91140360D01*
X153618540Y-91099720D01*
X153549960Y-91074320D01*
X153522020Y-91064160D01*
X153514400Y-91066700D01*
X153483920Y-91099720D01*
X153443280Y-91153060D01*
X153346760Y-91272440D01*
X153201980Y-91389280D01*
X153036880Y-91460400D01*
X152851460Y-91483260D01*
X152681280Y-91462940D01*
X152518720Y-91396900D01*
X152371400Y-91282600D01*
X152262180Y-91142900D01*
X152193600Y-90980340D01*
X152170740Y-90800000D01*
X152191060Y-90627280D01*
X152257100Y-90459640D01*
X152368860Y-90312320D01*
X152439980Y-90248820D01*
X152589840Y-90162460D01*
X152747320Y-90114200D01*
X152787960Y-90109120D01*
X152963220Y-90116740D01*
X153133400Y-90167540D01*
X153283260Y-90261520D01*
X153407720Y-90391060D01*
X153417880Y-90406300D01*
X153463600Y-90464720D01*
X153494080Y-90505360D01*
X153519480Y-90535840D01*
X154057960Y-90312320D01*
X154141780Y-90276760D01*
X154289100Y-90215800D01*
X154416100Y-90162460D01*
X154517700Y-90119280D01*
X154583740Y-90088800D01*
X154611680Y-90076100D01*
X154614220Y-90076100D01*
X154616760Y-90055780D01*
X154601520Y-90015140D01*
X154565960Y-89938940D01*
X154540560Y-89890680D01*
X154512620Y-89832260D01*
X154502460Y-89806860D01*
X154515160Y-89784000D01*
X154550720Y-89730660D01*
X154604060Y-89649380D01*
X154667560Y-89552860D01*
X154731060Y-89461420D01*
X154786940Y-89377600D01*
X154825040Y-89316640D01*
X154842820Y-89286160D01*
X154842820Y-89281080D01*
X154827580Y-89255680D01*
X154786940Y-89207420D01*
X154718360Y-89133760D01*
X154614220Y-89029620D01*
X154598980Y-89014380D01*
X154512620Y-88928020D01*
X154438960Y-88859440D01*
X154388160Y-88813720D01*
X154365300Y-88795940D01*
X154365300Y-88795940D01*
X154334820Y-88811180D01*
X154273860Y-88849280D01*
X154187500Y-88905160D01*
X154088440Y-88973740D01*
X153829360Y-89151540D01*
X153585520Y-89055020D01*
X153509320Y-89024540D01*
X153420420Y-88986440D01*
X153354380Y-88958500D01*
X153326440Y-88943260D01*
X153316280Y-88917860D01*
X153301040Y-88849280D01*
X153280720Y-88752760D01*
X153260400Y-88638460D01*
X153240080Y-88526700D01*
X153219760Y-88427640D01*
X153207060Y-88356520D01*
X153199440Y-88323500D01*
X153194360Y-88315880D01*
X153179120Y-88308260D01*
X153146100Y-88305720D01*
X153085140Y-88303180D01*
X152991160Y-88300640D01*
X152851460Y-88300640D01*
X152836220Y-88300640D01*
X152706680Y-88303180D01*
X152600000Y-88305720D01*
X152533960Y-88308260D01*
X152506020Y-88313340D01*
X152506020Y-88313340D01*
X152498400Y-88343820D01*
X152483160Y-88414940D01*
X152465380Y-88514000D01*
X152442520Y-88633380D01*
X152439980Y-88641000D01*
X152417120Y-88757840D01*
X152396800Y-88856900D01*
X152381560Y-88928020D01*
X152371400Y-88955960D01*
X152363780Y-88963580D01*
X152318060Y-88986440D01*
X152244400Y-89019460D01*
X152155500Y-89060100D01*
X152061520Y-89098200D01*
X151977700Y-89131220D01*
X151916740Y-89154080D01*
X151888800Y-89161700D01*
X151886260Y-89159160D01*
X151858320Y-89141380D01*
X151797360Y-89100740D01*
X151713540Y-89044860D01*
X151611940Y-88976280D01*
X151604320Y-88971200D01*
X151505260Y-88902620D01*
X151418900Y-88846740D01*
X151360480Y-88811180D01*
X151332540Y-88795940D01*
X151330000Y-88795940D01*
X151299520Y-88818800D01*
X151243640Y-88869600D01*
X151167440Y-88943260D01*
X151078540Y-89029620D01*
X151053140Y-89057560D01*
X150956620Y-89156620D01*
X150895660Y-89222660D01*
X150862640Y-89265840D01*
X150855020Y-89286160D01*
X150855020Y-89286160D01*
X150872800Y-89316640D01*
X150913440Y-89380140D01*
X150971860Y-89463960D01*
X151040440Y-89565560D01*
X151045520Y-89573180D01*
X151114100Y-89672240D01*
X151169980Y-89756060D01*
X151210620Y-89814480D01*
X151225860Y-89842420D01*
X151225860Y-89844960D01*
X151213160Y-89885600D01*
X151187760Y-89956720D01*
X151154740Y-90045620D01*
X151116640Y-90137060D01*
X151081080Y-90220880D01*
X151053140Y-90284380D01*
X151035360Y-90314860D01*
X151035360Y-90314860D01*
X150999800Y-90325020D01*
X150923600Y-90342800D01*
X150822000Y-90363120D01*
X150700080Y-90388520D01*
X150679760Y-90391060D01*
X150560380Y-90413920D01*
X150461320Y-90431700D01*
X150392740Y-90446940D01*
X150364800Y-90454560D01*
X150362260Y-90469800D01*
X150357180Y-90528220D01*
X150354640Y-90617120D01*
X150354640Y-90726340D01*
X150354640Y-90838100D01*
X150357180Y-90947320D01*
X150359720Y-91041300D01*
X150364800Y-91109880D01*
X150369880Y-91137820D01*
X150372420Y-91137820D01*
X150410520Y-91147980D01*
X150484180Y-91165760D01*
X150588320Y-91186080D01*
X150710240Y-91208940D01*
X150733100Y-91214020D01*
X150849940Y-91236880D01*
X150949000Y-91257200D01*
X151015040Y-91269900D01*
X151042980Y-91277520D01*
X151048060Y-91290220D01*
X151068380Y-91338480D01*
X151101400Y-91417220D01*
X151142040Y-91516280D01*
X151233480Y-91744880D01*
X151042980Y-92026820D01*
X151025200Y-92052220D01*
X150956620Y-92153820D01*
X150900740Y-92235100D01*
X150862640Y-92293520D01*
X150849940Y-92316380D01*
X150849940Y-92318920D01*
X150875340Y-92346860D01*
X150928680Y-92402740D01*
X151002340Y-92478940D01*
X151088700Y-92567840D01*
X151154740Y-92631340D01*
X151233480Y-92710080D01*
X151286820Y-92758340D01*
X151319840Y-92786280D01*
X151340160Y-92793900D01*
X151355400Y-92791360D01*
X151383340Y-92773580D01*
X151444300Y-92732940D01*
X151530660Y-92674520D01*
X151629720Y-92605940D01*
X151713540Y-92550060D01*
X151807520Y-92489100D01*
X151873560Y-92451000D01*
X151906580Y-92435760D01*
X151919280Y-92440840D01*
X151975160Y-92458620D01*
X152058980Y-92494180D01*
X152158040Y-92534820D01*
X152379020Y-92633880D01*
X152406960Y-92778660D01*
X152424740Y-92867560D01*
X152447600Y-92989480D01*
X152470460Y-93108860D01*
X152506020Y-93291740D01*
X153181660Y-93299360D01*
X153194360Y-93271420D01*
X153201980Y-93243480D01*
X153217220Y-93174900D01*
X153237540Y-93078380D01*
X153257860Y-92961540D01*
X153275640Y-92865020D01*
X153295960Y-92765960D01*
X153308660Y-92694840D01*
X153316280Y-92664360D01*
X153326440Y-92654200D01*
X153374700Y-92631340D01*
X153450900Y-92595780D01*
X153542340Y-92555140D01*
X153636320Y-92517040D01*
X153725220Y-92481480D01*
X153791260Y-92458620D01*
X153824280Y-92448460D01*
X153852220Y-92461160D01*
X153910640Y-92499260D01*
X153991920Y-92552600D01*
X154090980Y-92621180D01*
X154187500Y-92687220D01*
X154271320Y-92745640D01*
X154332280Y-92783740D01*
X154360220Y-92801520D01*
X154378000Y-92791360D01*
X154426260Y-92753260D01*
X154502460Y-92679600D01*
X154611680Y-92567840D01*
X154629460Y-92550060D01*
X154713280Y-92463700D01*
X154781860Y-92390040D01*
X154827580Y-92336700D01*
X154845360Y-92313840D01*
X154845360Y-92313840D01*
G37*
X154845360Y-92313840D02*
X154830120Y-92288440D01*
X154794560Y-92230020D01*
X154738680Y-92146200D01*
X154672640Y-92047140D01*
X154606600Y-91948080D01*
X154553260Y-91866800D01*
X154515160Y-91810920D01*
X154502460Y-91785520D01*
X154507540Y-91772820D01*
X154530400Y-91727100D01*
X154565960Y-91658520D01*
X154586280Y-91617880D01*
X154611680Y-91556920D01*
X154619300Y-91523900D01*
X154609140Y-91518820D01*
X154560880Y-91495960D01*
X154479600Y-91460400D01*
X154370380Y-91414680D01*
X154243380Y-91358800D01*
X154108760Y-91302920D01*
X153969060Y-91244500D01*
X153834440Y-91188620D01*
X153715060Y-91140360D01*
X153618540Y-91099720D01*
X153549960Y-91074320D01*
X153522020Y-91064160D01*
X153514400Y-91066700D01*
X153483920Y-91099720D01*
X153443280Y-91153060D01*
X153346760Y-91272440D01*
X153201980Y-91389280D01*
X153036880Y-91460400D01*
X152851460Y-91483260D01*
X152681280Y-91462940D01*
X152518720Y-91396900D01*
X152371400Y-91282600D01*
X152262180Y-91142900D01*
X152193600Y-90980340D01*
X152170740Y-90800000D01*
X152191060Y-90627280D01*
X152257100Y-90459640D01*
X152368860Y-90312320D01*
X152439980Y-90248820D01*
X152589840Y-90162460D01*
X152747320Y-90114200D01*
X152787960Y-90109120D01*
X152963220Y-90116740D01*
X153133400Y-90167540D01*
X153283260Y-90261520D01*
X153407720Y-90391060D01*
X153417880Y-90406300D01*
X153463600Y-90464720D01*
X153494080Y-90505360D01*
X153519480Y-90535840D01*
X154057960Y-90312320D01*
X154141780Y-90276760D01*
X154289100Y-90215800D01*
X154416100Y-90162460D01*
X154517700Y-90119280D01*
X154583740Y-90088800D01*
X154611680Y-90076100D01*
X154614220Y-90076100D01*
X154616760Y-90055780D01*
X154601520Y-90015140D01*
X154565960Y-89938940D01*
X154540560Y-89890680D01*
X154512620Y-89832260D01*
X154502460Y-89806860D01*
X154515160Y-89784000D01*
X154550720Y-89730660D01*
X154604060Y-89649380D01*
X154667560Y-89552860D01*
X154731060Y-89461420D01*
X154786940Y-89377600D01*
X154825040Y-89316640D01*
X154842820Y-89286160D01*
X154842820Y-89281080D01*
X154827580Y-89255680D01*
X154786940Y-89207420D01*
X154718360Y-89133760D01*
X154614220Y-89029620D01*
X154598980Y-89014380D01*
X154512620Y-88928020D01*
X154438960Y-88859440D01*
X154388160Y-88813720D01*
X154365300Y-88795940D01*
X154365300Y-88795940D01*
X154334820Y-88811180D01*
X154273860Y-88849280D01*
X154187500Y-88905160D01*
X154088440Y-88973740D01*
X153829360Y-89151540D01*
X153585520Y-89055020D01*
X153509320Y-89024540D01*
X153420420Y-88986440D01*
X153354380Y-88958500D01*
X153326440Y-88943260D01*
X153316280Y-88917860D01*
X153301040Y-88849280D01*
X153280720Y-88752760D01*
X153260400Y-88638460D01*
X153240080Y-88526700D01*
X153219760Y-88427640D01*
X153207060Y-88356520D01*
X153199440Y-88323500D01*
X153194360Y-88315880D01*
X153179120Y-88308260D01*
X153146100Y-88305720D01*
X153085140Y-88303180D01*
X152991160Y-88300640D01*
X152851460Y-88300640D01*
X152836220Y-88300640D01*
X152706680Y-88303180D01*
X152600000Y-88305720D01*
X152533960Y-88308260D01*
X152506020Y-88313340D01*
X152506020Y-88313340D01*
X152498400Y-88343820D01*
X152483160Y-88414940D01*
X152465380Y-88514000D01*
X152442520Y-88633380D01*
X152439980Y-88641000D01*
X152417120Y-88757840D01*
X152396800Y-88856900D01*
X152381560Y-88928020D01*
X152371400Y-88955960D01*
X152363780Y-88963580D01*
X152318060Y-88986440D01*
X152244400Y-89019460D01*
X152155500Y-89060100D01*
X152061520Y-89098200D01*
X151977700Y-89131220D01*
X151916740Y-89154080D01*
X151888800Y-89161700D01*
X151886260Y-89159160D01*
X151858320Y-89141380D01*
X151797360Y-89100740D01*
X151713540Y-89044860D01*
X151611940Y-88976280D01*
X151604320Y-88971200D01*
X151505260Y-88902620D01*
X151418900Y-88846740D01*
X151360480Y-88811180D01*
X151332540Y-88795940D01*
X151330000Y-88795940D01*
X151299520Y-88818800D01*
X151243640Y-88869600D01*
X151167440Y-88943260D01*
X151078540Y-89029620D01*
X151053140Y-89057560D01*
X150956620Y-89156620D01*
X150895660Y-89222660D01*
X150862640Y-89265840D01*
X150855020Y-89286160D01*
X150855020Y-89286160D01*
X150872800Y-89316640D01*
X150913440Y-89380140D01*
X150971860Y-89463960D01*
X151040440Y-89565560D01*
X151045520Y-89573180D01*
X151114100Y-89672240D01*
X151169980Y-89756060D01*
X151210620Y-89814480D01*
X151225860Y-89842420D01*
X151225860Y-89844960D01*
X151213160Y-89885600D01*
X151187760Y-89956720D01*
X151154740Y-90045620D01*
X151116640Y-90137060D01*
X151081080Y-90220880D01*
X151053140Y-90284380D01*
X151035360Y-90314860D01*
X151035360Y-90314860D01*
X150999800Y-90325020D01*
X150923600Y-90342800D01*
X150822000Y-90363120D01*
X150700080Y-90388520D01*
X150679760Y-90391060D01*
X150560380Y-90413920D01*
X150461320Y-90431700D01*
X150392740Y-90446940D01*
X150364800Y-90454560D01*
X150362260Y-90469800D01*
X150357180Y-90528220D01*
X150354640Y-90617120D01*
X150354640Y-90726340D01*
X150354640Y-90838100D01*
X150357180Y-90947320D01*
X150359720Y-91041300D01*
X150364800Y-91109880D01*
X150369880Y-91137820D01*
X150372420Y-91137820D01*
X150410520Y-91147980D01*
X150484180Y-91165760D01*
X150588320Y-91186080D01*
X150710240Y-91208940D01*
X150733100Y-91214020D01*
X150849940Y-91236880D01*
X150949000Y-91257200D01*
X151015040Y-91269900D01*
X151042980Y-91277520D01*
X151048060Y-91290220D01*
X151068380Y-91338480D01*
X151101400Y-91417220D01*
X151142040Y-91516280D01*
X151233480Y-91744880D01*
X151042980Y-92026820D01*
X151025200Y-92052220D01*
X150956620Y-92153820D01*
X150900740Y-92235100D01*
X150862640Y-92293520D01*
X150849940Y-92316380D01*
X150849940Y-92318920D01*
X150875340Y-92346860D01*
X150928680Y-92402740D01*
X151002340Y-92478940D01*
X151088700Y-92567840D01*
X151154740Y-92631340D01*
X151233480Y-92710080D01*
X151286820Y-92758340D01*
X151319840Y-92786280D01*
X151340160Y-92793900D01*
X151355400Y-92791360D01*
X151383340Y-92773580D01*
X151444300Y-92732940D01*
X151530660Y-92674520D01*
X151629720Y-92605940D01*
X151713540Y-92550060D01*
X151807520Y-92489100D01*
X151873560Y-92451000D01*
X151906580Y-92435760D01*
X151919280Y-92440840D01*
X151975160Y-92458620D01*
X152058980Y-92494180D01*
X152158040Y-92534820D01*
X152379020Y-92633880D01*
X152406960Y-92778660D01*
X152424740Y-92867560D01*
X152447600Y-92989480D01*
X152470460Y-93108860D01*
X152506020Y-93291740D01*
X153181660Y-93299360D01*
X153194360Y-93271420D01*
X153201980Y-93243480D01*
X153217220Y-93174900D01*
X153237540Y-93078380D01*
X153257860Y-92961540D01*
X153275640Y-92865020D01*
X153295960Y-92765960D01*
X153308660Y-92694840D01*
X153316280Y-92664360D01*
X153326440Y-92654200D01*
X153374700Y-92631340D01*
X153450900Y-92595780D01*
X153542340Y-92555140D01*
X153636320Y-92517040D01*
X153725220Y-92481480D01*
X153791260Y-92458620D01*
X153824280Y-92448460D01*
X153852220Y-92461160D01*
X153910640Y-92499260D01*
X153991920Y-92552600D01*
X154090980Y-92621180D01*
X154187500Y-92687220D01*
X154271320Y-92745640D01*
X154332280Y-92783740D01*
X154360220Y-92801520D01*
X154378000Y-92791360D01*
X154426260Y-92753260D01*
X154502460Y-92679600D01*
X154611680Y-92567840D01*
X154629460Y-92550060D01*
X154713280Y-92463700D01*
X154781860Y-92390040D01*
X154827580Y-92336700D01*
X154845360Y-92313840D01*
D13*
X96700000Y-84250000D02*
X96700000Y-84950000D01*
X95500000Y-84950000D02*
X95500000Y-84250000D01*
X132600000Y-87750000D02*
X132600000Y-87050000D01*
X133800000Y-87050000D02*
X133800000Y-87750000D01*
X134600000Y-90775000D02*
X133600000Y-90775000D01*
X133600000Y-89425000D02*
X134600000Y-89425000D01*
X104200000Y-93725000D02*
X105200000Y-93725000D01*
X105200000Y-95075000D02*
X104200000Y-95075000D01*
X137500000Y-86700000D02*
G75*
G03X137500000Y-86700000I-100000J0D01*
G01*
X137150000Y-87250000D02*
X137150000Y-86750000D01*
X134250000Y-87250000D02*
X137150000Y-87250000D01*
X134250000Y-86750000D02*
X134250000Y-87250000D01*
X137150000Y-86750000D02*
X134250000Y-86750000D01*
X101825000Y-89000000D02*
X101825000Y-88000000D01*
X103175000Y-88000000D02*
X103175000Y-89000000D01*
X103175000Y-90700000D02*
X103175000Y-91700000D01*
X101825000Y-91700000D02*
X101825000Y-90700000D01*
X101825000Y-94400000D02*
X101825000Y-93400000D01*
X103175000Y-93400000D02*
X103175000Y-94400000D01*
D16*
X138816666Y-77616666D02*
X138483333Y-77850000D01*
X138816666Y-78016666D02*
X138116666Y-78016666D01*
X138116666Y-77750000D01*
X138150000Y-77683333D01*
X138183333Y-77650000D01*
X138250000Y-77616666D01*
X138350000Y-77616666D01*
X138416666Y-77650000D01*
X138450000Y-77683333D01*
X138483333Y-77750000D01*
X138483333Y-78016666D01*
X138116666Y-76983333D02*
X138116666Y-77316666D01*
X138450000Y-77350000D01*
X138416666Y-77316666D01*
X138383333Y-77250000D01*
X138383333Y-77083333D01*
X138416666Y-77016666D01*
X138450000Y-76983333D01*
X138516666Y-76950000D01*
X138683333Y-76950000D01*
X138750000Y-76983333D01*
X138783333Y-77016666D01*
X138816666Y-77083333D01*
X138816666Y-77250000D01*
X138783333Y-77316666D01*
X138750000Y-77350000D01*
X140816666Y-77866666D02*
X140483333Y-78100000D01*
X140816666Y-78266666D02*
X140116666Y-78266666D01*
X140116666Y-78000000D01*
X140150000Y-77933333D01*
X140183333Y-77900000D01*
X140250000Y-77866666D01*
X140350000Y-77866666D01*
X140416666Y-77900000D01*
X140450000Y-77933333D01*
X140483333Y-78000000D01*
X140483333Y-78266666D01*
X140116666Y-77633333D02*
X140116666Y-77166666D01*
X140816666Y-77466666D01*
X141316666Y-69866666D02*
X140983333Y-70100000D01*
X141316666Y-70266666D02*
X140616666Y-70266666D01*
X140616666Y-70000000D01*
X140650000Y-69933333D01*
X140683333Y-69900000D01*
X140750000Y-69866666D01*
X140850000Y-69866666D01*
X140916666Y-69900000D01*
X140950000Y-69933333D01*
X140983333Y-70000000D01*
X140983333Y-70266666D01*
X140916666Y-69466666D02*
X140883333Y-69533333D01*
X140850000Y-69566666D01*
X140783333Y-69600000D01*
X140750000Y-69600000D01*
X140683333Y-69566666D01*
X140650000Y-69533333D01*
X140616666Y-69466666D01*
X140616666Y-69333333D01*
X140650000Y-69266666D01*
X140683333Y-69233333D01*
X140750000Y-69200000D01*
X140783333Y-69200000D01*
X140850000Y-69233333D01*
X140883333Y-69266666D01*
X140916666Y-69333333D01*
X140916666Y-69466666D01*
X140950000Y-69533333D01*
X140983333Y-69566666D01*
X141050000Y-69600000D01*
X141183333Y-69600000D01*
X141250000Y-69566666D01*
X141283333Y-69533333D01*
X141316666Y-69466666D01*
X141316666Y-69333333D01*
X141283333Y-69266666D01*
X141250000Y-69233333D01*
X141183333Y-69200000D01*
X141050000Y-69200000D01*
X140983333Y-69233333D01*
X140950000Y-69266666D01*
X140916666Y-69333333D01*
X140883333Y-67250000D02*
X140850000Y-67283333D01*
X140750000Y-67316666D01*
X140683333Y-67316666D01*
X140583333Y-67283333D01*
X140516666Y-67216666D01*
X140483333Y-67150000D01*
X140450000Y-67016666D01*
X140450000Y-66916666D01*
X140483333Y-66783333D01*
X140516666Y-66716666D01*
X140583333Y-66650000D01*
X140683333Y-66616666D01*
X140750000Y-66616666D01*
X140850000Y-66650000D01*
X140883333Y-66683333D01*
X141116666Y-66616666D02*
X141550000Y-66616666D01*
X141316666Y-66883333D01*
X141416666Y-66883333D01*
X141483333Y-66916666D01*
X141516666Y-66950000D01*
X141550000Y-67016666D01*
X141550000Y-67183333D01*
X141516666Y-67250000D01*
X141483333Y-67283333D01*
X141416666Y-67316666D01*
X141216666Y-67316666D01*
X141150000Y-67283333D01*
X141116666Y-67250000D01*
X140600000Y-67616666D02*
X141000000Y-67616666D01*
X140800000Y-68316666D02*
X140800000Y-67616666D01*
X141233333Y-68316666D02*
X141233333Y-67616666D01*
X141233333Y-67950000D02*
X141633333Y-67950000D01*
X141633333Y-68316666D02*
X141633333Y-67616666D01*
X142333333Y-68316666D02*
X141933333Y-68316666D01*
X142133333Y-68316666D02*
X142133333Y-67616666D01*
X142066666Y-67716666D01*
X142000000Y-67783333D01*
X141933333Y-67816666D01*
X138816666Y-67116666D02*
X138483333Y-67350000D01*
X138816666Y-67516666D02*
X138116666Y-67516666D01*
X138116666Y-67250000D01*
X138150000Y-67183333D01*
X138183333Y-67150000D01*
X138250000Y-67116666D01*
X138350000Y-67116666D01*
X138416666Y-67150000D01*
X138450000Y-67183333D01*
X138483333Y-67250000D01*
X138483333Y-67516666D01*
X138116666Y-66516666D02*
X138116666Y-66650000D01*
X138150000Y-66716666D01*
X138183333Y-66750000D01*
X138283333Y-66816666D01*
X138416666Y-66850000D01*
X138683333Y-66850000D01*
X138750000Y-66816666D01*
X138783333Y-66783333D01*
X138816666Y-66716666D01*
X138816666Y-66583333D01*
X138783333Y-66516666D01*
X138750000Y-66483333D01*
X138683333Y-66450000D01*
X138516666Y-66450000D01*
X138450000Y-66483333D01*
X138416666Y-66516666D01*
X138383333Y-66583333D01*
X138383333Y-66716666D01*
X138416666Y-66783333D01*
X138450000Y-66816666D01*
X138516666Y-66850000D01*
X142250000Y-69866666D02*
X142283333Y-69900000D01*
X142316666Y-70000000D01*
X142316666Y-70066666D01*
X142283333Y-70166666D01*
X142216666Y-70233333D01*
X142150000Y-70266666D01*
X142016666Y-70300000D01*
X141916666Y-70300000D01*
X141783333Y-70266666D01*
X141716666Y-70233333D01*
X141650000Y-70166666D01*
X141616666Y-70066666D01*
X141616666Y-70000000D01*
X141650000Y-69900000D01*
X141683333Y-69866666D01*
X141616666Y-69233333D02*
X141616666Y-69566666D01*
X141950000Y-69600000D01*
X141916666Y-69566666D01*
X141883333Y-69500000D01*
X141883333Y-69333333D01*
X141916666Y-69266666D01*
X141950000Y-69233333D01*
X142016666Y-69200000D01*
X142183333Y-69200000D01*
X142250000Y-69233333D01*
X142283333Y-69266666D01*
X142316666Y-69333333D01*
X142316666Y-69500000D01*
X142283333Y-69566666D01*
X142250000Y-69600000D01*
X142250000Y-77866666D02*
X142283333Y-77900000D01*
X142316666Y-78000000D01*
X142316666Y-78066666D01*
X142283333Y-78166666D01*
X142216666Y-78233333D01*
X142150000Y-78266666D01*
X142016666Y-78300000D01*
X141916666Y-78300000D01*
X141783333Y-78266666D01*
X141716666Y-78233333D01*
X141650000Y-78166666D01*
X141616666Y-78066666D01*
X141616666Y-78000000D01*
X141650000Y-77900000D01*
X141683333Y-77866666D01*
X141850000Y-77266666D02*
X142316666Y-77266666D01*
X141583333Y-77433333D02*
X142083333Y-77600000D01*
X142083333Y-77166666D01*
X143816666Y-68516666D02*
X143116666Y-68516666D01*
X143116666Y-68350000D01*
X143150000Y-68250000D01*
X143216666Y-68183333D01*
X143283333Y-68150000D01*
X143416666Y-68116666D01*
X143516666Y-68116666D01*
X143650000Y-68150000D01*
X143716666Y-68183333D01*
X143783333Y-68250000D01*
X143816666Y-68350000D01*
X143816666Y-68516666D01*
X143183333Y-67850000D02*
X143150000Y-67816666D01*
X143116666Y-67750000D01*
X143116666Y-67583333D01*
X143150000Y-67516666D01*
X143183333Y-67483333D01*
X143250000Y-67450000D01*
X143316666Y-67450000D01*
X143416666Y-67483333D01*
X143816666Y-67883333D01*
X143816666Y-67450000D01*
X143816666Y-70266666D02*
X143116666Y-70266666D01*
X143116666Y-70100000D01*
X143150000Y-70000000D01*
X143216666Y-69933333D01*
X143283333Y-69900000D01*
X143416666Y-69866666D01*
X143516666Y-69866666D01*
X143650000Y-69900000D01*
X143716666Y-69933333D01*
X143783333Y-70000000D01*
X143816666Y-70100000D01*
X143816666Y-70266666D01*
X143816666Y-69200000D02*
X143816666Y-69600000D01*
X143816666Y-69400000D02*
X143116666Y-69400000D01*
X143216666Y-69466666D01*
X143283333Y-69533333D01*
X143316666Y-69600000D01*
X144066666Y-80616666D02*
X143733333Y-80850000D01*
X144066666Y-81016666D02*
X143366666Y-81016666D01*
X143366666Y-80750000D01*
X143400000Y-80683333D01*
X143433333Y-80650000D01*
X143500000Y-80616666D01*
X143600000Y-80616666D01*
X143666666Y-80650000D01*
X143700000Y-80683333D01*
X143733333Y-80750000D01*
X143733333Y-81016666D01*
X143600000Y-80016666D02*
X144066666Y-80016666D01*
X143333333Y-80183333D02*
X143833333Y-80350000D01*
X143833333Y-79916666D01*
D13*
X134952380Y-66761904D02*
X135761904Y-66761904D01*
X135857142Y-66714285D01*
X135904761Y-66666666D01*
X135952380Y-66571428D01*
X135952380Y-66380952D01*
X135904761Y-66285714D01*
X135857142Y-66238095D01*
X135761904Y-66190476D01*
X134952380Y-66190476D01*
X135047619Y-65761904D02*
X135000000Y-65714285D01*
X134952380Y-65619047D01*
X134952380Y-65380952D01*
X135000000Y-65285714D01*
X135047619Y-65238095D01*
X135142857Y-65190476D01*
X135238095Y-65190476D01*
X135380952Y-65238095D01*
X135952380Y-65809523D01*
X135952380Y-65190476D01*
X134204761Y-77397619D02*
X134109523Y-77350000D01*
X134014285Y-77254761D01*
X133871428Y-77111904D01*
X133776190Y-77064285D01*
X133680952Y-77064285D01*
X133728571Y-77302380D02*
X133633333Y-77254761D01*
X133538095Y-77159523D01*
X133490476Y-76969047D01*
X133490476Y-76635714D01*
X133538095Y-76445238D01*
X133633333Y-76350000D01*
X133728571Y-76302380D01*
X133919047Y-76302380D01*
X134014285Y-76350000D01*
X134109523Y-76445238D01*
X134157142Y-76635714D01*
X134157142Y-76969047D01*
X134109523Y-77159523D01*
X134014285Y-77254761D01*
X133919047Y-77302380D01*
X133728571Y-77302380D01*
X134538095Y-76397619D02*
X134585714Y-76350000D01*
X134680952Y-76302380D01*
X134919047Y-76302380D01*
X135014285Y-76350000D01*
X135061904Y-76397619D01*
X135109523Y-76492857D01*
X135109523Y-76588095D01*
X135061904Y-76730952D01*
X134490476Y-77302380D01*
X135109523Y-77302380D01*
X126857142Y-72552380D02*
X126523809Y-72076190D01*
X126285714Y-72552380D02*
X126285714Y-71552380D01*
X126666666Y-71552380D01*
X126761904Y-71600000D01*
X126809523Y-71647619D01*
X126857142Y-71742857D01*
X126857142Y-71885714D01*
X126809523Y-71980952D01*
X126761904Y-72028571D01*
X126666666Y-72076190D01*
X126285714Y-72076190D01*
X127809523Y-72552380D02*
X127238095Y-72552380D01*
X127523809Y-72552380D02*
X127523809Y-71552380D01*
X127428571Y-71695238D01*
X127333333Y-71790476D01*
X127238095Y-71838095D01*
X128428571Y-71552380D02*
X128523809Y-71552380D01*
X128619047Y-71600000D01*
X128666666Y-71647619D01*
X128714285Y-71742857D01*
X128761904Y-71933333D01*
X128761904Y-72171428D01*
X128714285Y-72361904D01*
X128666666Y-72457142D01*
X128619047Y-72504761D01*
X128523809Y-72552380D01*
X128428571Y-72552380D01*
X128333333Y-72504761D01*
X128285714Y-72457142D01*
X128238095Y-72361904D01*
X128190476Y-72171428D01*
X128190476Y-71933333D01*
X128238095Y-71742857D01*
X128285714Y-71647619D01*
X128333333Y-71600000D01*
X128428571Y-71552380D01*
X133557142Y-67166666D02*
X133604761Y-67214285D01*
X133652380Y-67357142D01*
X133652380Y-67452380D01*
X133604761Y-67595238D01*
X133509523Y-67690476D01*
X133414285Y-67738095D01*
X133223809Y-67785714D01*
X133080952Y-67785714D01*
X132890476Y-67738095D01*
X132795238Y-67690476D01*
X132700000Y-67595238D01*
X132652380Y-67452380D01*
X132652380Y-67357142D01*
X132700000Y-67214285D01*
X132747619Y-67166666D01*
X132747619Y-66785714D02*
X132700000Y-66738095D01*
X132652380Y-66642857D01*
X132652380Y-66404761D01*
X132700000Y-66309523D01*
X132747619Y-66261904D01*
X132842857Y-66214285D01*
X132938095Y-66214285D01*
X133080952Y-66261904D01*
X133652380Y-66833333D01*
X133652380Y-66214285D01*
D16*
X137182666Y-66616666D02*
X136849333Y-66850000D01*
X137182666Y-67016666D02*
X136482666Y-67016666D01*
X136482666Y-66750000D01*
X136516000Y-66683333D01*
X136549333Y-66650000D01*
X136616000Y-66616666D01*
X136716000Y-66616666D01*
X136782666Y-66650000D01*
X136816000Y-66683333D01*
X136849333Y-66750000D01*
X136849333Y-67016666D01*
X136549333Y-66350000D02*
X136516000Y-66316666D01*
X136482666Y-66250000D01*
X136482666Y-66083333D01*
X136516000Y-66016666D01*
X136549333Y-65983333D01*
X136616000Y-65950000D01*
X136682666Y-65950000D01*
X136782666Y-65983333D01*
X137182666Y-66383333D01*
X137182666Y-65950000D01*
X100433333Y-69566666D02*
X100200000Y-69233333D01*
X100033333Y-69566666D02*
X100033333Y-68866666D01*
X100300000Y-68866666D01*
X100366666Y-68900000D01*
X100400000Y-68933333D01*
X100433333Y-69000000D01*
X100433333Y-69100000D01*
X100400000Y-69166666D01*
X100366666Y-69200000D01*
X100300000Y-69233333D01*
X100033333Y-69233333D01*
X100766666Y-69566666D02*
X100900000Y-69566666D01*
X100966666Y-69533333D01*
X101000000Y-69500000D01*
X101066666Y-69400000D01*
X101100000Y-69266666D01*
X101100000Y-69000000D01*
X101066666Y-68933333D01*
X101033333Y-68900000D01*
X100966666Y-68866666D01*
X100833333Y-68866666D01*
X100766666Y-68900000D01*
X100733333Y-68933333D01*
X100700000Y-69000000D01*
X100700000Y-69166666D01*
X100733333Y-69233333D01*
X100766666Y-69266666D01*
X100833333Y-69300000D01*
X100966666Y-69300000D01*
X101033333Y-69266666D01*
X101066666Y-69233333D01*
X101100000Y-69166666D01*
D13*
X102952380Y-68166666D02*
X102476190Y-68500000D01*
X102952380Y-68738095D02*
X101952380Y-68738095D01*
X101952380Y-68357142D01*
X102000000Y-68261904D01*
X102047619Y-68214285D01*
X102142857Y-68166666D01*
X102285714Y-68166666D01*
X102380952Y-68214285D01*
X102428571Y-68261904D01*
X102476190Y-68357142D01*
X102476190Y-68738095D01*
X101952380Y-67833333D02*
X101952380Y-67214285D01*
X102333333Y-67547619D01*
X102333333Y-67404761D01*
X102380952Y-67309523D01*
X102428571Y-67261904D01*
X102523809Y-67214285D01*
X102761904Y-67214285D01*
X102857142Y-67261904D01*
X102904761Y-67309523D01*
X102952380Y-67404761D01*
X102952380Y-67690476D01*
X102904761Y-67785714D01*
X102857142Y-67833333D01*
X101052380Y-73842857D02*
X100576190Y-74176190D01*
X101052380Y-74414285D02*
X100052380Y-74414285D01*
X100052380Y-74033333D01*
X100100000Y-73938095D01*
X100147619Y-73890476D01*
X100242857Y-73842857D01*
X100385714Y-73842857D01*
X100480952Y-73890476D01*
X100528571Y-73938095D01*
X100576190Y-74033333D01*
X100576190Y-74414285D01*
X101052380Y-72890476D02*
X101052380Y-73461904D01*
X101052380Y-73176190D02*
X100052380Y-73176190D01*
X100195238Y-73271428D01*
X100290476Y-73366666D01*
X100338095Y-73461904D01*
X100147619Y-72509523D02*
X100100000Y-72461904D01*
X100052380Y-72366666D01*
X100052380Y-72128571D01*
X100100000Y-72033333D01*
X100147619Y-71985714D01*
X100242857Y-71938095D01*
X100338095Y-71938095D01*
X100480952Y-71985714D01*
X101052380Y-72557142D01*
X101052380Y-71938095D01*
D16*
X100083333Y-71016666D02*
X100083333Y-70316666D01*
X100250000Y-70316666D01*
X100350000Y-70350000D01*
X100416666Y-70416666D01*
X100450000Y-70483333D01*
X100483333Y-70616666D01*
X100483333Y-70716666D01*
X100450000Y-70850000D01*
X100416666Y-70916666D01*
X100350000Y-70983333D01*
X100250000Y-71016666D01*
X100083333Y-71016666D01*
X100716666Y-70316666D02*
X101150000Y-70316666D01*
X100916666Y-70583333D01*
X101016666Y-70583333D01*
X101083333Y-70616666D01*
X101116666Y-70650000D01*
X101150000Y-70716666D01*
X101150000Y-70883333D01*
X101116666Y-70950000D01*
X101083333Y-70983333D01*
X101016666Y-71016666D01*
X100816666Y-71016666D01*
X100750000Y-70983333D01*
X100716666Y-70950000D01*
D13*
X94557142Y-66766666D02*
X94604761Y-66814285D01*
X94652380Y-66957142D01*
X94652380Y-67052380D01*
X94604761Y-67195238D01*
X94509523Y-67290476D01*
X94414285Y-67338095D01*
X94223809Y-67385714D01*
X94080952Y-67385714D01*
X93890476Y-67338095D01*
X93795238Y-67290476D01*
X93700000Y-67195238D01*
X93652380Y-67052380D01*
X93652380Y-66957142D01*
X93700000Y-66814285D01*
X93747619Y-66766666D01*
X94652380Y-65814285D02*
X94652380Y-66385714D01*
X94652380Y-66100000D02*
X93652380Y-66100000D01*
X93795238Y-66195238D01*
X93890476Y-66290476D01*
X93938095Y-66385714D01*
X80102380Y-73811904D02*
X80911904Y-73811904D01*
X81007142Y-73764285D01*
X81054761Y-73716666D01*
X81102380Y-73621428D01*
X81102380Y-73430952D01*
X81054761Y-73335714D01*
X81007142Y-73288095D01*
X80911904Y-73240476D01*
X80102380Y-73240476D01*
X81102380Y-72240476D02*
X81102380Y-72811904D01*
X81102380Y-72526190D02*
X80102380Y-72526190D01*
X80245238Y-72621428D01*
X80340476Y-72716666D01*
X80388095Y-72811904D01*
X101052380Y-76542857D02*
X100576190Y-76876190D01*
X101052380Y-77114285D02*
X100052380Y-77114285D01*
X100052380Y-76733333D01*
X100100000Y-76638095D01*
X100147619Y-76590476D01*
X100242857Y-76542857D01*
X100385714Y-76542857D01*
X100480952Y-76590476D01*
X100528571Y-76638095D01*
X100576190Y-76733333D01*
X100576190Y-77114285D01*
X101052380Y-75590476D02*
X101052380Y-76161904D01*
X101052380Y-75876190D02*
X100052380Y-75876190D01*
X100195238Y-75971428D01*
X100290476Y-76066666D01*
X100338095Y-76161904D01*
X100052380Y-75257142D02*
X100052380Y-74638095D01*
X100433333Y-74971428D01*
X100433333Y-74828571D01*
X100480952Y-74733333D01*
X100528571Y-74685714D01*
X100623809Y-74638095D01*
X100861904Y-74638095D01*
X100957142Y-74685714D01*
X101004761Y-74733333D01*
X101052380Y-74828571D01*
X101052380Y-75114285D01*
X101004761Y-75209523D01*
X100957142Y-75257142D01*
X104904761Y-66547619D02*
X104809523Y-66500000D01*
X104714285Y-66404761D01*
X104571428Y-66261904D01*
X104476190Y-66214285D01*
X104380952Y-66214285D01*
X104428571Y-66452380D02*
X104333333Y-66404761D01*
X104238095Y-66309523D01*
X104190476Y-66119047D01*
X104190476Y-65785714D01*
X104238095Y-65595238D01*
X104333333Y-65500000D01*
X104428571Y-65452380D01*
X104619047Y-65452380D01*
X104714285Y-65500000D01*
X104809523Y-65595238D01*
X104857142Y-65785714D01*
X104857142Y-66119047D01*
X104809523Y-66309523D01*
X104714285Y-66404761D01*
X104619047Y-66452380D01*
X104428571Y-66452380D01*
X105190476Y-65452380D02*
X105809523Y-65452380D01*
X105476190Y-65833333D01*
X105619047Y-65833333D01*
X105714285Y-65880952D01*
X105761904Y-65928571D01*
X105809523Y-66023809D01*
X105809523Y-66261904D01*
X105761904Y-66357142D01*
X105714285Y-66404761D01*
X105619047Y-66452380D01*
X105333333Y-66452380D01*
X105238095Y-66404761D01*
X105190476Y-66357142D01*
X104904761Y-68547619D02*
X104809523Y-68500000D01*
X104714285Y-68404761D01*
X104571428Y-68261904D01*
X104476190Y-68214285D01*
X104380952Y-68214285D01*
X104428571Y-68452380D02*
X104333333Y-68404761D01*
X104238095Y-68309523D01*
X104190476Y-68119047D01*
X104190476Y-67785714D01*
X104238095Y-67595238D01*
X104333333Y-67500000D01*
X104428571Y-67452380D01*
X104619047Y-67452380D01*
X104714285Y-67500000D01*
X104809523Y-67595238D01*
X104857142Y-67785714D01*
X104857142Y-68119047D01*
X104809523Y-68309523D01*
X104714285Y-68404761D01*
X104619047Y-68452380D01*
X104428571Y-68452380D01*
X105809523Y-68452380D02*
X105238095Y-68452380D01*
X105523809Y-68452380D02*
X105523809Y-67452380D01*
X105428571Y-67595238D01*
X105333333Y-67690476D01*
X105238095Y-67738095D01*
X104057142Y-78352380D02*
X103723809Y-77876190D01*
X103485714Y-78352380D02*
X103485714Y-77352380D01*
X103866666Y-77352380D01*
X103961904Y-77400000D01*
X104009523Y-77447619D01*
X104057142Y-77542857D01*
X104057142Y-77685714D01*
X104009523Y-77780952D01*
X103961904Y-77828571D01*
X103866666Y-77876190D01*
X103485714Y-77876190D01*
X105009523Y-78352380D02*
X104438095Y-78352380D01*
X104723809Y-78352380D02*
X104723809Y-77352380D01*
X104628571Y-77495238D01*
X104533333Y-77590476D01*
X104438095Y-77638095D01*
X105961904Y-78352380D02*
X105390476Y-78352380D01*
X105676190Y-78352380D02*
X105676190Y-77352380D01*
X105580952Y-77495238D01*
X105485714Y-77590476D01*
X105390476Y-77638095D01*
X107233333Y-78352380D02*
X106900000Y-77876190D01*
X106661904Y-78352380D02*
X106661904Y-77352380D01*
X107042857Y-77352380D01*
X107138095Y-77400000D01*
X107185714Y-77447619D01*
X107233333Y-77542857D01*
X107233333Y-77685714D01*
X107185714Y-77780952D01*
X107138095Y-77828571D01*
X107042857Y-77876190D01*
X106661904Y-77876190D01*
X108185714Y-78352380D02*
X107614285Y-78352380D01*
X107900000Y-78352380D02*
X107900000Y-77352380D01*
X107804761Y-77495238D01*
X107709523Y-77590476D01*
X107614285Y-77638095D01*
D17*
X118771428Y-72842857D02*
X118885714Y-72880952D01*
X118923809Y-72919047D01*
X118961904Y-72995238D01*
X118961904Y-73109523D01*
X118923809Y-73185714D01*
X118885714Y-73223809D01*
X118809523Y-73261904D01*
X118504761Y-73261904D01*
X118504761Y-72461904D01*
X118771428Y-72461904D01*
X118847619Y-72500000D01*
X118885714Y-72538095D01*
X118923809Y-72614285D01*
X118923809Y-72690476D01*
X118885714Y-72766666D01*
X118847619Y-72804761D01*
X118771428Y-72842857D01*
X118504761Y-72842857D01*
X119190476Y-72461904D02*
X119647619Y-72461904D01*
X119419047Y-73261904D02*
X119419047Y-72461904D01*
X120333333Y-73261904D02*
X119876190Y-73261904D01*
X120104761Y-73261904D02*
X120104761Y-72461904D01*
X120028571Y-72576190D01*
X119952380Y-72652380D01*
X119876190Y-72690476D01*
D13*
X104904761Y-84547619D02*
X104809523Y-84500000D01*
X104714285Y-84404761D01*
X104571428Y-84261904D01*
X104476190Y-84214285D01*
X104380952Y-84214285D01*
X104428571Y-84452380D02*
X104333333Y-84404761D01*
X104238095Y-84309523D01*
X104190476Y-84119047D01*
X104190476Y-83785714D01*
X104238095Y-83595238D01*
X104333333Y-83500000D01*
X104428571Y-83452380D01*
X104619047Y-83452380D01*
X104714285Y-83500000D01*
X104809523Y-83595238D01*
X104857142Y-83785714D01*
X104857142Y-84119047D01*
X104809523Y-84309523D01*
X104714285Y-84404761D01*
X104619047Y-84452380D01*
X104428571Y-84452380D01*
X105190476Y-83452380D02*
X105809523Y-83452380D01*
X105476190Y-83833333D01*
X105619047Y-83833333D01*
X105714285Y-83880952D01*
X105761904Y-83928571D01*
X105809523Y-84023809D01*
X105809523Y-84261904D01*
X105761904Y-84357142D01*
X105714285Y-84404761D01*
X105619047Y-84452380D01*
X105333333Y-84452380D01*
X105238095Y-84404761D01*
X105190476Y-84357142D01*
X107233333Y-96352380D02*
X106900000Y-95876190D01*
X106661904Y-96352380D02*
X106661904Y-95352380D01*
X107042857Y-95352380D01*
X107138095Y-95400000D01*
X107185714Y-95447619D01*
X107233333Y-95542857D01*
X107233333Y-95685714D01*
X107185714Y-95780952D01*
X107138095Y-95828571D01*
X107042857Y-95876190D01*
X106661904Y-95876190D01*
X108185714Y-96352380D02*
X107614285Y-96352380D01*
X107900000Y-96352380D02*
X107900000Y-95352380D01*
X107804761Y-95495238D01*
X107709523Y-95590476D01*
X107614285Y-95638095D01*
X104904761Y-86547619D02*
X104809523Y-86500000D01*
X104714285Y-86404761D01*
X104571428Y-86261904D01*
X104476190Y-86214285D01*
X104380952Y-86214285D01*
X104428571Y-86452380D02*
X104333333Y-86404761D01*
X104238095Y-86309523D01*
X104190476Y-86119047D01*
X104190476Y-85785714D01*
X104238095Y-85595238D01*
X104333333Y-85500000D01*
X104428571Y-85452380D01*
X104619047Y-85452380D01*
X104714285Y-85500000D01*
X104809523Y-85595238D01*
X104857142Y-85785714D01*
X104857142Y-86119047D01*
X104809523Y-86309523D01*
X104714285Y-86404761D01*
X104619047Y-86452380D01*
X104428571Y-86452380D01*
X105809523Y-86452380D02*
X105238095Y-86452380D01*
X105523809Y-86452380D02*
X105523809Y-85452380D01*
X105428571Y-85595238D01*
X105333333Y-85690476D01*
X105238095Y-85738095D01*
X134204761Y-95397619D02*
X134109523Y-95350000D01*
X134014285Y-95254761D01*
X133871428Y-95111904D01*
X133776190Y-95064285D01*
X133680952Y-95064285D01*
X133728571Y-95302380D02*
X133633333Y-95254761D01*
X133538095Y-95159523D01*
X133490476Y-94969047D01*
X133490476Y-94635714D01*
X133538095Y-94445238D01*
X133633333Y-94350000D01*
X133728571Y-94302380D01*
X133919047Y-94302380D01*
X134014285Y-94350000D01*
X134109523Y-94445238D01*
X134157142Y-94635714D01*
X134157142Y-94969047D01*
X134109523Y-95159523D01*
X134014285Y-95254761D01*
X133919047Y-95302380D01*
X133728571Y-95302380D01*
X134538095Y-94397619D02*
X134585714Y-94350000D01*
X134680952Y-94302380D01*
X134919047Y-94302380D01*
X135014285Y-94350000D01*
X135061904Y-94397619D01*
X135109523Y-94492857D01*
X135109523Y-94588095D01*
X135061904Y-94730952D01*
X134490476Y-95302380D01*
X135109523Y-95302380D01*
X80102380Y-91811904D02*
X80911904Y-91811904D01*
X81007142Y-91764285D01*
X81054761Y-91716666D01*
X81102380Y-91621428D01*
X81102380Y-91430952D01*
X81054761Y-91335714D01*
X81007142Y-91288095D01*
X80911904Y-91240476D01*
X80102380Y-91240476D01*
X81102380Y-90240476D02*
X81102380Y-90811904D01*
X81102380Y-90526190D02*
X80102380Y-90526190D01*
X80245238Y-90621428D01*
X80340476Y-90716666D01*
X80388095Y-90811904D01*
D16*
X100083333Y-89016666D02*
X100083333Y-88316666D01*
X100250000Y-88316666D01*
X100350000Y-88350000D01*
X100416666Y-88416666D01*
X100450000Y-88483333D01*
X100483333Y-88616666D01*
X100483333Y-88716666D01*
X100450000Y-88850000D01*
X100416666Y-88916666D01*
X100350000Y-88983333D01*
X100250000Y-89016666D01*
X100083333Y-89016666D01*
X100716666Y-88316666D02*
X101150000Y-88316666D01*
X100916666Y-88583333D01*
X101016666Y-88583333D01*
X101083333Y-88616666D01*
X101116666Y-88650000D01*
X101150000Y-88716666D01*
X101150000Y-88883333D01*
X101116666Y-88950000D01*
X101083333Y-88983333D01*
X101016666Y-89016666D01*
X100816666Y-89016666D01*
X100750000Y-88983333D01*
X100716666Y-88950000D01*
X143816666Y-86516666D02*
X143116666Y-86516666D01*
X143116666Y-86350000D01*
X143150000Y-86250000D01*
X143216666Y-86183333D01*
X143283333Y-86150000D01*
X143416666Y-86116666D01*
X143516666Y-86116666D01*
X143650000Y-86150000D01*
X143716666Y-86183333D01*
X143783333Y-86250000D01*
X143816666Y-86350000D01*
X143816666Y-86516666D01*
X143183333Y-85850000D02*
X143150000Y-85816666D01*
X143116666Y-85750000D01*
X143116666Y-85583333D01*
X143150000Y-85516666D01*
X143183333Y-85483333D01*
X143250000Y-85450000D01*
X143316666Y-85450000D01*
X143416666Y-85483333D01*
X143816666Y-85883333D01*
X143816666Y-85450000D01*
X143816666Y-88266666D02*
X143116666Y-88266666D01*
X143116666Y-88100000D01*
X143150000Y-88000000D01*
X143216666Y-87933333D01*
X143283333Y-87900000D01*
X143416666Y-87866666D01*
X143516666Y-87866666D01*
X143650000Y-87900000D01*
X143716666Y-87933333D01*
X143783333Y-88000000D01*
X143816666Y-88100000D01*
X143816666Y-88266666D01*
X143816666Y-87200000D02*
X143816666Y-87600000D01*
X143816666Y-87400000D02*
X143116666Y-87400000D01*
X143216666Y-87466666D01*
X143283333Y-87533333D01*
X143316666Y-87600000D01*
X140883333Y-85250000D02*
X140850000Y-85283333D01*
X140750000Y-85316666D01*
X140683333Y-85316666D01*
X140583333Y-85283333D01*
X140516666Y-85216666D01*
X140483333Y-85150000D01*
X140450000Y-85016666D01*
X140450000Y-84916666D01*
X140483333Y-84783333D01*
X140516666Y-84716666D01*
X140583333Y-84650000D01*
X140683333Y-84616666D01*
X140750000Y-84616666D01*
X140850000Y-84650000D01*
X140883333Y-84683333D01*
X141116666Y-84616666D02*
X141550000Y-84616666D01*
X141316666Y-84883333D01*
X141416666Y-84883333D01*
X141483333Y-84916666D01*
X141516666Y-84950000D01*
X141550000Y-85016666D01*
X141550000Y-85183333D01*
X141516666Y-85250000D01*
X141483333Y-85283333D01*
X141416666Y-85316666D01*
X141216666Y-85316666D01*
X141150000Y-85283333D01*
X141116666Y-85250000D01*
X142250000Y-95866666D02*
X142283333Y-95900000D01*
X142316666Y-96000000D01*
X142316666Y-96066666D01*
X142283333Y-96166666D01*
X142216666Y-96233333D01*
X142150000Y-96266666D01*
X142016666Y-96300000D01*
X141916666Y-96300000D01*
X141783333Y-96266666D01*
X141716666Y-96233333D01*
X141650000Y-96166666D01*
X141616666Y-96066666D01*
X141616666Y-96000000D01*
X141650000Y-95900000D01*
X141683333Y-95866666D01*
X141850000Y-95266666D02*
X142316666Y-95266666D01*
X141583333Y-95433333D02*
X142083333Y-95600000D01*
X142083333Y-95166666D01*
X142250000Y-87866666D02*
X142283333Y-87900000D01*
X142316666Y-88000000D01*
X142316666Y-88066666D01*
X142283333Y-88166666D01*
X142216666Y-88233333D01*
X142150000Y-88266666D01*
X142016666Y-88300000D01*
X141916666Y-88300000D01*
X141783333Y-88266666D01*
X141716666Y-88233333D01*
X141650000Y-88166666D01*
X141616666Y-88066666D01*
X141616666Y-88000000D01*
X141650000Y-87900000D01*
X141683333Y-87866666D01*
X141616666Y-87233333D02*
X141616666Y-87566666D01*
X141950000Y-87600000D01*
X141916666Y-87566666D01*
X141883333Y-87500000D01*
X141883333Y-87333333D01*
X141916666Y-87266666D01*
X141950000Y-87233333D01*
X142016666Y-87200000D01*
X142183333Y-87200000D01*
X142250000Y-87233333D01*
X142283333Y-87266666D01*
X142316666Y-87333333D01*
X142316666Y-87500000D01*
X142283333Y-87566666D01*
X142250000Y-87600000D01*
X137182666Y-84616666D02*
X136849333Y-84850000D01*
X137182666Y-85016666D02*
X136482666Y-85016666D01*
X136482666Y-84750000D01*
X136516000Y-84683333D01*
X136549333Y-84650000D01*
X136616000Y-84616666D01*
X136716000Y-84616666D01*
X136782666Y-84650000D01*
X136816000Y-84683333D01*
X136849333Y-84750000D01*
X136849333Y-85016666D01*
X136549333Y-84350000D02*
X136516000Y-84316666D01*
X136482666Y-84250000D01*
X136482666Y-84083333D01*
X136516000Y-84016666D01*
X136549333Y-83983333D01*
X136616000Y-83950000D01*
X136682666Y-83950000D01*
X136782666Y-83983333D01*
X137182666Y-84383333D01*
X137182666Y-83950000D01*
X144066666Y-98616666D02*
X143733333Y-98850000D01*
X144066666Y-99016666D02*
X143366666Y-99016666D01*
X143366666Y-98750000D01*
X143400000Y-98683333D01*
X143433333Y-98650000D01*
X143500000Y-98616666D01*
X143600000Y-98616666D01*
X143666666Y-98650000D01*
X143700000Y-98683333D01*
X143733333Y-98750000D01*
X143733333Y-99016666D01*
X143600000Y-98016666D02*
X144066666Y-98016666D01*
X143333333Y-98183333D02*
X143833333Y-98350000D01*
X143833333Y-97916666D01*
X138816666Y-95616666D02*
X138483333Y-95850000D01*
X138816666Y-96016666D02*
X138116666Y-96016666D01*
X138116666Y-95750000D01*
X138150000Y-95683333D01*
X138183333Y-95650000D01*
X138250000Y-95616666D01*
X138350000Y-95616666D01*
X138416666Y-95650000D01*
X138450000Y-95683333D01*
X138483333Y-95750000D01*
X138483333Y-96016666D01*
X138116666Y-94983333D02*
X138116666Y-95316666D01*
X138450000Y-95350000D01*
X138416666Y-95316666D01*
X138383333Y-95250000D01*
X138383333Y-95083333D01*
X138416666Y-95016666D01*
X138450000Y-94983333D01*
X138516666Y-94950000D01*
X138683333Y-94950000D01*
X138750000Y-94983333D01*
X138783333Y-95016666D01*
X138816666Y-95083333D01*
X138816666Y-95250000D01*
X138783333Y-95316666D01*
X138750000Y-95350000D01*
X138816666Y-85116666D02*
X138483333Y-85350000D01*
X138816666Y-85516666D02*
X138116666Y-85516666D01*
X138116666Y-85250000D01*
X138150000Y-85183333D01*
X138183333Y-85150000D01*
X138250000Y-85116666D01*
X138350000Y-85116666D01*
X138416666Y-85150000D01*
X138450000Y-85183333D01*
X138483333Y-85250000D01*
X138483333Y-85516666D01*
X138116666Y-84516666D02*
X138116666Y-84650000D01*
X138150000Y-84716666D01*
X138183333Y-84750000D01*
X138283333Y-84816666D01*
X138416666Y-84850000D01*
X138683333Y-84850000D01*
X138750000Y-84816666D01*
X138783333Y-84783333D01*
X138816666Y-84716666D01*
X138816666Y-84583333D01*
X138783333Y-84516666D01*
X138750000Y-84483333D01*
X138683333Y-84450000D01*
X138516666Y-84450000D01*
X138450000Y-84483333D01*
X138416666Y-84516666D01*
X138383333Y-84583333D01*
X138383333Y-84716666D01*
X138416666Y-84783333D01*
X138450000Y-84816666D01*
X138516666Y-84850000D01*
X140816666Y-95866666D02*
X140483333Y-96100000D01*
X140816666Y-96266666D02*
X140116666Y-96266666D01*
X140116666Y-96000000D01*
X140150000Y-95933333D01*
X140183333Y-95900000D01*
X140250000Y-95866666D01*
X140350000Y-95866666D01*
X140416666Y-95900000D01*
X140450000Y-95933333D01*
X140483333Y-96000000D01*
X140483333Y-96266666D01*
X140116666Y-95633333D02*
X140116666Y-95166666D01*
X140816666Y-95466666D01*
X141316666Y-87866666D02*
X140983333Y-88100000D01*
X141316666Y-88266666D02*
X140616666Y-88266666D01*
X140616666Y-88000000D01*
X140650000Y-87933333D01*
X140683333Y-87900000D01*
X140750000Y-87866666D01*
X140850000Y-87866666D01*
X140916666Y-87900000D01*
X140950000Y-87933333D01*
X140983333Y-88000000D01*
X140983333Y-88266666D01*
X140916666Y-87466666D02*
X140883333Y-87533333D01*
X140850000Y-87566666D01*
X140783333Y-87600000D01*
X140750000Y-87600000D01*
X140683333Y-87566666D01*
X140650000Y-87533333D01*
X140616666Y-87466666D01*
X140616666Y-87333333D01*
X140650000Y-87266666D01*
X140683333Y-87233333D01*
X140750000Y-87200000D01*
X140783333Y-87200000D01*
X140850000Y-87233333D01*
X140883333Y-87266666D01*
X140916666Y-87333333D01*
X140916666Y-87466666D01*
X140950000Y-87533333D01*
X140983333Y-87566666D01*
X141050000Y-87600000D01*
X141183333Y-87600000D01*
X141250000Y-87566666D01*
X141283333Y-87533333D01*
X141316666Y-87466666D01*
X141316666Y-87333333D01*
X141283333Y-87266666D01*
X141250000Y-87233333D01*
X141183333Y-87200000D01*
X141050000Y-87200000D01*
X140983333Y-87233333D01*
X140950000Y-87266666D01*
X140916666Y-87333333D01*
X100433333Y-87566666D02*
X100200000Y-87233333D01*
X100033333Y-87566666D02*
X100033333Y-86866666D01*
X100300000Y-86866666D01*
X100366666Y-86900000D01*
X100400000Y-86933333D01*
X100433333Y-87000000D01*
X100433333Y-87100000D01*
X100400000Y-87166666D01*
X100366666Y-87200000D01*
X100300000Y-87233333D01*
X100033333Y-87233333D01*
X100766666Y-87566666D02*
X100900000Y-87566666D01*
X100966666Y-87533333D01*
X101000000Y-87500000D01*
X101066666Y-87400000D01*
X101100000Y-87266666D01*
X101100000Y-87000000D01*
X101066666Y-86933333D01*
X101033333Y-86900000D01*
X100966666Y-86866666D01*
X100833333Y-86866666D01*
X100766666Y-86900000D01*
X100733333Y-86933333D01*
X100700000Y-87000000D01*
X100700000Y-87166666D01*
X100733333Y-87233333D01*
X100766666Y-87266666D01*
X100833333Y-87300000D01*
X100966666Y-87300000D01*
X101033333Y-87266666D01*
X101066666Y-87233333D01*
X101100000Y-87166666D01*
X140600000Y-85616666D02*
X141000000Y-85616666D01*
X140800000Y-86316666D02*
X140800000Y-85616666D01*
X141233333Y-86316666D02*
X141233333Y-85616666D01*
X141233333Y-85950000D02*
X141633333Y-85950000D01*
X141633333Y-86316666D02*
X141633333Y-85616666D01*
X142333333Y-86316666D02*
X141933333Y-86316666D01*
X142133333Y-86316666D02*
X142133333Y-85616666D01*
X142066666Y-85716666D01*
X142000000Y-85783333D01*
X141933333Y-85816666D01*
D17*
X118771428Y-90842857D02*
X118885714Y-90880952D01*
X118923809Y-90919047D01*
X118961904Y-90995238D01*
X118961904Y-91109523D01*
X118923809Y-91185714D01*
X118885714Y-91223809D01*
X118809523Y-91261904D01*
X118504761Y-91261904D01*
X118504761Y-90461904D01*
X118771428Y-90461904D01*
X118847619Y-90500000D01*
X118885714Y-90538095D01*
X118923809Y-90614285D01*
X118923809Y-90690476D01*
X118885714Y-90766666D01*
X118847619Y-90804761D01*
X118771428Y-90842857D01*
X118504761Y-90842857D01*
X119190476Y-90461904D02*
X119647619Y-90461904D01*
X119419047Y-91261904D02*
X119419047Y-90461904D01*
X120333333Y-91261904D02*
X119876190Y-91261904D01*
X120104761Y-91261904D02*
X120104761Y-90461904D01*
X120028571Y-90576190D01*
X119952380Y-90652380D01*
X119876190Y-90690476D01*
D13*
X94557142Y-84766666D02*
X94604761Y-84814285D01*
X94652380Y-84957142D01*
X94652380Y-85052380D01*
X94604761Y-85195238D01*
X94509523Y-85290476D01*
X94414285Y-85338095D01*
X94223809Y-85385714D01*
X94080952Y-85385714D01*
X93890476Y-85338095D01*
X93795238Y-85290476D01*
X93700000Y-85195238D01*
X93652380Y-85052380D01*
X93652380Y-84957142D01*
X93700000Y-84814285D01*
X93747619Y-84766666D01*
X94652380Y-83814285D02*
X94652380Y-84385714D01*
X94652380Y-84100000D02*
X93652380Y-84100000D01*
X93795238Y-84195238D01*
X93890476Y-84290476D01*
X93938095Y-84385714D01*
X133557142Y-85166666D02*
X133604761Y-85214285D01*
X133652380Y-85357142D01*
X133652380Y-85452380D01*
X133604761Y-85595238D01*
X133509523Y-85690476D01*
X133414285Y-85738095D01*
X133223809Y-85785714D01*
X133080952Y-85785714D01*
X132890476Y-85738095D01*
X132795238Y-85690476D01*
X132700000Y-85595238D01*
X132652380Y-85452380D01*
X132652380Y-85357142D01*
X132700000Y-85214285D01*
X132747619Y-85166666D01*
X132747619Y-84785714D02*
X132700000Y-84738095D01*
X132652380Y-84642857D01*
X132652380Y-84404761D01*
X132700000Y-84309523D01*
X132747619Y-84261904D01*
X132842857Y-84214285D01*
X132938095Y-84214285D01*
X133080952Y-84261904D01*
X133652380Y-84833333D01*
X133652380Y-84214285D01*
X126857142Y-90552380D02*
X126523809Y-90076190D01*
X126285714Y-90552380D02*
X126285714Y-89552380D01*
X126666666Y-89552380D01*
X126761904Y-89600000D01*
X126809523Y-89647619D01*
X126857142Y-89742857D01*
X126857142Y-89885714D01*
X126809523Y-89980952D01*
X126761904Y-90028571D01*
X126666666Y-90076190D01*
X126285714Y-90076190D01*
X127809523Y-90552380D02*
X127238095Y-90552380D01*
X127523809Y-90552380D02*
X127523809Y-89552380D01*
X127428571Y-89695238D01*
X127333333Y-89790476D01*
X127238095Y-89838095D01*
X128428571Y-89552380D02*
X128523809Y-89552380D01*
X128619047Y-89600000D01*
X128666666Y-89647619D01*
X128714285Y-89742857D01*
X128761904Y-89933333D01*
X128761904Y-90171428D01*
X128714285Y-90361904D01*
X128666666Y-90457142D01*
X128619047Y-90504761D01*
X128523809Y-90552380D01*
X128428571Y-90552380D01*
X128333333Y-90504761D01*
X128285714Y-90457142D01*
X128238095Y-90361904D01*
X128190476Y-90171428D01*
X128190476Y-89933333D01*
X128238095Y-89742857D01*
X128285714Y-89647619D01*
X128333333Y-89600000D01*
X128428571Y-89552380D01*
X104057142Y-96352380D02*
X103723809Y-95876190D01*
X103485714Y-96352380D02*
X103485714Y-95352380D01*
X103866666Y-95352380D01*
X103961904Y-95400000D01*
X104009523Y-95447619D01*
X104057142Y-95542857D01*
X104057142Y-95685714D01*
X104009523Y-95780952D01*
X103961904Y-95828571D01*
X103866666Y-95876190D01*
X103485714Y-95876190D01*
X105009523Y-96352380D02*
X104438095Y-96352380D01*
X104723809Y-96352380D02*
X104723809Y-95352380D01*
X104628571Y-95495238D01*
X104533333Y-95590476D01*
X104438095Y-95638095D01*
X105961904Y-96352380D02*
X105390476Y-96352380D01*
X105676190Y-96352380D02*
X105676190Y-95352380D01*
X105580952Y-95495238D01*
X105485714Y-95590476D01*
X105390476Y-95638095D01*
X134952380Y-84761904D02*
X135761904Y-84761904D01*
X135857142Y-84714285D01*
X135904761Y-84666666D01*
X135952380Y-84571428D01*
X135952380Y-84380952D01*
X135904761Y-84285714D01*
X135857142Y-84238095D01*
X135761904Y-84190476D01*
X134952380Y-84190476D01*
X135047619Y-83761904D02*
X135000000Y-83714285D01*
X134952380Y-83619047D01*
X134952380Y-83380952D01*
X135000000Y-83285714D01*
X135047619Y-83238095D01*
X135142857Y-83190476D01*
X135238095Y-83190476D01*
X135380952Y-83238095D01*
X135952380Y-83809523D01*
X135952380Y-83190476D01*
X102952380Y-86166666D02*
X102476190Y-86500000D01*
X102952380Y-86738095D02*
X101952380Y-86738095D01*
X101952380Y-86357142D01*
X102000000Y-86261904D01*
X102047619Y-86214285D01*
X102142857Y-86166666D01*
X102285714Y-86166666D01*
X102380952Y-86214285D01*
X102428571Y-86261904D01*
X102476190Y-86357142D01*
X102476190Y-86738095D01*
X101952380Y-85833333D02*
X101952380Y-85214285D01*
X102333333Y-85547619D01*
X102333333Y-85404761D01*
X102380952Y-85309523D01*
X102428571Y-85261904D01*
X102523809Y-85214285D01*
X102761904Y-85214285D01*
X102857142Y-85261904D01*
X102904761Y-85309523D01*
X102952380Y-85404761D01*
X102952380Y-85690476D01*
X102904761Y-85785714D01*
X102857142Y-85833333D01*
X101052380Y-91842857D02*
X100576190Y-92176190D01*
X101052380Y-92414285D02*
X100052380Y-92414285D01*
X100052380Y-92033333D01*
X100100000Y-91938095D01*
X100147619Y-91890476D01*
X100242857Y-91842857D01*
X100385714Y-91842857D01*
X100480952Y-91890476D01*
X100528571Y-91938095D01*
X100576190Y-92033333D01*
X100576190Y-92414285D01*
X101052380Y-90890476D02*
X101052380Y-91461904D01*
X101052380Y-91176190D02*
X100052380Y-91176190D01*
X100195238Y-91271428D01*
X100290476Y-91366666D01*
X100338095Y-91461904D01*
X100147619Y-90509523D02*
X100100000Y-90461904D01*
X100052380Y-90366666D01*
X100052380Y-90128571D01*
X100100000Y-90033333D01*
X100147619Y-89985714D01*
X100242857Y-89938095D01*
X100338095Y-89938095D01*
X100480952Y-89985714D01*
X101052380Y-90557142D01*
X101052380Y-89938095D01*
X101052380Y-94542857D02*
X100576190Y-94876190D01*
X101052380Y-95114285D02*
X100052380Y-95114285D01*
X100052380Y-94733333D01*
X100100000Y-94638095D01*
X100147619Y-94590476D01*
X100242857Y-94542857D01*
X100385714Y-94542857D01*
X100480952Y-94590476D01*
X100528571Y-94638095D01*
X100576190Y-94733333D01*
X100576190Y-95114285D01*
X101052380Y-93590476D02*
X101052380Y-94161904D01*
X101052380Y-93876190D02*
X100052380Y-93876190D01*
X100195238Y-93971428D01*
X100290476Y-94066666D01*
X100338095Y-94161904D01*
X100052380Y-93257142D02*
X100052380Y-92638095D01*
X100433333Y-92971428D01*
X100433333Y-92828571D01*
X100480952Y-92733333D01*
X100528571Y-92685714D01*
X100623809Y-92638095D01*
X100861904Y-92638095D01*
X100957142Y-92685714D01*
X101004761Y-92733333D01*
X101052380Y-92828571D01*
X101052380Y-93114285D01*
X101004761Y-93209523D01*
X100957142Y-93257142D01*
%LPC*%
X80150000Y-69250000D02*
X80150000Y-76850000D01*
X83650000Y-69250000D02*
X80150000Y-69250000D01*
X83650000Y-76850000D02*
X83650000Y-69250000D01*
X80150000Y-76850000D02*
X83650000Y-76850000D01*
X80150000Y-94850000D02*
X83650000Y-94850000D01*
X83650000Y-94850000D02*
X83650000Y-87250000D01*
X83650000Y-87250000D02*
X80150000Y-87250000D01*
X80150000Y-87250000D02*
X80150000Y-94850000D01*
D18*
X85560000Y-75400000D03*
D19*
X88100000Y-75400000D03*
X85560000Y-72860000D03*
X88100000Y-72860000D03*
X85560000Y-70320000D03*
X88100000Y-70320000D03*
D20*
X138562000Y-76040000D03*
X138562000Y-74540000D03*
X140340000Y-74540000D03*
X140340000Y-76040000D03*
X140340000Y-73246000D03*
X140340000Y-71746000D03*
D21*
X139650000Y-68400000D03*
X138150000Y-68400000D03*
D22*
X139450000Y-70000000D03*
X137950000Y-70000000D03*
D20*
X138562000Y-71746000D03*
X138562000Y-73246000D03*
D23*
X142118000Y-71746000D03*
X142118000Y-73246000D03*
X142118000Y-76040000D03*
X142118000Y-74540000D03*
D24*
X143642000Y-73196000D03*
X143642000Y-71796000D03*
X143642000Y-75990000D03*
X143642000Y-74590000D03*
D20*
X143750000Y-77750000D03*
X143750000Y-79250000D03*
D25*
X136650000Y-70100000D03*
X134750000Y-70100000D03*
X134750000Y-67900000D03*
X135700000Y-67900000D03*
X136650000Y-67900000D03*
D26*
X135250000Y-73599240D03*
X133350000Y-73599240D03*
X134300000Y-75598220D03*
D22*
X134850000Y-72100000D03*
X133350000Y-72100000D03*
D23*
X133200000Y-68650000D03*
X133200000Y-70150000D03*
D20*
X136900000Y-71850000D03*
X136900000Y-73350000D03*
D22*
X97750000Y-69200000D03*
X99250000Y-69200000D03*
D20*
X102500000Y-71250000D03*
X102500000Y-69750000D03*
X102500000Y-72450000D03*
X102500000Y-73950000D03*
D27*
X99325000Y-70700000D03*
X97675000Y-70700000D03*
D23*
X96100000Y-67350000D03*
X96100000Y-65850000D03*
D28*
X94750000Y-69450000D03*
X94750000Y-70650000D03*
X94750000Y-71850000D03*
X94750000Y-73050000D03*
X94750000Y-74250000D03*
X94750000Y-75450000D03*
X94750000Y-76650000D03*
D29*
X94200000Y-67000000D03*
X93000000Y-67000000D03*
X91800000Y-67000000D03*
X90600000Y-67000000D03*
X89400000Y-67000000D03*
X88200000Y-67000000D03*
X87000000Y-67000000D03*
X85800000Y-67000000D03*
X84600000Y-67000000D03*
X83400000Y-67000000D03*
X82200000Y-67000000D03*
X94200000Y-79100000D03*
X93000000Y-79100000D03*
X91800000Y-79100000D03*
X90600000Y-79100000D03*
X89400000Y-79100000D03*
X88200000Y-79100000D03*
X87000000Y-79100000D03*
X85800000Y-79100000D03*
X84600000Y-79100000D03*
X83400000Y-79100000D03*
X82200000Y-79100000D03*
X81000000Y-79100000D03*
X81000000Y-67000000D03*
D20*
X102500000Y-76650000D03*
X102500000Y-75150000D03*
D26*
X104050000Y-71600760D03*
X105950000Y-71600760D03*
X105000000Y-69601780D03*
X104050000Y-74900760D03*
X105950000Y-74900760D03*
X105000000Y-72901780D03*
D22*
X103950000Y-76400000D03*
X105450000Y-76400000D03*
X106650000Y-76400000D03*
X108150000Y-76400000D03*
D30*
X130910000Y-72900000D03*
X119400000Y-72900000D03*
X108150000Y-72900000D03*
D26*
X105000000Y-87601780D03*
X105950000Y-89600760D03*
X104050000Y-89600760D03*
D22*
X108150000Y-94400000D03*
X106650000Y-94400000D03*
D26*
X105000000Y-90901780D03*
X105950000Y-92900760D03*
X104050000Y-92900760D03*
X134300000Y-93598220D03*
X133350000Y-91599240D03*
X135250000Y-91599240D03*
D29*
X81000000Y-85000000D03*
X81000000Y-97100000D03*
X82200000Y-97100000D03*
X83400000Y-97100000D03*
X84600000Y-97100000D03*
X85800000Y-97100000D03*
X87000000Y-97100000D03*
X88200000Y-97100000D03*
X89400000Y-97100000D03*
X90600000Y-97100000D03*
X91800000Y-97100000D03*
X93000000Y-97100000D03*
X94200000Y-97100000D03*
X82200000Y-85000000D03*
X83400000Y-85000000D03*
X84600000Y-85000000D03*
X85800000Y-85000000D03*
X87000000Y-85000000D03*
X88200000Y-85000000D03*
X89400000Y-85000000D03*
X90600000Y-85000000D03*
X91800000Y-85000000D03*
X93000000Y-85000000D03*
X94200000Y-85000000D03*
D28*
X94750000Y-94650000D03*
X94750000Y-93450000D03*
X94750000Y-92250000D03*
X94750000Y-91050000D03*
X94750000Y-89850000D03*
X94750000Y-88650000D03*
X94750000Y-87450000D03*
D27*
X97675000Y-88700000D03*
X99325000Y-88700000D03*
D24*
X143642000Y-89796000D03*
X143642000Y-91196000D03*
X143642000Y-92590000D03*
X143642000Y-93990000D03*
D21*
X138150000Y-86400000D03*
X139650000Y-86400000D03*
D23*
X142118000Y-92540000D03*
X142118000Y-94040000D03*
X142118000Y-91246000D03*
X142118000Y-89746000D03*
D20*
X136900000Y-91350000D03*
X136900000Y-89850000D03*
X143750000Y-97250000D03*
X143750000Y-95750000D03*
X138562000Y-92540000D03*
X138562000Y-94040000D03*
X138562000Y-91246000D03*
X138562000Y-89746000D03*
X140340000Y-94040000D03*
X140340000Y-92540000D03*
X140340000Y-89746000D03*
X140340000Y-91246000D03*
D22*
X99250000Y-87200000D03*
X97750000Y-87200000D03*
X137950000Y-88000000D03*
X139450000Y-88000000D03*
D30*
X108150000Y-90900000D03*
X119400000Y-90900000D03*
X130910000Y-90900000D03*
D23*
X96100000Y-83850000D03*
X96100000Y-85350000D03*
X133200000Y-88150000D03*
X133200000Y-86650000D03*
D19*
X88100000Y-88320000D03*
X85560000Y-88320000D03*
X88100000Y-90860000D03*
X85560000Y-90860000D03*
X88100000Y-93400000D03*
D18*
X85560000Y-93400000D03*
D22*
X133350000Y-90100000D03*
X134850000Y-90100000D03*
X105450000Y-94400000D03*
X103950000Y-94400000D03*
D25*
X136650000Y-85900000D03*
X135700000Y-85900000D03*
X134750000Y-85900000D03*
X134750000Y-88100000D03*
X136650000Y-88100000D03*
D20*
X102500000Y-87750000D03*
X102500000Y-89250000D03*
X102500000Y-91950000D03*
X102500000Y-90450000D03*
X102500000Y-93150000D03*
X102500000Y-94650000D03*
M02*
