G04 #@! TF.FileFunction,Soldermask,Top*
%FSLAX46Y46*%
G04 Gerber Fmt 4.6, Leading zero omitted, Abs format (unit mm)*
G04 Created by KiCad (PCBNEW no-vcs-found-undefined) date Fri Nov 11 20:13:07 2016*
%MOMM*%
%LPD*%
G01*
G04 APERTURE LIST*
%ADD10C,0.100000*%
%ADD11C,0.150000*%
%ADD12R,1.727200X1.727200*%
%ADD13O,1.727200X1.727200*%
%ADD14R,0.900000X0.500000*%
%ADD15R,0.800000X0.750000*%
%ADD16R,0.500000X0.900000*%
%ADD17R,0.750000X0.800000*%
%ADD18R,0.700000X0.600000*%
%ADD19R,0.650000X1.060000*%
%ADD20R,0.800100X0.800100*%
%ADD21R,0.800000X0.800000*%
%ADD22O,3.600000X0.800000*%
%ADD23O,0.800000X3.600000*%
%ADD24R,2.790000X5.080000*%
G04 APERTURE END LIST*
D10*
D11*
X80150000Y-69250000D02*
X80150000Y-76850000D01*
X83650000Y-69250000D02*
X80150000Y-69250000D01*
X83650000Y-76850000D02*
X83650000Y-69250000D01*
X80150000Y-76850000D02*
X83650000Y-76850000D01*
X80150000Y-94850000D02*
X83650000Y-94850000D01*
X83650000Y-94850000D02*
X83650000Y-87250000D01*
X83650000Y-87250000D02*
X80150000Y-87250000D01*
X80150000Y-87250000D02*
X80150000Y-94850000D01*
D12*
X85560000Y-75400000D03*
D13*
X88100000Y-75400000D03*
X85560000Y-72860000D03*
X88100000Y-72860000D03*
X85560000Y-70320000D03*
X88100000Y-70320000D03*
D14*
X138562000Y-76040000D03*
X138562000Y-74540000D03*
X140340000Y-74540000D03*
X140340000Y-76040000D03*
X140340000Y-73246000D03*
X140340000Y-71746000D03*
D15*
X139650000Y-68400000D03*
X138150000Y-68400000D03*
D16*
X139450000Y-70000000D03*
X137950000Y-70000000D03*
D14*
X138562000Y-71746000D03*
X138562000Y-73246000D03*
D17*
X142118000Y-71746000D03*
X142118000Y-73246000D03*
X142118000Y-76040000D03*
X142118000Y-74540000D03*
D18*
X143642000Y-73196000D03*
X143642000Y-71796000D03*
X143642000Y-75990000D03*
X143642000Y-74590000D03*
D14*
X143750000Y-77750000D03*
X143750000Y-79250000D03*
D19*
X136650000Y-70100000D03*
X134750000Y-70100000D03*
X134750000Y-67900000D03*
X135700000Y-67900000D03*
X136650000Y-67900000D03*
D20*
X135250000Y-73599240D03*
X133350000Y-73599240D03*
X134300000Y-75598220D03*
D16*
X134850000Y-72100000D03*
X133350000Y-72100000D03*
D17*
X133200000Y-68650000D03*
X133200000Y-70150000D03*
D14*
X136900000Y-71850000D03*
X136900000Y-73350000D03*
D16*
X97750000Y-69200000D03*
X99250000Y-69200000D03*
D14*
X102500000Y-71250000D03*
X102500000Y-69750000D03*
X102500000Y-72450000D03*
X102500000Y-73950000D03*
D21*
X99325000Y-70700000D03*
X97675000Y-70700000D03*
D17*
X96100000Y-67350000D03*
X96100000Y-65850000D03*
D22*
X94750000Y-69450000D03*
X94750000Y-70650000D03*
X94750000Y-71850000D03*
X94750000Y-73050000D03*
X94750000Y-74250000D03*
X94750000Y-75450000D03*
X94750000Y-76650000D03*
D23*
X94200000Y-67000000D03*
X93000000Y-67000000D03*
X91800000Y-67000000D03*
X90600000Y-67000000D03*
X89400000Y-67000000D03*
X88200000Y-67000000D03*
X87000000Y-67000000D03*
X85800000Y-67000000D03*
X84600000Y-67000000D03*
X83400000Y-67000000D03*
X82200000Y-67000000D03*
X94200000Y-79100000D03*
X93000000Y-79100000D03*
X91800000Y-79100000D03*
X90600000Y-79100000D03*
X89400000Y-79100000D03*
X88200000Y-79100000D03*
X87000000Y-79100000D03*
X85800000Y-79100000D03*
X84600000Y-79100000D03*
X83400000Y-79100000D03*
X82200000Y-79100000D03*
X81000000Y-79100000D03*
X81000000Y-67000000D03*
D14*
X102500000Y-76650000D03*
X102500000Y-75150000D03*
D20*
X104050000Y-71600760D03*
X105950000Y-71600760D03*
X105000000Y-69601780D03*
X104050000Y-74900760D03*
X105950000Y-74900760D03*
X105000000Y-72901780D03*
D16*
X103950000Y-76400000D03*
X105450000Y-76400000D03*
X106650000Y-76400000D03*
X108150000Y-76400000D03*
D24*
X130910000Y-72900000D03*
X119400000Y-72900000D03*
X108150000Y-72900000D03*
D20*
X105000000Y-87601780D03*
X105950000Y-89600760D03*
X104050000Y-89600760D03*
D16*
X108150000Y-94400000D03*
X106650000Y-94400000D03*
D20*
X105000000Y-90901780D03*
X105950000Y-92900760D03*
X104050000Y-92900760D03*
X134300000Y-93598220D03*
X133350000Y-91599240D03*
X135250000Y-91599240D03*
D23*
X81000000Y-85000000D03*
X81000000Y-97100000D03*
X82200000Y-97100000D03*
X83400000Y-97100000D03*
X84600000Y-97100000D03*
X85800000Y-97100000D03*
X87000000Y-97100000D03*
X88200000Y-97100000D03*
X89400000Y-97100000D03*
X90600000Y-97100000D03*
X91800000Y-97100000D03*
X93000000Y-97100000D03*
X94200000Y-97100000D03*
X82200000Y-85000000D03*
X83400000Y-85000000D03*
X84600000Y-85000000D03*
X85800000Y-85000000D03*
X87000000Y-85000000D03*
X88200000Y-85000000D03*
X89400000Y-85000000D03*
X90600000Y-85000000D03*
X91800000Y-85000000D03*
X93000000Y-85000000D03*
X94200000Y-85000000D03*
D22*
X94750000Y-94650000D03*
X94750000Y-93450000D03*
X94750000Y-92250000D03*
X94750000Y-91050000D03*
X94750000Y-89850000D03*
X94750000Y-88650000D03*
X94750000Y-87450000D03*
D21*
X97675000Y-88700000D03*
X99325000Y-88700000D03*
D18*
X143642000Y-89796000D03*
X143642000Y-91196000D03*
X143642000Y-92590000D03*
X143642000Y-93990000D03*
D15*
X138150000Y-86400000D03*
X139650000Y-86400000D03*
D17*
X142118000Y-92540000D03*
X142118000Y-94040000D03*
X142118000Y-91246000D03*
X142118000Y-89746000D03*
D14*
X136900000Y-91350000D03*
X136900000Y-89850000D03*
X143750000Y-97250000D03*
X143750000Y-95750000D03*
X138562000Y-92540000D03*
X138562000Y-94040000D03*
X138562000Y-91246000D03*
X138562000Y-89746000D03*
X140340000Y-94040000D03*
X140340000Y-92540000D03*
X140340000Y-89746000D03*
X140340000Y-91246000D03*
D16*
X99250000Y-87200000D03*
X97750000Y-87200000D03*
X137950000Y-88000000D03*
X139450000Y-88000000D03*
D24*
X108150000Y-90900000D03*
X119400000Y-90900000D03*
X130910000Y-90900000D03*
D17*
X96100000Y-83850000D03*
X96100000Y-85350000D03*
X133200000Y-88150000D03*
X133200000Y-86650000D03*
D13*
X88100000Y-88320000D03*
X85560000Y-88320000D03*
X88100000Y-90860000D03*
X85560000Y-90860000D03*
X88100000Y-93400000D03*
D12*
X85560000Y-93400000D03*
D16*
X133350000Y-90100000D03*
X134850000Y-90100000D03*
X105450000Y-94400000D03*
X103950000Y-94400000D03*
D19*
X136650000Y-85900000D03*
X135700000Y-85900000D03*
X134750000Y-85900000D03*
X134750000Y-88100000D03*
X136650000Y-88100000D03*
D14*
X102500000Y-87750000D03*
X102500000Y-89250000D03*
X102500000Y-91950000D03*
X102500000Y-90450000D03*
X102500000Y-93150000D03*
X102500000Y-94650000D03*
M02*
