M48
;DRILL file {KiCad no-vcs-found-undefined} date Fri Nov 11 20:13:10 2016
;FORMAT={-:-/ absolute / metric / decimal}
FMAT,2
METRIC,TZ
T1C0.400
T2C1.016
%
G90
G05
M71
T1
X81.Y-65.6
X81.Y-80.5
X81.Y-83.6
X81.Y-98.5
X83.4Y-69.054
X83.4Y-87.054
X89.585Y-71.985
X89.585Y-89.985
X91.8Y-75.4
X91.8Y-93.4
X92.281Y-76.502
X92.281Y-94.502
X94.2Y-65.6
X94.2Y-80.5
X94.2Y-83.6
X94.2Y-98.5
X96.1Y-68.1
X96.1Y-86.1
X96.8Y-65.8
X96.8Y-83.8
X101.603Y-75.072
X101.603Y-93.072
X101.841Y-76.528
X101.841Y-94.528
X105.9Y-74.1
X105.9Y-92.1
X106.Y-76.4
X106.Y-94.4
X108.8Y-76.4
X108.8Y-94.4
X117.1Y-72.9
X117.1Y-90.9
X121.7Y-72.9
X121.7Y-90.9
X134.322Y-73.8
X134.322Y-91.8
X135.3Y-74.3
X135.3Y-92.3
X135.535Y-69.315
X135.535Y-87.315
X135.7Y-72.6
X135.7Y-90.6
X136.4Y-74.
X136.4Y-92.
X137.1Y-76.6
X137.1Y-94.6
X138.Y-75.5
X138.Y-93.5
X141.2Y-75.872
X141.2Y-93.872
X141.3Y-71.8
X141.3Y-89.8
X141.63Y-77.935
X141.63Y-95.935
X142.15Y-70.7
X142.15Y-88.7
X143.3Y-70.5
X143.3Y-88.5
X144.5Y-70.5
X144.5Y-79.25
X144.5Y-80.55
X144.5Y-88.5
X144.5Y-97.25
X144.5Y-98.55
X144.755Y-77.975
X144.755Y-95.975
X145.75Y-78.
X145.75Y-96.
X145.754Y-80.5
X145.754Y-98.5
X145.8Y-70.5
X145.8Y-88.5
X147.Y-70.5
X147.Y-73.
X147.Y-78.
X147.Y-80.5
X147.Y-88.5
X147.Y-91.
X147.Y-96.
X147.Y-98.5
X148.25Y-70.5
X148.25Y-88.5
X148.25Y-73.
X148.25Y-91.
X148.258Y-78.
X148.258Y-96.
X148.273Y-80.5
X148.273Y-98.5
X149.5Y-70.5
X149.5Y-73.
X149.5Y-78.
X149.5Y-80.5
X149.5Y-88.5
X149.5Y-91.
X149.5Y-96.
X149.5Y-98.5
X150.75Y-70.5
X150.75Y-73.
X150.75Y-78.
X150.75Y-80.5
X150.75Y-88.5
X150.75Y-91.
X150.75Y-96.
X150.75Y-98.5
X152.Y-70.5
X152.Y-73.
X152.Y-78.
X152.Y-80.5
X152.Y-88.5
X152.Y-91.
X152.Y-96.
X152.Y-98.5
X153.25Y-70.5
X153.25Y-78.
X153.25Y-88.5
X153.25Y-96.
X153.25Y-80.5
X153.25Y-98.5
X153.25Y-73.
X153.25Y-91.
X154.5Y-70.5
X154.5Y-73.
X154.5Y-78.
X154.5Y-80.5
X154.5Y-88.5
X154.5Y-91.
X154.5Y-96.
X154.5Y-98.5
X155.75Y-70.5
X155.75Y-73.
X155.75Y-78.
X155.75Y-80.5
X155.75Y-88.5
X155.75Y-91.
X155.75Y-96.
X155.75Y-98.5
X157.Y-70.5
X157.Y-73.
X157.Y-78.
X157.Y-80.5
X157.Y-88.5
X157.Y-91.
X157.Y-96.
X157.Y-98.5
X158.25Y-70.5
X158.25Y-73.
X158.25Y-80.5
X158.25Y-88.5
X158.25Y-91.
X158.25Y-98.5
X158.25Y-78.
X158.25Y-96.
X159.5Y-70.5
X159.5Y-73.
X159.5Y-78.
X159.5Y-80.5
X159.5Y-88.5
X159.5Y-91.
X159.5Y-96.
X159.5Y-98.5
X160.75Y-70.5
X160.75Y-88.5
X160.75Y-73.
X160.75Y-78.
X160.75Y-80.5
X160.75Y-91.
X160.75Y-96.
X160.75Y-98.5
X162.Y-70.5
X162.Y-73.
X162.Y-78.
X162.Y-80.5
X162.Y-88.5
X162.Y-91.
X162.Y-96.
X162.Y-98.5
X163.25Y-70.5
X163.25Y-73.
X163.25Y-88.5
X163.25Y-91.
X163.25Y-78.
X163.25Y-80.5
X163.25Y-96.
X163.25Y-98.5
X164.5Y-70.5
X164.5Y-73.
X164.5Y-78.
X164.5Y-80.5
X164.5Y-88.5
X164.5Y-91.
X164.5Y-96.
X164.5Y-98.5
X165.75Y-78.
X165.75Y-96.
X165.75Y-70.5
X165.75Y-73.
X165.75Y-80.5
X165.75Y-88.5
X165.75Y-91.
X165.75Y-98.5
X167.Y-70.5
X167.Y-73.
X167.Y-78.
X167.Y-80.5
X167.Y-88.5
X167.Y-91.
X167.Y-96.
X167.Y-98.5
X168.25Y-70.5
X168.25Y-73.
X168.25Y-78.
X168.25Y-88.5
X168.25Y-91.
X168.25Y-96.
X168.25Y-80.5
X168.25Y-98.5
X169.5Y-70.5
X169.5Y-73.
X169.5Y-78.
X169.5Y-80.5
X169.5Y-88.5
X169.5Y-91.
X169.5Y-96.
X169.5Y-98.5
X170.75Y-73.
X170.75Y-91.
X170.75Y-70.5
X170.75Y-80.5
X170.75Y-88.5
X170.75Y-98.5
X170.75Y-78.
X170.75Y-96.
X172.Y-70.5
X172.Y-73.
X172.Y-78.
X172.Y-80.5
X172.Y-88.5
X172.Y-91.
X172.Y-96.
X172.Y-98.5
X173.248Y-70.5
X173.248Y-73.
X173.248Y-88.5
X173.248Y-91.
X173.25Y-78.
X173.25Y-96.
X173.25Y-80.5
X173.25Y-98.5
X174.5Y-70.5
X174.5Y-73.
X174.5Y-78.
X174.5Y-80.5
X174.5Y-88.5
X174.5Y-91.
X174.5Y-96.
X174.5Y-98.5
X175.746Y-73.
X175.746Y-91.
X175.75Y-78.
X175.75Y-80.5
X175.75Y-96.
X175.75Y-98.5
X175.764Y-70.5
X175.764Y-88.5
X177.Y-70.5
X177.Y-73.
X177.Y-78.
X177.Y-80.5
X177.Y-88.5
X177.Y-91.
X177.Y-96.
X177.Y-98.5
X178.247Y-73.
X178.247Y-91.
X178.25Y-78.
X178.25Y-80.5
X178.25Y-96.
X178.25Y-98.5
X178.262Y-70.5
X178.262Y-88.5
X179.009Y-77.241
X179.009Y-95.241
X179.5Y-70.5
X179.5Y-73.
X179.5Y-80.5
X179.5Y-88.5
X179.5Y-91.
X179.5Y-98.5
X179.75Y-76.5
X179.75Y-94.5
X180.228Y-79.772
X180.228Y-97.772
X180.505Y-73.
X180.505Y-91.
X180.595Y-75.655
X180.595Y-93.655
X180.747Y-70.5
X180.747Y-88.5
X181.Y-79.
X181.Y-97.
X181.5Y-74.75
X181.5Y-92.75
X181.55Y-73.
X181.55Y-91.
X181.703Y-78.297
X181.703Y-96.297
X182.Y-70.5
X182.Y-88.5
X182.5Y-77.5
X182.5Y-95.5
X184.3Y-91.1
X184.8Y-73.
T2
X85.56Y-70.32
X85.56Y-72.86
X85.56Y-75.4
X85.56Y-88.32
X85.56Y-90.86
X85.56Y-93.4
X88.1Y-70.32
X88.1Y-72.86
X88.1Y-75.4
X88.1Y-88.32
X88.1Y-90.86
X88.1Y-93.4
T0
M30
