G04 #@! TF.FileFunction,Legend,Bot*
%FSLAX46Y46*%
G04 Gerber Fmt 4.6, Leading zero omitted, Abs format (unit mm)*
G04 Created by KiCad (PCBNEW no-vcs-found-undefined) date Fri Nov 11 20:13:07 2016*
%MOMM*%
%LPD*%
G01*
G04 APERTURE LIST*
%ADD10C,0.100000*%
%ADD11C,0.300000*%
%ADD12C,1.000000*%
%ADD13C,0.150000*%
%ADD14C,0.010000*%
%ADD15R,1.727200X1.727200*%
%ADD16O,1.727200X1.727200*%
G04 APERTURE END LIST*
D10*
D11*
X168242857Y-88585714D02*
X168314285Y-88657142D01*
X168528571Y-88728571D01*
X168671428Y-88728571D01*
X168885714Y-88657142D01*
X169028571Y-88514285D01*
X169100000Y-88371428D01*
X169171428Y-88085714D01*
X169171428Y-87871428D01*
X169100000Y-87585714D01*
X169028571Y-87442857D01*
X168885714Y-87300000D01*
X168671428Y-87228571D01*
X168528571Y-87228571D01*
X168314285Y-87300000D01*
X168242857Y-87371428D01*
X166957142Y-88728571D02*
X166957142Y-87942857D01*
X167028571Y-87800000D01*
X167171428Y-87728571D01*
X167457142Y-87728571D01*
X167600000Y-87800000D01*
X166957142Y-88657142D02*
X167100000Y-88728571D01*
X167457142Y-88728571D01*
X167600000Y-88657142D01*
X167671428Y-88514285D01*
X167671428Y-88371428D01*
X167600000Y-88228571D01*
X167457142Y-88157142D01*
X167100000Y-88157142D01*
X166957142Y-88085714D01*
X166457142Y-87728571D02*
X165885714Y-87728571D01*
X166242857Y-87228571D02*
X166242857Y-88514285D01*
X166171428Y-88657142D01*
X166028571Y-88728571D01*
X165885714Y-88728571D01*
X165385714Y-87728571D02*
X165385714Y-88728571D01*
X165385714Y-87871428D02*
X165314285Y-87800000D01*
X165171428Y-87728571D01*
X164957142Y-87728571D01*
X164814285Y-87800000D01*
X164742857Y-87942857D01*
X164742857Y-88728571D01*
X164028571Y-88728571D02*
X164028571Y-87728571D01*
X164028571Y-87228571D02*
X164100000Y-87300000D01*
X164028571Y-87371428D01*
X163957142Y-87300000D01*
X164028571Y-87228571D01*
X164028571Y-87371428D01*
X163314285Y-87728571D02*
X163314285Y-89228571D01*
X163314285Y-87800000D02*
X163171428Y-87728571D01*
X162885714Y-87728571D01*
X162742857Y-87800000D01*
X162671428Y-87871428D01*
X162600000Y-88014285D01*
X162600000Y-88442857D01*
X162671428Y-88585714D01*
X162742857Y-88657142D01*
X162885714Y-88728571D01*
X163171428Y-88728571D01*
X163314285Y-88657142D01*
X160814285Y-87942857D02*
X160314285Y-87942857D01*
X160100000Y-88728571D02*
X160814285Y-88728571D01*
X160814285Y-87228571D01*
X160100000Y-87228571D01*
X159242857Y-88728571D02*
X159385714Y-88657142D01*
X159457142Y-88514285D01*
X159457142Y-87228571D01*
X158100000Y-88657142D02*
X158242857Y-88728571D01*
X158528571Y-88728571D01*
X158671428Y-88657142D01*
X158742857Y-88514285D01*
X158742857Y-87942857D01*
X158671428Y-87800000D01*
X158528571Y-87728571D01*
X158242857Y-87728571D01*
X158100000Y-87800000D01*
X158028571Y-87942857D01*
X158028571Y-88085714D01*
X158742857Y-88228571D01*
X156742857Y-88657142D02*
X156885714Y-88728571D01*
X157171428Y-88728571D01*
X157314285Y-88657142D01*
X157385714Y-88585714D01*
X157457142Y-88442857D01*
X157457142Y-88014285D01*
X157385714Y-87871428D01*
X157314285Y-87800000D01*
X157171428Y-87728571D01*
X156885714Y-87728571D01*
X156742857Y-87800000D01*
X156314285Y-87728571D02*
X155742857Y-87728571D01*
X156100000Y-87228571D02*
X156100000Y-88514285D01*
X156028571Y-88657142D01*
X155885714Y-88728571D01*
X155742857Y-88728571D01*
X155242857Y-88728571D02*
X155242857Y-87728571D01*
X155242857Y-88014285D02*
X155171428Y-87871428D01*
X155100000Y-87800000D01*
X154957142Y-87728571D01*
X154814285Y-87728571D01*
X154100000Y-88728571D02*
X154242857Y-88657142D01*
X154314285Y-88585714D01*
X154385714Y-88442857D01*
X154385714Y-88014285D01*
X154314285Y-87871428D01*
X154242857Y-87800000D01*
X154100000Y-87728571D01*
X153885714Y-87728571D01*
X153742857Y-87800000D01*
X153671428Y-87871428D01*
X153600000Y-88014285D01*
X153600000Y-88442857D01*
X153671428Y-88585714D01*
X153742857Y-88657142D01*
X153885714Y-88728571D01*
X154100000Y-88728571D01*
X152957142Y-87728571D02*
X152957142Y-88728571D01*
X152957142Y-87871428D02*
X152885714Y-87800000D01*
X152742857Y-87728571D01*
X152528571Y-87728571D01*
X152385714Y-87800000D01*
X152314285Y-87942857D01*
X152314285Y-88728571D01*
X151600000Y-88728571D02*
X151600000Y-87728571D01*
X151600000Y-87228571D02*
X151671428Y-87300000D01*
X151600000Y-87371428D01*
X151528571Y-87300000D01*
X151600000Y-87228571D01*
X151600000Y-87371428D01*
X150242857Y-88657142D02*
X150385714Y-88728571D01*
X150671428Y-88728571D01*
X150814285Y-88657142D01*
X150885714Y-88585714D01*
X150957142Y-88442857D01*
X150957142Y-88014285D01*
X150885714Y-87871428D01*
X150814285Y-87800000D01*
X150671428Y-87728571D01*
X150385714Y-87728571D01*
X150242857Y-87800000D01*
X149671428Y-88657142D02*
X149528571Y-88728571D01*
X149242857Y-88728571D01*
X149100000Y-88657142D01*
X149028571Y-88514285D01*
X149028571Y-88442857D01*
X149100000Y-88300000D01*
X149242857Y-88228571D01*
X149457142Y-88228571D01*
X149600000Y-88157142D01*
X149671428Y-88014285D01*
X149671428Y-87942857D01*
X149600000Y-87800000D01*
X149457142Y-87728571D01*
X149242857Y-87728571D01*
X149100000Y-87800000D01*
X176385714Y-91278571D02*
X176385714Y-89778571D01*
X175742857Y-91278571D02*
X175742857Y-90492857D01*
X175814285Y-90350000D01*
X175957142Y-90278571D01*
X176171428Y-90278571D01*
X176314285Y-90350000D01*
X176385714Y-90421428D01*
X175242857Y-90278571D02*
X174671428Y-90278571D01*
X175028571Y-89778571D02*
X175028571Y-91064285D01*
X174957142Y-91207142D01*
X174814285Y-91278571D01*
X174671428Y-91278571D01*
X174385714Y-90278571D02*
X173814285Y-90278571D01*
X174171428Y-89778571D02*
X174171428Y-91064285D01*
X174100000Y-91207142D01*
X173957142Y-91278571D01*
X173814285Y-91278571D01*
X173314285Y-90278571D02*
X173314285Y-91778571D01*
X173314285Y-90350000D02*
X173171428Y-90278571D01*
X172885714Y-90278571D01*
X172742857Y-90350000D01*
X172671428Y-90421428D01*
X172600000Y-90564285D01*
X172600000Y-90992857D01*
X172671428Y-91135714D01*
X172742857Y-91207142D01*
X172885714Y-91278571D01*
X173171428Y-91278571D01*
X173314285Y-91207142D01*
X171957142Y-91135714D02*
X171885714Y-91207142D01*
X171957142Y-91278571D01*
X172028571Y-91207142D01*
X171957142Y-91135714D01*
X171957142Y-91278571D01*
X171957142Y-90350000D02*
X171885714Y-90421428D01*
X171957142Y-90492857D01*
X172028571Y-90421428D01*
X171957142Y-90350000D01*
X171957142Y-90492857D01*
X170171428Y-89707142D02*
X171457142Y-91635714D01*
X168600000Y-89707142D02*
X169885714Y-91635714D01*
X168242857Y-90278571D02*
X167957142Y-91278571D01*
X167671428Y-90564285D01*
X167385714Y-91278571D01*
X167100000Y-90278571D01*
X165957142Y-91207142D02*
X166100000Y-91278571D01*
X166385714Y-91278571D01*
X166528571Y-91207142D01*
X166600000Y-91064285D01*
X166600000Y-90492857D01*
X166528571Y-90350000D01*
X166385714Y-90278571D01*
X166100000Y-90278571D01*
X165957142Y-90350000D01*
X165885714Y-90492857D01*
X165885714Y-90635714D01*
X166600000Y-90778571D01*
X165242857Y-91278571D02*
X165242857Y-90278571D01*
X165242857Y-90421428D02*
X165171428Y-90350000D01*
X165028571Y-90278571D01*
X164814285Y-90278571D01*
X164671428Y-90350000D01*
X164600000Y-90492857D01*
X164600000Y-91278571D01*
X164600000Y-90492857D02*
X164528571Y-90350000D01*
X164385714Y-90278571D01*
X164171428Y-90278571D01*
X164028571Y-90350000D01*
X163957142Y-90492857D01*
X163957142Y-91278571D01*
X162600000Y-91278571D02*
X162600000Y-90492857D01*
X162671428Y-90350000D01*
X162814285Y-90278571D01*
X163100000Y-90278571D01*
X163242857Y-90350000D01*
X162600000Y-91207142D02*
X162742857Y-91278571D01*
X163100000Y-91278571D01*
X163242857Y-91207142D01*
X163314285Y-91064285D01*
X163314285Y-90921428D01*
X163242857Y-90778571D01*
X163100000Y-90707142D01*
X162742857Y-90707142D01*
X162600000Y-90635714D01*
X161885714Y-91278571D02*
X161885714Y-89778571D01*
X161742857Y-90707142D02*
X161314285Y-91278571D01*
X161314285Y-90278571D02*
X161885714Y-90850000D01*
X160100000Y-91207142D02*
X160242857Y-91278571D01*
X160528571Y-91278571D01*
X160671428Y-91207142D01*
X160742857Y-91064285D01*
X160742857Y-90492857D01*
X160671428Y-90350000D01*
X160528571Y-90278571D01*
X160242857Y-90278571D01*
X160100000Y-90350000D01*
X160028571Y-90492857D01*
X160028571Y-90635714D01*
X160742857Y-90778571D01*
X159600000Y-90278571D02*
X159028571Y-90278571D01*
X159385714Y-89778571D02*
X159385714Y-91064285D01*
X159314285Y-91207142D01*
X159171428Y-91278571D01*
X159028571Y-91278571D01*
X158528571Y-91278571D02*
X158528571Y-89778571D01*
X157885714Y-91278571D02*
X157885714Y-90492857D01*
X157957142Y-90350000D01*
X158100000Y-90278571D01*
X158314285Y-90278571D01*
X158457142Y-90350000D01*
X158528571Y-90421428D01*
X157171428Y-91278571D02*
X157171428Y-90278571D01*
X157171428Y-89778571D02*
X157242857Y-89850000D01*
X157171428Y-89921428D01*
X157100000Y-89850000D01*
X157171428Y-89778571D01*
X157171428Y-89921428D01*
X156457142Y-90278571D02*
X156457142Y-91278571D01*
X156457142Y-90421428D02*
X156385714Y-90350000D01*
X156242857Y-90278571D01*
X156028571Y-90278571D01*
X155885714Y-90350000D01*
X155814285Y-90492857D01*
X155814285Y-91278571D01*
X154457142Y-90278571D02*
X154457142Y-91492857D01*
X154528571Y-91635714D01*
X154600000Y-91707142D01*
X154742857Y-91778571D01*
X154957142Y-91778571D01*
X155100000Y-91707142D01*
X154457142Y-91207142D02*
X154600000Y-91278571D01*
X154885714Y-91278571D01*
X155028571Y-91207142D01*
X155100000Y-91135714D01*
X155171428Y-90992857D01*
X155171428Y-90564285D01*
X155100000Y-90421428D01*
X155028571Y-90350000D01*
X154885714Y-90278571D01*
X154600000Y-90278571D01*
X154457142Y-90350000D01*
X153814285Y-91207142D02*
X153671428Y-91278571D01*
X153385714Y-91278571D01*
X153242857Y-91207142D01*
X153171428Y-91064285D01*
X153171428Y-90992857D01*
X153242857Y-90850000D01*
X153385714Y-90778571D01*
X153600000Y-90778571D01*
X153742857Y-90707142D01*
X153814285Y-90564285D01*
X153814285Y-90492857D01*
X153742857Y-90350000D01*
X153600000Y-90278571D01*
X153385714Y-90278571D01*
X153242857Y-90350000D01*
X152528571Y-91135714D02*
X152457142Y-91207142D01*
X152528571Y-91278571D01*
X152600000Y-91207142D01*
X152528571Y-91135714D01*
X152528571Y-91278571D01*
X151814285Y-90278571D02*
X151814285Y-91278571D01*
X151814285Y-90421428D02*
X151742857Y-90350000D01*
X151600000Y-90278571D01*
X151385714Y-90278571D01*
X151242857Y-90350000D01*
X151171428Y-90492857D01*
X151171428Y-91278571D01*
X149885714Y-91207142D02*
X150028571Y-91278571D01*
X150314285Y-91278571D01*
X150457142Y-91207142D01*
X150528571Y-91064285D01*
X150528571Y-90492857D01*
X150457142Y-90350000D01*
X150314285Y-90278571D01*
X150028571Y-90278571D01*
X149885714Y-90350000D01*
X149814285Y-90492857D01*
X149814285Y-90635714D01*
X150528571Y-90778571D01*
X149385714Y-90278571D02*
X148814285Y-90278571D01*
X149171428Y-89778571D02*
X149171428Y-91064285D01*
X149100000Y-91207142D01*
X148957142Y-91278571D01*
X148814285Y-91278571D01*
X147242857Y-89707142D02*
X148528571Y-91635714D01*
X146100000Y-91207142D02*
X146242857Y-91278571D01*
X146528571Y-91278571D01*
X146671428Y-91207142D01*
X146742857Y-91135714D01*
X146814285Y-90992857D01*
X146814285Y-90564285D01*
X146742857Y-90421428D01*
X146671428Y-90350000D01*
X146528571Y-90278571D01*
X146242857Y-90278571D01*
X146100000Y-90350000D01*
X145457142Y-91278571D02*
X145457142Y-89778571D01*
X144814285Y-91278571D02*
X144814285Y-90492857D01*
X144885714Y-90350000D01*
X145028571Y-90278571D01*
X145242857Y-90278571D01*
X145385714Y-90350000D01*
X145457142Y-90421428D01*
X144100000Y-91278571D02*
X144100000Y-90278571D01*
X144100000Y-89778571D02*
X144171428Y-89850000D01*
X144100000Y-89921428D01*
X144028571Y-89850000D01*
X144100000Y-89778571D01*
X144100000Y-89921428D01*
X143385714Y-91278571D02*
X143385714Y-90278571D01*
X143385714Y-90564285D02*
X143314285Y-90421428D01*
X143242857Y-90350000D01*
X143100000Y-90278571D01*
X142957142Y-90278571D01*
X142457142Y-90278571D02*
X142457142Y-91778571D01*
X142457142Y-90350000D02*
X142314285Y-90278571D01*
X142028571Y-90278571D01*
X141885714Y-90350000D01*
X141814285Y-90421428D01*
X141742857Y-90564285D01*
X141742857Y-90992857D01*
X141814285Y-91135714D01*
X141885714Y-91207142D01*
X142028571Y-91278571D01*
X142314285Y-91278571D01*
X142457142Y-91207142D01*
X171600000Y-93828571D02*
X171600000Y-92828571D01*
X171600000Y-92971428D02*
X171528571Y-92900000D01*
X171385714Y-92828571D01*
X171171428Y-92828571D01*
X171028571Y-92900000D01*
X170957142Y-93042857D01*
X170957142Y-93828571D01*
X170957142Y-93042857D02*
X170885714Y-92900000D01*
X170742857Y-92828571D01*
X170528571Y-92828571D01*
X170385714Y-92900000D01*
X170314285Y-93042857D01*
X170314285Y-93828571D01*
X169600000Y-93828571D02*
X169600000Y-92828571D01*
X169600000Y-92328571D02*
X169671428Y-92400000D01*
X169600000Y-92471428D01*
X169528571Y-92400000D01*
X169600000Y-92328571D01*
X169600000Y-92471428D01*
X168242857Y-93757142D02*
X168385714Y-93828571D01*
X168671428Y-93828571D01*
X168814285Y-93757142D01*
X168885714Y-93685714D01*
X168957142Y-93542857D01*
X168957142Y-93114285D01*
X168885714Y-92971428D01*
X168814285Y-92900000D01*
X168671428Y-92828571D01*
X168385714Y-92828571D01*
X168242857Y-92900000D01*
X166671428Y-93114285D02*
X166742857Y-93042857D01*
X166885714Y-92971428D01*
X167028571Y-92971428D01*
X167171428Y-93042857D01*
X167242857Y-93114285D01*
X167314285Y-93257142D01*
X167314285Y-93400000D01*
X167242857Y-93542857D01*
X167171428Y-93614285D01*
X167028571Y-93685714D01*
X166885714Y-93685714D01*
X166742857Y-93614285D01*
X166671428Y-93542857D01*
X166671428Y-92971428D02*
X166671428Y-93542857D01*
X166600000Y-93614285D01*
X166528571Y-93614285D01*
X166385714Y-93542857D01*
X166314285Y-93400000D01*
X166314285Y-93042857D01*
X166457142Y-92828571D01*
X166671428Y-92685714D01*
X166957142Y-92614285D01*
X167242857Y-92685714D01*
X167457142Y-92828571D01*
X167600000Y-93042857D01*
X167671428Y-93328571D01*
X167600000Y-93614285D01*
X167457142Y-93828571D01*
X167242857Y-93971428D01*
X166957142Y-94042857D01*
X166671428Y-93971428D01*
X166457142Y-93828571D01*
X165814285Y-92828571D02*
X165528571Y-93828571D01*
X165242857Y-93114285D01*
X164957142Y-93828571D01*
X164671428Y-92828571D01*
X163528571Y-93757142D02*
X163671428Y-93828571D01*
X163957142Y-93828571D01*
X164100000Y-93757142D01*
X164171428Y-93614285D01*
X164171428Y-93042857D01*
X164100000Y-92900000D01*
X163957142Y-92828571D01*
X163671428Y-92828571D01*
X163528571Y-92900000D01*
X163457142Y-93042857D01*
X163457142Y-93185714D01*
X164171428Y-93328571D01*
X162814285Y-93828571D02*
X162814285Y-92828571D01*
X162814285Y-92971428D02*
X162742857Y-92900000D01*
X162600000Y-92828571D01*
X162385714Y-92828571D01*
X162242857Y-92900000D01*
X162171428Y-93042857D01*
X162171428Y-93828571D01*
X162171428Y-93042857D02*
X162100000Y-92900000D01*
X161957142Y-92828571D01*
X161742857Y-92828571D01*
X161600000Y-92900000D01*
X161528571Y-93042857D01*
X161528571Y-93828571D01*
X160171428Y-93828571D02*
X160171428Y-93042857D01*
X160242857Y-92900000D01*
X160385714Y-92828571D01*
X160671428Y-92828571D01*
X160814285Y-92900000D01*
X160171428Y-93757142D02*
X160314285Y-93828571D01*
X160671428Y-93828571D01*
X160814285Y-93757142D01*
X160885714Y-93614285D01*
X160885714Y-93471428D01*
X160814285Y-93328571D01*
X160671428Y-93257142D01*
X160314285Y-93257142D01*
X160171428Y-93185714D01*
X159457142Y-93828571D02*
X159457142Y-92328571D01*
X159314285Y-93257142D02*
X158885714Y-93828571D01*
X158885714Y-92828571D02*
X159457142Y-93400000D01*
X157671428Y-93757142D02*
X157814285Y-93828571D01*
X158100000Y-93828571D01*
X158242857Y-93757142D01*
X158314285Y-93614285D01*
X158314285Y-93042857D01*
X158242857Y-92900000D01*
X158100000Y-92828571D01*
X157814285Y-92828571D01*
X157671428Y-92900000D01*
X157600000Y-93042857D01*
X157600000Y-93185714D01*
X158314285Y-93328571D01*
X157171428Y-92828571D02*
X156600000Y-92828571D01*
X156957142Y-92328571D02*
X156957142Y-93614285D01*
X156885714Y-93757142D01*
X156742857Y-93828571D01*
X156600000Y-93828571D01*
X156100000Y-93828571D02*
X156100000Y-92328571D01*
X155457142Y-93828571D02*
X155457142Y-93042857D01*
X155528571Y-92900000D01*
X155671428Y-92828571D01*
X155885714Y-92828571D01*
X156028571Y-92900000D01*
X156100000Y-92971428D01*
X154742857Y-93828571D02*
X154742857Y-92828571D01*
X154742857Y-92328571D02*
X154814285Y-92400000D01*
X154742857Y-92471428D01*
X154671428Y-92400000D01*
X154742857Y-92328571D01*
X154742857Y-92471428D01*
X154028571Y-92828571D02*
X154028571Y-93828571D01*
X154028571Y-92971428D02*
X153957142Y-92900000D01*
X153814285Y-92828571D01*
X153600000Y-92828571D01*
X153457142Y-92900000D01*
X153385714Y-93042857D01*
X153385714Y-93828571D01*
X152028571Y-92828571D02*
X152028571Y-94042857D01*
X152100000Y-94185714D01*
X152171428Y-94257142D01*
X152314285Y-94328571D01*
X152528571Y-94328571D01*
X152671428Y-94257142D01*
X152028571Y-93757142D02*
X152171428Y-93828571D01*
X152457142Y-93828571D01*
X152600000Y-93757142D01*
X152671428Y-93685714D01*
X152742857Y-93542857D01*
X152742857Y-93114285D01*
X152671428Y-92971428D01*
X152600000Y-92900000D01*
X152457142Y-92828571D01*
X152171428Y-92828571D01*
X152028571Y-92900000D01*
X151385714Y-93757142D02*
X151242857Y-93828571D01*
X150957142Y-93828571D01*
X150814285Y-93757142D01*
X150742857Y-93614285D01*
X150742857Y-93542857D01*
X150814285Y-93400000D01*
X150957142Y-93328571D01*
X151171428Y-93328571D01*
X151314285Y-93257142D01*
X151385714Y-93114285D01*
X151385714Y-93042857D01*
X151314285Y-92900000D01*
X151171428Y-92828571D01*
X150957142Y-92828571D01*
X150814285Y-92900000D01*
X150100000Y-93685714D02*
X150028571Y-93757142D01*
X150100000Y-93828571D01*
X150171428Y-93757142D01*
X150100000Y-93685714D01*
X150100000Y-93828571D01*
X149385714Y-92828571D02*
X149385714Y-93828571D01*
X149385714Y-92971428D02*
X149314285Y-92900000D01*
X149171428Y-92828571D01*
X148957142Y-92828571D01*
X148814285Y-92900000D01*
X148742857Y-93042857D01*
X148742857Y-93828571D01*
X147457142Y-93757142D02*
X147600000Y-93828571D01*
X147885714Y-93828571D01*
X148028571Y-93757142D01*
X148100000Y-93614285D01*
X148100000Y-93042857D01*
X148028571Y-92900000D01*
X147885714Y-92828571D01*
X147600000Y-92828571D01*
X147457142Y-92900000D01*
X147385714Y-93042857D01*
X147385714Y-93185714D01*
X148100000Y-93328571D01*
X146957142Y-92828571D02*
X146385714Y-92828571D01*
X146742857Y-92328571D02*
X146742857Y-93614285D01*
X146671428Y-93757142D01*
X146528571Y-93828571D01*
X146385714Y-93828571D01*
D12*
X178000000Y-99000000D02*
X178000000Y-83000000D01*
D13*
X84290000Y-74130000D02*
X84290000Y-69050000D01*
X84010000Y-76950000D02*
X85560000Y-76950000D01*
X86830000Y-76670000D02*
X86830000Y-74130000D01*
X86830000Y-74130000D02*
X84290000Y-74130000D01*
X84290000Y-69050000D02*
X89370000Y-69050000D01*
X89370000Y-69050000D02*
X89370000Y-74130000D01*
X84010000Y-76950000D02*
X84010000Y-75400000D01*
X89370000Y-76670000D02*
X86830000Y-76670000D01*
X89370000Y-74130000D02*
X89370000Y-76670000D01*
D14*
G36*
X202522357Y-77937860D02*
X202516202Y-77850000D01*
X202419847Y-77599892D01*
X202328477Y-77555629D01*
X202177441Y-77695173D01*
X202143093Y-77850000D01*
X202091009Y-77910261D01*
X201983116Y-77692764D01*
X201949722Y-77594805D01*
X201859065Y-77196586D01*
X201870873Y-76951221D01*
X201880296Y-76938468D01*
X202081949Y-76894371D01*
X202547743Y-76856030D01*
X203205396Y-76827901D01*
X203879654Y-76815186D01*
X204705523Y-76803140D01*
X205254005Y-76777424D01*
X205584118Y-76727911D01*
X205754883Y-76644472D01*
X205825316Y-76516981D01*
X205833620Y-76479889D01*
X205909699Y-76273162D01*
X206033299Y-76379737D01*
X206043600Y-76395783D01*
X206151562Y-76478697D01*
X206193197Y-76253649D01*
X206194776Y-76167880D01*
X206261564Y-75817276D01*
X206494874Y-75706263D01*
X206533775Y-75705298D01*
X206807757Y-75810476D01*
X206870199Y-75957615D01*
X207010437Y-76163102D01*
X207206623Y-76209933D01*
X207480605Y-76104755D01*
X207543047Y-75957615D01*
X207608792Y-75824971D01*
X207846503Y-75746894D01*
X208316891Y-75711339D01*
X208814564Y-75705298D01*
X209437775Y-75686565D01*
X209850510Y-75635595D01*
X209993758Y-75560225D01*
X209989604Y-75549196D01*
X210041761Y-75381308D01*
X210206468Y-75293645D01*
X210450209Y-75118841D01*
X210678455Y-74815653D01*
X210828730Y-74496283D01*
X210838565Y-74272936D01*
X210794630Y-74237277D01*
X210190285Y-73923284D01*
X209714962Y-73474653D01*
X209475556Y-73005128D01*
X209444083Y-72574325D01*
X209613978Y-72317885D01*
X210032126Y-72198136D01*
X210508212Y-72175423D01*
X211046786Y-72100745D01*
X211414057Y-71910953D01*
X211544716Y-71650702D01*
X211496027Y-71500000D01*
X211493096Y-71232930D01*
X211580133Y-71079470D01*
X211696230Y-70795605D01*
X211668975Y-70666604D01*
X211675055Y-70413791D01*
X211822706Y-70117171D01*
X212025721Y-69654719D01*
X212084769Y-69275816D01*
X212138152Y-68933661D01*
X212362827Y-68816009D01*
X212521398Y-68808609D01*
X213004214Y-68888457D01*
X213404510Y-69040435D01*
X213896545Y-69280450D01*
X214271524Y-69447395D01*
X214654079Y-69612407D01*
X215203733Y-69856021D01*
X215639562Y-70052232D01*
X216071973Y-70238410D01*
X214439736Y-70238410D01*
X214355630Y-70154304D01*
X214271524Y-70238410D01*
X214355630Y-70322516D01*
X214439736Y-70238410D01*
X216071973Y-70238410D01*
X216180449Y-70285115D01*
X216561888Y-70386842D01*
X216927809Y-70371656D01*
X217422145Y-70253802D01*
X217489893Y-70235359D01*
X218188991Y-70051355D01*
X218914981Y-69870603D01*
X219191722Y-69805287D01*
X219654218Y-69673231D01*
X219942689Y-69541132D01*
X219990729Y-69482716D01*
X220143703Y-69391164D01*
X220547600Y-69277583D01*
X221119886Y-69164507D01*
X221210265Y-69149757D01*
X222165003Y-68979935D01*
X222835953Y-68789189D01*
X223274215Y-68524443D01*
X223530886Y-68132621D01*
X223657063Y-67560649D01*
X223703844Y-66755449D01*
X223708300Y-66555023D01*
X223742332Y-65842138D01*
X223803897Y-65345399D01*
X223879415Y-65088705D01*
X223955308Y-65095952D01*
X224017994Y-65391039D01*
X224052657Y-65949006D01*
X224082651Y-67042384D01*
X224181392Y-66118676D01*
X224268818Y-65551894D01*
X224396745Y-65248389D01*
X224588462Y-65136436D01*
X224797136Y-65136167D01*
X224768095Y-65313238D01*
X224714621Y-65418290D01*
X224598098Y-65800653D01*
X224533233Y-66331544D01*
X224528757Y-66484636D01*
X224451483Y-67104769D01*
X224262975Y-67770172D01*
X224187609Y-67954415D01*
X223984963Y-68507096D01*
X223989801Y-68825054D01*
X224023092Y-68871170D01*
X224133316Y-69154453D01*
X224186128Y-69641293D01*
X224184603Y-69817880D01*
X223691391Y-69817880D01*
X223629845Y-69679423D01*
X223579250Y-69705739D01*
X223559118Y-69905367D01*
X223579250Y-69930022D01*
X223679252Y-69906931D01*
X223691391Y-69817880D01*
X224184603Y-69817880D01*
X224181269Y-70203716D01*
X224142144Y-70521541D01*
X220611172Y-70521541D01*
X220475551Y-70424453D01*
X220451992Y-70412255D01*
X220105480Y-70312235D01*
X219661627Y-70362646D01*
X219317881Y-70460272D01*
X218692966Y-70648459D01*
X217967106Y-70853010D01*
X217635762Y-70941529D01*
X217358406Y-71015331D01*
X215533113Y-71015331D01*
X215136001Y-70668923D01*
X214786346Y-70388329D01*
X214627836Y-70332145D01*
X214607948Y-70387276D01*
X214715905Y-70490728D01*
X212589404Y-70490728D01*
X212527858Y-70352271D01*
X212477263Y-70378587D01*
X212457131Y-70578215D01*
X212477263Y-70602869D01*
X212577265Y-70579779D01*
X212589404Y-70490728D01*
X214715905Y-70490728D01*
X214735362Y-70509373D01*
X215044658Y-70717830D01*
X215070530Y-70733683D01*
X215533113Y-71015331D01*
X217358406Y-71015331D01*
X217081865Y-71088916D01*
X216878597Y-71145565D01*
X214079723Y-71145565D01*
X213924881Y-70980941D01*
X213838714Y-70914870D01*
X213489228Y-70698410D01*
X213314901Y-70752629D01*
X213262806Y-71100906D01*
X213262252Y-71169494D01*
X213284831Y-71513299D01*
X213317013Y-71532814D01*
X212475384Y-71532814D01*
X212459673Y-71292558D01*
X212377753Y-71039726D01*
X212299964Y-71102511D01*
X212236543Y-71256690D01*
X212123170Y-71639190D01*
X212096592Y-71814967D01*
X212141015Y-71957000D01*
X212319721Y-71850835D01*
X212475384Y-71532814D01*
X213317013Y-71532814D01*
X213404641Y-71585949D01*
X213640729Y-71483133D01*
X213995288Y-71283451D01*
X214079723Y-71145565D01*
X216878597Y-71145565D01*
X216640755Y-71211849D01*
X216468694Y-71263997D01*
X216452083Y-71376329D01*
X216721760Y-71582784D01*
X217029962Y-71752127D01*
X217833134Y-72158745D01*
X219331141Y-71381643D01*
X220003783Y-71027308D01*
X220414916Y-70788695D01*
X220604170Y-70631530D01*
X220611172Y-70521541D01*
X224142144Y-70521541D01*
X224118483Y-70713746D01*
X224027361Y-70996211D01*
X223871946Y-71201611D01*
X223656668Y-71194396D01*
X223413727Y-71080514D01*
X223117461Y-70957086D01*
X222886008Y-70994871D01*
X222598784Y-71231859D01*
X222446962Y-71385095D01*
X222072811Y-71873277D01*
X221977205Y-72308040D01*
X221981723Y-72351850D01*
X222071192Y-72653749D01*
X222301962Y-72733700D01*
X222526258Y-72711551D01*
X223048726Y-72694604D01*
X223436920Y-72746018D01*
X223714144Y-72865140D01*
X223834991Y-73107725D01*
X223859603Y-73524952D01*
X223876335Y-73950804D01*
X223966078Y-74120539D01*
X224188158Y-74114186D01*
X224280133Y-74092254D01*
X224600281Y-74064758D01*
X224699988Y-74229809D01*
X224700663Y-74257261D01*
X224590436Y-74455222D01*
X224222714Y-74526419D01*
X224131020Y-74527814D01*
X223770327Y-74503052D01*
X223585422Y-74366749D01*
X223488272Y-74025880D01*
X223454489Y-73812914D01*
X223347599Y-73098013D01*
X221420530Y-73098013D01*
X221367820Y-72551324D01*
X221276734Y-72158290D01*
X221143751Y-72012864D01*
X221031969Y-72137704D01*
X221000000Y-72419247D01*
X220997943Y-72425165D01*
X220663577Y-72425165D01*
X220579471Y-72341059D01*
X220495365Y-72425165D01*
X220579471Y-72509271D01*
X220663577Y-72425165D01*
X220997943Y-72425165D01*
X220939469Y-72593377D01*
X220327153Y-72593377D01*
X220243047Y-72509271D01*
X220158941Y-72593377D01*
X220243047Y-72677483D01*
X220327153Y-72593377D01*
X220939469Y-72593377D01*
X220852839Y-72842583D01*
X220584231Y-73008046D01*
X215953643Y-73008046D01*
X215838254Y-72837694D01*
X215556678Y-72546533D01*
X215205805Y-72223452D01*
X214882521Y-71957339D01*
X214683715Y-71837084D01*
X214676582Y-71836423D01*
X214474424Y-71874087D01*
X214064910Y-71969299D01*
X213841376Y-72024605D01*
X213094040Y-72212786D01*
X213094040Y-73053486D01*
X213105754Y-73547863D01*
X213166447Y-73781290D01*
X213314452Y-73829070D01*
X213472517Y-73797046D01*
X214519052Y-73521476D01*
X215261705Y-73308946D01*
X215725443Y-73151518D01*
X215935233Y-73041250D01*
X215953643Y-73008046D01*
X220584231Y-73008046D01*
X220430395Y-73102809D01*
X219833576Y-73182119D01*
X219464253Y-73228370D01*
X219327478Y-73414286D01*
X219316030Y-73560596D01*
X219287127Y-73983929D01*
X219220362Y-74502989D01*
X218475321Y-74502989D01*
X218446838Y-74133402D01*
X218377306Y-73979734D01*
X218208997Y-73924629D01*
X217877146Y-73980708D01*
X217835759Y-73994121D01*
X212357755Y-73994121D01*
X212328165Y-73293749D01*
X212304707Y-72837359D01*
X212281846Y-72543460D01*
X212275777Y-72503772D01*
X212114997Y-72475995D01*
X211720119Y-72468161D01*
X211192659Y-72476850D01*
X210634131Y-72498646D01*
X210146049Y-72530130D01*
X209829928Y-72567886D01*
X209767895Y-72588207D01*
X209779285Y-72755743D01*
X209826639Y-72902321D01*
X210098896Y-73241192D01*
X210591473Y-73567385D01*
X211191845Y-73819286D01*
X211701345Y-73928819D01*
X212357755Y-73994121D01*
X217835759Y-73994121D01*
X217321949Y-74160637D01*
X217047020Y-74261482D01*
X216515056Y-74424773D01*
X216040055Y-74514106D01*
X215953643Y-74519319D01*
X215467655Y-74551634D01*
X214860018Y-74626453D01*
X214217023Y-74728323D01*
X213624959Y-74841790D01*
X213170120Y-74951401D01*
X212938794Y-75041702D01*
X212925828Y-75061554D01*
X213083187Y-75115255D01*
X213511931Y-75159325D01*
X214147061Y-75189285D01*
X214923578Y-75200655D01*
X214944371Y-75200662D01*
X215802544Y-75195994D01*
X216379620Y-75176670D01*
X216730860Y-75134707D01*
X216911523Y-75062124D01*
X216976870Y-74950939D01*
X216982427Y-74906291D01*
X217005923Y-74698979D01*
X217055576Y-74818431D01*
X217078867Y-74906291D01*
X217244023Y-75142502D01*
X217473590Y-75187363D01*
X217626122Y-75030192D01*
X217635762Y-74948344D01*
X217770410Y-74725334D01*
X217888080Y-74696026D01*
X218108723Y-74831451D01*
X218140398Y-74958271D01*
X218214534Y-75116556D01*
X217972186Y-75116556D01*
X217888080Y-75032450D01*
X217803974Y-75116556D01*
X217888080Y-75200662D01*
X217972186Y-75116556D01*
X218214534Y-75116556D01*
X218221946Y-75132380D01*
X218308610Y-75116556D01*
X218425744Y-74888643D01*
X218475321Y-74502989D01*
X219220362Y-74502989D01*
X219219048Y-74513204D01*
X219209915Y-74569867D01*
X219159094Y-74980347D01*
X219233902Y-75157807D01*
X219497787Y-75199859D01*
X219619962Y-75200662D01*
X220055977Y-75112256D01*
X220211200Y-74906291D01*
X220275130Y-74698979D01*
X220301485Y-74818431D01*
X220307640Y-74906291D01*
X220428928Y-75138751D01*
X220648828Y-75191472D01*
X220814684Y-75052205D01*
X220831789Y-74948344D01*
X220914989Y-74721734D01*
X221085949Y-74748554D01*
X221220472Y-74990397D01*
X221284402Y-75197709D01*
X221310757Y-75078257D01*
X221316912Y-74990397D01*
X221454676Y-74755938D01*
X221725644Y-74705250D01*
X221981221Y-74838334D01*
X222061531Y-74990397D01*
X222125461Y-75197709D01*
X222151816Y-75078257D01*
X222157971Y-74990397D01*
X222203407Y-74854642D01*
X222358354Y-74767949D01*
X222683345Y-74719723D01*
X223238913Y-74699371D01*
X223839984Y-74696026D01*
X224650969Y-74705058D01*
X225184119Y-74755876D01*
X225497966Y-74884065D01*
X225651043Y-75125208D01*
X225701880Y-75514890D01*
X225707637Y-75831457D01*
X225772822Y-76126923D01*
X225878146Y-76209933D01*
X226026576Y-76349301D01*
X226058181Y-76504304D01*
X226080479Y-76702125D01*
X226151815Y-76589093D01*
X226190907Y-76491857D01*
X226359682Y-76237566D01*
X226466888Y-76185038D01*
X226648875Y-76320703D01*
X226742868Y-76491857D01*
X226838967Y-76700781D01*
X226871046Y-76597448D01*
X226875595Y-76504304D01*
X226947275Y-76322515D01*
X227195537Y-76233659D01*
X227698835Y-76209936D01*
X227706329Y-76209933D01*
X228525240Y-76209933D01*
X228668214Y-75495033D01*
X228723882Y-75047113D01*
X228769546Y-74357176D01*
X228800465Y-73519589D01*
X228811896Y-72635430D01*
X228812604Y-70490728D01*
X229537409Y-70490728D01*
X230096264Y-70549778D01*
X230353452Y-70729769D01*
X230359038Y-70743046D01*
X230524150Y-70965638D01*
X230606077Y-70995364D01*
X230739427Y-70858855D01*
X230756292Y-70743046D01*
X230890940Y-70520036D01*
X231008610Y-70490728D01*
X231231620Y-70625376D01*
X231260928Y-70743046D01*
X231379770Y-70947390D01*
X231639170Y-70983426D01*
X231893441Y-70859602D01*
X231986034Y-70700993D01*
X232049964Y-70493681D01*
X232076319Y-70613133D01*
X232082474Y-70700993D01*
X232177118Y-70899200D01*
X232478477Y-70984443D01*
X232774835Y-70995364D01*
X233227519Y-70960797D01*
X233427736Y-70834466D01*
X233459505Y-70700993D01*
X233486868Y-70520955D01*
X233571392Y-70642440D01*
X233615895Y-70743046D01*
X233729363Y-70983442D01*
X233771009Y-70914744D01*
X233785564Y-70743046D01*
X233835221Y-70553722D01*
X233898872Y-70626974D01*
X234110655Y-70973075D01*
X234422343Y-71305801D01*
X234737478Y-71538649D01*
X234959602Y-71585115D01*
X234964288Y-71582438D01*
X235145858Y-71625490D01*
X235257784Y-71861552D01*
X235363122Y-72256953D01*
X235482012Y-71836423D01*
X235569508Y-71554548D01*
X235604976Y-71586885D01*
X235617670Y-71794370D01*
X235689927Y-72090165D01*
X235790950Y-72172847D01*
X235940555Y-72030316D01*
X236020361Y-71794370D01*
X236093258Y-71415894D01*
X236116166Y-71794370D01*
X236189013Y-72053668D01*
X236430274Y-72158524D01*
X236727815Y-72172847D01*
X237163258Y-72227562D01*
X237315493Y-72402185D01*
X237316557Y-72425165D01*
X237388946Y-72655293D01*
X237542762Y-72630052D01*
X237682976Y-72380505D01*
X237702480Y-72299006D01*
X237775378Y-71920529D01*
X237798285Y-72299006D01*
X237837342Y-72503129D01*
X237974714Y-72616803D01*
X238287559Y-72666188D01*
X238853036Y-72677446D01*
X238914570Y-72677483D01*
X239506289Y-72687968D01*
X239836186Y-72734673D01*
X239978600Y-72840471D01*
X240007947Y-73013907D01*
X239962652Y-73217403D01*
X239771233Y-73317838D01*
X239350385Y-73349261D01*
X239184885Y-73350331D01*
X238605598Y-73307366D01*
X238309709Y-73170632D01*
X238264998Y-73098013D01*
X238069940Y-72887910D01*
X237818313Y-72865904D01*
X237660295Y-73031995D01*
X237652981Y-73098013D01*
X237518333Y-73321023D01*
X237400663Y-73350331D01*
X237177653Y-73215683D01*
X237148345Y-73098013D01*
X237013697Y-72875003D01*
X236896027Y-72845695D01*
X236673017Y-72711047D01*
X236643709Y-72593377D01*
X236507767Y-72403777D01*
X236186546Y-72327372D01*
X235809951Y-72359720D01*
X235507891Y-72496379D01*
X235413966Y-72635430D01*
X235350036Y-72842742D01*
X235323682Y-72723290D01*
X235317527Y-72635430D01*
X235187570Y-72410383D01*
X234801809Y-72341075D01*
X234793378Y-72341059D01*
X234392745Y-72265833D01*
X234288742Y-72088741D01*
X234271546Y-71974919D01*
X234185908Y-71896094D01*
X233980758Y-71846552D01*
X233605023Y-71820578D01*
X233007630Y-71812456D01*
X232137508Y-71816470D01*
X231875341Y-71818666D01*
X231154023Y-71817134D01*
X230701548Y-71788820D01*
X230450627Y-71721009D01*
X230333973Y-71600985D01*
X230306183Y-71522133D01*
X230131184Y-71292253D01*
X229726990Y-71232640D01*
X229691770Y-71233787D01*
X229158279Y-71254888D01*
X229055856Y-74110888D01*
X229020855Y-75052230D01*
X228988164Y-75867893D01*
X228960205Y-76502192D01*
X228939404Y-76899445D01*
X228929697Y-77008940D01*
X228763992Y-77034105D01*
X228372522Y-77049129D01*
X228149007Y-77050993D01*
X227650089Y-77084014D01*
X227422832Y-77196293D01*
X227392053Y-77303311D01*
X227292991Y-77469617D01*
X226956154Y-77545369D01*
X226635100Y-77555629D01*
X226121329Y-77517461D01*
X225896271Y-77394732D01*
X225878146Y-77321308D01*
X225742034Y-77063975D01*
X225615334Y-76986136D01*
X225457571Y-76850258D01*
X225419269Y-76553774D01*
X225466221Y-76127080D01*
X225579921Y-75368874D01*
X224719762Y-75368874D01*
X224208332Y-75385794D01*
X224137302Y-75405670D01*
X212213624Y-75405670D01*
X212156140Y-75240600D01*
X212058486Y-75237458D01*
X211866658Y-75138122D01*
X211808279Y-74948344D01*
X211771074Y-74553375D01*
X211711698Y-74391450D01*
X211590856Y-74359625D01*
X211583552Y-74359602D01*
X211415063Y-74496460D01*
X211179727Y-74842383D01*
X211070349Y-75042540D01*
X210721940Y-75725478D01*
X211432334Y-75673335D01*
X211886934Y-75594630D01*
X212174772Y-75459861D01*
X212213624Y-75405670D01*
X224137302Y-75405670D01*
X223950538Y-75457931D01*
X223864391Y-75617355D01*
X223859603Y-75705298D01*
X223788181Y-75993446D01*
X223635213Y-76003374D01*
X223492644Y-75745102D01*
X223473680Y-75663245D01*
X223417022Y-75419608D01*
X223387846Y-75497542D01*
X223378037Y-75621192D01*
X223358200Y-75733061D01*
X223287470Y-75816102D01*
X223123168Y-75873782D01*
X222822616Y-75909570D01*
X222343136Y-75926935D01*
X221642050Y-75929345D01*
X220676680Y-75920270D01*
X219835220Y-75909139D01*
X216315149Y-75860663D01*
X216241409Y-76245563D01*
X216167670Y-76630463D01*
X216144762Y-76251986D01*
X216033844Y-75954236D01*
X215713024Y-75873510D01*
X215360900Y-75980761D01*
X215231296Y-76251986D01*
X215158398Y-76630463D01*
X215135491Y-76251986D01*
X215048474Y-75976722D01*
X214768406Y-75878938D01*
X214607948Y-75873510D01*
X214239543Y-75925022D01*
X214099841Y-76127105D01*
X214086544Y-76251986D01*
X214066408Y-76502063D01*
X214015326Y-76449234D01*
X213935100Y-76209933D01*
X213832691Y-75970657D01*
X213785030Y-76063321D01*
X213783655Y-76083774D01*
X213695483Y-76333882D01*
X213611010Y-76378145D01*
X213442708Y-76239584D01*
X213378205Y-76083774D01*
X213314275Y-75876462D01*
X213287920Y-75995914D01*
X213281765Y-76083774D01*
X213123727Y-76331287D01*
X212925828Y-76378145D01*
X212649220Y-76486530D01*
X212589404Y-76637497D01*
X212481483Y-76944306D01*
X212257499Y-77253106D01*
X211925594Y-77609365D01*
X211772236Y-77204020D01*
X211711854Y-76766976D01*
X211788314Y-76588410D01*
X211847452Y-76415490D01*
X211679556Y-76378145D01*
X211383905Y-76510848D01*
X211304539Y-76630463D01*
X211102786Y-76853841D01*
X210991391Y-76882781D01*
X210747943Y-76747439D01*
X210678243Y-76630463D01*
X210494116Y-76396514D01*
X210307146Y-76455748D01*
X210217670Y-76756622D01*
X210196500Y-77016717D01*
X210144308Y-76951908D01*
X210091511Y-76792892D01*
X209951545Y-76573363D01*
X209652449Y-76461753D01*
X209183113Y-76422617D01*
X208670423Y-76433033D01*
X208427052Y-76522249D01*
X208384106Y-76638665D01*
X208312978Y-76865227D01*
X208257948Y-76895281D01*
X207588150Y-77025005D01*
X207203839Y-77246804D01*
X207160242Y-77308058D01*
X206954611Y-77534297D01*
X206763103Y-77435678D01*
X206575281Y-77008940D01*
X206399908Y-76462251D01*
X206382736Y-77008940D01*
X206321264Y-77401820D01*
X206136992Y-77547742D01*
X206041474Y-77555629D01*
X205737030Y-77687614D01*
X205640457Y-77850000D01*
X205576527Y-78057312D01*
X205550172Y-77937860D01*
X205544017Y-77850000D01*
X205493488Y-77704908D01*
X205322108Y-77616479D01*
X204964815Y-77571385D01*
X204356549Y-77556297D01*
X204107036Y-77555629D01*
X203400653Y-77565223D01*
X202962875Y-77602871D01*
X202726211Y-77681867D01*
X202623166Y-77815505D01*
X202612642Y-77850000D01*
X202548712Y-78057312D01*
X202522357Y-77937860D01*
X202522357Y-77937860D01*
G37*
X202522357Y-77937860D02*
X202516202Y-77850000D01*
X202419847Y-77599892D01*
X202328477Y-77555629D01*
X202177441Y-77695173D01*
X202143093Y-77850000D01*
X202091009Y-77910261D01*
X201983116Y-77692764D01*
X201949722Y-77594805D01*
X201859065Y-77196586D01*
X201870873Y-76951221D01*
X201880296Y-76938468D01*
X202081949Y-76894371D01*
X202547743Y-76856030D01*
X203205396Y-76827901D01*
X203879654Y-76815186D01*
X204705523Y-76803140D01*
X205254005Y-76777424D01*
X205584118Y-76727911D01*
X205754883Y-76644472D01*
X205825316Y-76516981D01*
X205833620Y-76479889D01*
X205909699Y-76273162D01*
X206033299Y-76379737D01*
X206043600Y-76395783D01*
X206151562Y-76478697D01*
X206193197Y-76253649D01*
X206194776Y-76167880D01*
X206261564Y-75817276D01*
X206494874Y-75706263D01*
X206533775Y-75705298D01*
X206807757Y-75810476D01*
X206870199Y-75957615D01*
X207010437Y-76163102D01*
X207206623Y-76209933D01*
X207480605Y-76104755D01*
X207543047Y-75957615D01*
X207608792Y-75824971D01*
X207846503Y-75746894D01*
X208316891Y-75711339D01*
X208814564Y-75705298D01*
X209437775Y-75686565D01*
X209850510Y-75635595D01*
X209993758Y-75560225D01*
X209989604Y-75549196D01*
X210041761Y-75381308D01*
X210206468Y-75293645D01*
X210450209Y-75118841D01*
X210678455Y-74815653D01*
X210828730Y-74496283D01*
X210838565Y-74272936D01*
X210794630Y-74237277D01*
X210190285Y-73923284D01*
X209714962Y-73474653D01*
X209475556Y-73005128D01*
X209444083Y-72574325D01*
X209613978Y-72317885D01*
X210032126Y-72198136D01*
X210508212Y-72175423D01*
X211046786Y-72100745D01*
X211414057Y-71910953D01*
X211544716Y-71650702D01*
X211496027Y-71500000D01*
X211493096Y-71232930D01*
X211580133Y-71079470D01*
X211696230Y-70795605D01*
X211668975Y-70666604D01*
X211675055Y-70413791D01*
X211822706Y-70117171D01*
X212025721Y-69654719D01*
X212084769Y-69275816D01*
X212138152Y-68933661D01*
X212362827Y-68816009D01*
X212521398Y-68808609D01*
X213004214Y-68888457D01*
X213404510Y-69040435D01*
X213896545Y-69280450D01*
X214271524Y-69447395D01*
X214654079Y-69612407D01*
X215203733Y-69856021D01*
X215639562Y-70052232D01*
X216071973Y-70238410D01*
X214439736Y-70238410D01*
X214355630Y-70154304D01*
X214271524Y-70238410D01*
X214355630Y-70322516D01*
X214439736Y-70238410D01*
X216071973Y-70238410D01*
X216180449Y-70285115D01*
X216561888Y-70386842D01*
X216927809Y-70371656D01*
X217422145Y-70253802D01*
X217489893Y-70235359D01*
X218188991Y-70051355D01*
X218914981Y-69870603D01*
X219191722Y-69805287D01*
X219654218Y-69673231D01*
X219942689Y-69541132D01*
X219990729Y-69482716D01*
X220143703Y-69391164D01*
X220547600Y-69277583D01*
X221119886Y-69164507D01*
X221210265Y-69149757D01*
X222165003Y-68979935D01*
X222835953Y-68789189D01*
X223274215Y-68524443D01*
X223530886Y-68132621D01*
X223657063Y-67560649D01*
X223703844Y-66755449D01*
X223708300Y-66555023D01*
X223742332Y-65842138D01*
X223803897Y-65345399D01*
X223879415Y-65088705D01*
X223955308Y-65095952D01*
X224017994Y-65391039D01*
X224052657Y-65949006D01*
X224082651Y-67042384D01*
X224181392Y-66118676D01*
X224268818Y-65551894D01*
X224396745Y-65248389D01*
X224588462Y-65136436D01*
X224797136Y-65136167D01*
X224768095Y-65313238D01*
X224714621Y-65418290D01*
X224598098Y-65800653D01*
X224533233Y-66331544D01*
X224528757Y-66484636D01*
X224451483Y-67104769D01*
X224262975Y-67770172D01*
X224187609Y-67954415D01*
X223984963Y-68507096D01*
X223989801Y-68825054D01*
X224023092Y-68871170D01*
X224133316Y-69154453D01*
X224186128Y-69641293D01*
X224184603Y-69817880D01*
X223691391Y-69817880D01*
X223629845Y-69679423D01*
X223579250Y-69705739D01*
X223559118Y-69905367D01*
X223579250Y-69930022D01*
X223679252Y-69906931D01*
X223691391Y-69817880D01*
X224184603Y-69817880D01*
X224181269Y-70203716D01*
X224142144Y-70521541D01*
X220611172Y-70521541D01*
X220475551Y-70424453D01*
X220451992Y-70412255D01*
X220105480Y-70312235D01*
X219661627Y-70362646D01*
X219317881Y-70460272D01*
X218692966Y-70648459D01*
X217967106Y-70853010D01*
X217635762Y-70941529D01*
X217358406Y-71015331D01*
X215533113Y-71015331D01*
X215136001Y-70668923D01*
X214786346Y-70388329D01*
X214627836Y-70332145D01*
X214607948Y-70387276D01*
X214715905Y-70490728D01*
X212589404Y-70490728D01*
X212527858Y-70352271D01*
X212477263Y-70378587D01*
X212457131Y-70578215D01*
X212477263Y-70602869D01*
X212577265Y-70579779D01*
X212589404Y-70490728D01*
X214715905Y-70490728D01*
X214735362Y-70509373D01*
X215044658Y-70717830D01*
X215070530Y-70733683D01*
X215533113Y-71015331D01*
X217358406Y-71015331D01*
X217081865Y-71088916D01*
X216878597Y-71145565D01*
X214079723Y-71145565D01*
X213924881Y-70980941D01*
X213838714Y-70914870D01*
X213489228Y-70698410D01*
X213314901Y-70752629D01*
X213262806Y-71100906D01*
X213262252Y-71169494D01*
X213284831Y-71513299D01*
X213317013Y-71532814D01*
X212475384Y-71532814D01*
X212459673Y-71292558D01*
X212377753Y-71039726D01*
X212299964Y-71102511D01*
X212236543Y-71256690D01*
X212123170Y-71639190D01*
X212096592Y-71814967D01*
X212141015Y-71957000D01*
X212319721Y-71850835D01*
X212475384Y-71532814D01*
X213317013Y-71532814D01*
X213404641Y-71585949D01*
X213640729Y-71483133D01*
X213995288Y-71283451D01*
X214079723Y-71145565D01*
X216878597Y-71145565D01*
X216640755Y-71211849D01*
X216468694Y-71263997D01*
X216452083Y-71376329D01*
X216721760Y-71582784D01*
X217029962Y-71752127D01*
X217833134Y-72158745D01*
X219331141Y-71381643D01*
X220003783Y-71027308D01*
X220414916Y-70788695D01*
X220604170Y-70631530D01*
X220611172Y-70521541D01*
X224142144Y-70521541D01*
X224118483Y-70713746D01*
X224027361Y-70996211D01*
X223871946Y-71201611D01*
X223656668Y-71194396D01*
X223413727Y-71080514D01*
X223117461Y-70957086D01*
X222886008Y-70994871D01*
X222598784Y-71231859D01*
X222446962Y-71385095D01*
X222072811Y-71873277D01*
X221977205Y-72308040D01*
X221981723Y-72351850D01*
X222071192Y-72653749D01*
X222301962Y-72733700D01*
X222526258Y-72711551D01*
X223048726Y-72694604D01*
X223436920Y-72746018D01*
X223714144Y-72865140D01*
X223834991Y-73107725D01*
X223859603Y-73524952D01*
X223876335Y-73950804D01*
X223966078Y-74120539D01*
X224188158Y-74114186D01*
X224280133Y-74092254D01*
X224600281Y-74064758D01*
X224699988Y-74229809D01*
X224700663Y-74257261D01*
X224590436Y-74455222D01*
X224222714Y-74526419D01*
X224131020Y-74527814D01*
X223770327Y-74503052D01*
X223585422Y-74366749D01*
X223488272Y-74025880D01*
X223454489Y-73812914D01*
X223347599Y-73098013D01*
X221420530Y-73098013D01*
X221367820Y-72551324D01*
X221276734Y-72158290D01*
X221143751Y-72012864D01*
X221031969Y-72137704D01*
X221000000Y-72419247D01*
X220997943Y-72425165D01*
X220663577Y-72425165D01*
X220579471Y-72341059D01*
X220495365Y-72425165D01*
X220579471Y-72509271D01*
X220663577Y-72425165D01*
X220997943Y-72425165D01*
X220939469Y-72593377D01*
X220327153Y-72593377D01*
X220243047Y-72509271D01*
X220158941Y-72593377D01*
X220243047Y-72677483D01*
X220327153Y-72593377D01*
X220939469Y-72593377D01*
X220852839Y-72842583D01*
X220584231Y-73008046D01*
X215953643Y-73008046D01*
X215838254Y-72837694D01*
X215556678Y-72546533D01*
X215205805Y-72223452D01*
X214882521Y-71957339D01*
X214683715Y-71837084D01*
X214676582Y-71836423D01*
X214474424Y-71874087D01*
X214064910Y-71969299D01*
X213841376Y-72024605D01*
X213094040Y-72212786D01*
X213094040Y-73053486D01*
X213105754Y-73547863D01*
X213166447Y-73781290D01*
X213314452Y-73829070D01*
X213472517Y-73797046D01*
X214519052Y-73521476D01*
X215261705Y-73308946D01*
X215725443Y-73151518D01*
X215935233Y-73041250D01*
X215953643Y-73008046D01*
X220584231Y-73008046D01*
X220430395Y-73102809D01*
X219833576Y-73182119D01*
X219464253Y-73228370D01*
X219327478Y-73414286D01*
X219316030Y-73560596D01*
X219287127Y-73983929D01*
X219220362Y-74502989D01*
X218475321Y-74502989D01*
X218446838Y-74133402D01*
X218377306Y-73979734D01*
X218208997Y-73924629D01*
X217877146Y-73980708D01*
X217835759Y-73994121D01*
X212357755Y-73994121D01*
X212328165Y-73293749D01*
X212304707Y-72837359D01*
X212281846Y-72543460D01*
X212275777Y-72503772D01*
X212114997Y-72475995D01*
X211720119Y-72468161D01*
X211192659Y-72476850D01*
X210634131Y-72498646D01*
X210146049Y-72530130D01*
X209829928Y-72567886D01*
X209767895Y-72588207D01*
X209779285Y-72755743D01*
X209826639Y-72902321D01*
X210098896Y-73241192D01*
X210591473Y-73567385D01*
X211191845Y-73819286D01*
X211701345Y-73928819D01*
X212357755Y-73994121D01*
X217835759Y-73994121D01*
X217321949Y-74160637D01*
X217047020Y-74261482D01*
X216515056Y-74424773D01*
X216040055Y-74514106D01*
X215953643Y-74519319D01*
X215467655Y-74551634D01*
X214860018Y-74626453D01*
X214217023Y-74728323D01*
X213624959Y-74841790D01*
X213170120Y-74951401D01*
X212938794Y-75041702D01*
X212925828Y-75061554D01*
X213083187Y-75115255D01*
X213511931Y-75159325D01*
X214147061Y-75189285D01*
X214923578Y-75200655D01*
X214944371Y-75200662D01*
X215802544Y-75195994D01*
X216379620Y-75176670D01*
X216730860Y-75134707D01*
X216911523Y-75062124D01*
X216976870Y-74950939D01*
X216982427Y-74906291D01*
X217005923Y-74698979D01*
X217055576Y-74818431D01*
X217078867Y-74906291D01*
X217244023Y-75142502D01*
X217473590Y-75187363D01*
X217626122Y-75030192D01*
X217635762Y-74948344D01*
X217770410Y-74725334D01*
X217888080Y-74696026D01*
X218108723Y-74831451D01*
X218140398Y-74958271D01*
X218214534Y-75116556D01*
X217972186Y-75116556D01*
X217888080Y-75032450D01*
X217803974Y-75116556D01*
X217888080Y-75200662D01*
X217972186Y-75116556D01*
X218214534Y-75116556D01*
X218221946Y-75132380D01*
X218308610Y-75116556D01*
X218425744Y-74888643D01*
X218475321Y-74502989D01*
X219220362Y-74502989D01*
X219219048Y-74513204D01*
X219209915Y-74569867D01*
X219159094Y-74980347D01*
X219233902Y-75157807D01*
X219497787Y-75199859D01*
X219619962Y-75200662D01*
X220055977Y-75112256D01*
X220211200Y-74906291D01*
X220275130Y-74698979D01*
X220301485Y-74818431D01*
X220307640Y-74906291D01*
X220428928Y-75138751D01*
X220648828Y-75191472D01*
X220814684Y-75052205D01*
X220831789Y-74948344D01*
X220914989Y-74721734D01*
X221085949Y-74748554D01*
X221220472Y-74990397D01*
X221284402Y-75197709D01*
X221310757Y-75078257D01*
X221316912Y-74990397D01*
X221454676Y-74755938D01*
X221725644Y-74705250D01*
X221981221Y-74838334D01*
X222061531Y-74990397D01*
X222125461Y-75197709D01*
X222151816Y-75078257D01*
X222157971Y-74990397D01*
X222203407Y-74854642D01*
X222358354Y-74767949D01*
X222683345Y-74719723D01*
X223238913Y-74699371D01*
X223839984Y-74696026D01*
X224650969Y-74705058D01*
X225184119Y-74755876D01*
X225497966Y-74884065D01*
X225651043Y-75125208D01*
X225701880Y-75514890D01*
X225707637Y-75831457D01*
X225772822Y-76126923D01*
X225878146Y-76209933D01*
X226026576Y-76349301D01*
X226058181Y-76504304D01*
X226080479Y-76702125D01*
X226151815Y-76589093D01*
X226190907Y-76491857D01*
X226359682Y-76237566D01*
X226466888Y-76185038D01*
X226648875Y-76320703D01*
X226742868Y-76491857D01*
X226838967Y-76700781D01*
X226871046Y-76597448D01*
X226875595Y-76504304D01*
X226947275Y-76322515D01*
X227195537Y-76233659D01*
X227698835Y-76209936D01*
X227706329Y-76209933D01*
X228525240Y-76209933D01*
X228668214Y-75495033D01*
X228723882Y-75047113D01*
X228769546Y-74357176D01*
X228800465Y-73519589D01*
X228811896Y-72635430D01*
X228812604Y-70490728D01*
X229537409Y-70490728D01*
X230096264Y-70549778D01*
X230353452Y-70729769D01*
X230359038Y-70743046D01*
X230524150Y-70965638D01*
X230606077Y-70995364D01*
X230739427Y-70858855D01*
X230756292Y-70743046D01*
X230890940Y-70520036D01*
X231008610Y-70490728D01*
X231231620Y-70625376D01*
X231260928Y-70743046D01*
X231379770Y-70947390D01*
X231639170Y-70983426D01*
X231893441Y-70859602D01*
X231986034Y-70700993D01*
X232049964Y-70493681D01*
X232076319Y-70613133D01*
X232082474Y-70700993D01*
X232177118Y-70899200D01*
X232478477Y-70984443D01*
X232774835Y-70995364D01*
X233227519Y-70960797D01*
X233427736Y-70834466D01*
X233459505Y-70700993D01*
X233486868Y-70520955D01*
X233571392Y-70642440D01*
X233615895Y-70743046D01*
X233729363Y-70983442D01*
X233771009Y-70914744D01*
X233785564Y-70743046D01*
X233835221Y-70553722D01*
X233898872Y-70626974D01*
X234110655Y-70973075D01*
X234422343Y-71305801D01*
X234737478Y-71538649D01*
X234959602Y-71585115D01*
X234964288Y-71582438D01*
X235145858Y-71625490D01*
X235257784Y-71861552D01*
X235363122Y-72256953D01*
X235482012Y-71836423D01*
X235569508Y-71554548D01*
X235604976Y-71586885D01*
X235617670Y-71794370D01*
X235689927Y-72090165D01*
X235790950Y-72172847D01*
X235940555Y-72030316D01*
X236020361Y-71794370D01*
X236093258Y-71415894D01*
X236116166Y-71794370D01*
X236189013Y-72053668D01*
X236430274Y-72158524D01*
X236727815Y-72172847D01*
X237163258Y-72227562D01*
X237315493Y-72402185D01*
X237316557Y-72425165D01*
X237388946Y-72655293D01*
X237542762Y-72630052D01*
X237682976Y-72380505D01*
X237702480Y-72299006D01*
X237775378Y-71920529D01*
X237798285Y-72299006D01*
X237837342Y-72503129D01*
X237974714Y-72616803D01*
X238287559Y-72666188D01*
X238853036Y-72677446D01*
X238914570Y-72677483D01*
X239506289Y-72687968D01*
X239836186Y-72734673D01*
X239978600Y-72840471D01*
X240007947Y-73013907D01*
X239962652Y-73217403D01*
X239771233Y-73317838D01*
X239350385Y-73349261D01*
X239184885Y-73350331D01*
X238605598Y-73307366D01*
X238309709Y-73170632D01*
X238264998Y-73098013D01*
X238069940Y-72887910D01*
X237818313Y-72865904D01*
X237660295Y-73031995D01*
X237652981Y-73098013D01*
X237518333Y-73321023D01*
X237400663Y-73350331D01*
X237177653Y-73215683D01*
X237148345Y-73098013D01*
X237013697Y-72875003D01*
X236896027Y-72845695D01*
X236673017Y-72711047D01*
X236643709Y-72593377D01*
X236507767Y-72403777D01*
X236186546Y-72327372D01*
X235809951Y-72359720D01*
X235507891Y-72496379D01*
X235413966Y-72635430D01*
X235350036Y-72842742D01*
X235323682Y-72723290D01*
X235317527Y-72635430D01*
X235187570Y-72410383D01*
X234801809Y-72341075D01*
X234793378Y-72341059D01*
X234392745Y-72265833D01*
X234288742Y-72088741D01*
X234271546Y-71974919D01*
X234185908Y-71896094D01*
X233980758Y-71846552D01*
X233605023Y-71820578D01*
X233007630Y-71812456D01*
X232137508Y-71816470D01*
X231875341Y-71818666D01*
X231154023Y-71817134D01*
X230701548Y-71788820D01*
X230450627Y-71721009D01*
X230333973Y-71600985D01*
X230306183Y-71522133D01*
X230131184Y-71292253D01*
X229726990Y-71232640D01*
X229691770Y-71233787D01*
X229158279Y-71254888D01*
X229055856Y-74110888D01*
X229020855Y-75052230D01*
X228988164Y-75867893D01*
X228960205Y-76502192D01*
X228939404Y-76899445D01*
X228929697Y-77008940D01*
X228763992Y-77034105D01*
X228372522Y-77049129D01*
X228149007Y-77050993D01*
X227650089Y-77084014D01*
X227422832Y-77196293D01*
X227392053Y-77303311D01*
X227292991Y-77469617D01*
X226956154Y-77545369D01*
X226635100Y-77555629D01*
X226121329Y-77517461D01*
X225896271Y-77394732D01*
X225878146Y-77321308D01*
X225742034Y-77063975D01*
X225615334Y-76986136D01*
X225457571Y-76850258D01*
X225419269Y-76553774D01*
X225466221Y-76127080D01*
X225579921Y-75368874D01*
X224719762Y-75368874D01*
X224208332Y-75385794D01*
X224137302Y-75405670D01*
X212213624Y-75405670D01*
X212156140Y-75240600D01*
X212058486Y-75237458D01*
X211866658Y-75138122D01*
X211808279Y-74948344D01*
X211771074Y-74553375D01*
X211711698Y-74391450D01*
X211590856Y-74359625D01*
X211583552Y-74359602D01*
X211415063Y-74496460D01*
X211179727Y-74842383D01*
X211070349Y-75042540D01*
X210721940Y-75725478D01*
X211432334Y-75673335D01*
X211886934Y-75594630D01*
X212174772Y-75459861D01*
X212213624Y-75405670D01*
X224137302Y-75405670D01*
X223950538Y-75457931D01*
X223864391Y-75617355D01*
X223859603Y-75705298D01*
X223788181Y-75993446D01*
X223635213Y-76003374D01*
X223492644Y-75745102D01*
X223473680Y-75663245D01*
X223417022Y-75419608D01*
X223387846Y-75497542D01*
X223378037Y-75621192D01*
X223358200Y-75733061D01*
X223287470Y-75816102D01*
X223123168Y-75873782D01*
X222822616Y-75909570D01*
X222343136Y-75926935D01*
X221642050Y-75929345D01*
X220676680Y-75920270D01*
X219835220Y-75909139D01*
X216315149Y-75860663D01*
X216241409Y-76245563D01*
X216167670Y-76630463D01*
X216144762Y-76251986D01*
X216033844Y-75954236D01*
X215713024Y-75873510D01*
X215360900Y-75980761D01*
X215231296Y-76251986D01*
X215158398Y-76630463D01*
X215135491Y-76251986D01*
X215048474Y-75976722D01*
X214768406Y-75878938D01*
X214607948Y-75873510D01*
X214239543Y-75925022D01*
X214099841Y-76127105D01*
X214086544Y-76251986D01*
X214066408Y-76502063D01*
X214015326Y-76449234D01*
X213935100Y-76209933D01*
X213832691Y-75970657D01*
X213785030Y-76063321D01*
X213783655Y-76083774D01*
X213695483Y-76333882D01*
X213611010Y-76378145D01*
X213442708Y-76239584D01*
X213378205Y-76083774D01*
X213314275Y-75876462D01*
X213287920Y-75995914D01*
X213281765Y-76083774D01*
X213123727Y-76331287D01*
X212925828Y-76378145D01*
X212649220Y-76486530D01*
X212589404Y-76637497D01*
X212481483Y-76944306D01*
X212257499Y-77253106D01*
X211925594Y-77609365D01*
X211772236Y-77204020D01*
X211711854Y-76766976D01*
X211788314Y-76588410D01*
X211847452Y-76415490D01*
X211679556Y-76378145D01*
X211383905Y-76510848D01*
X211304539Y-76630463D01*
X211102786Y-76853841D01*
X210991391Y-76882781D01*
X210747943Y-76747439D01*
X210678243Y-76630463D01*
X210494116Y-76396514D01*
X210307146Y-76455748D01*
X210217670Y-76756622D01*
X210196500Y-77016717D01*
X210144308Y-76951908D01*
X210091511Y-76792892D01*
X209951545Y-76573363D01*
X209652449Y-76461753D01*
X209183113Y-76422617D01*
X208670423Y-76433033D01*
X208427052Y-76522249D01*
X208384106Y-76638665D01*
X208312978Y-76865227D01*
X208257948Y-76895281D01*
X207588150Y-77025005D01*
X207203839Y-77246804D01*
X207160242Y-77308058D01*
X206954611Y-77534297D01*
X206763103Y-77435678D01*
X206575281Y-77008940D01*
X206399908Y-76462251D01*
X206382736Y-77008940D01*
X206321264Y-77401820D01*
X206136992Y-77547742D01*
X206041474Y-77555629D01*
X205737030Y-77687614D01*
X205640457Y-77850000D01*
X205576527Y-78057312D01*
X205550172Y-77937860D01*
X205544017Y-77850000D01*
X205493488Y-77704908D01*
X205322108Y-77616479D01*
X204964815Y-77571385D01*
X204356549Y-77556297D01*
X204107036Y-77555629D01*
X203400653Y-77565223D01*
X202962875Y-77602871D01*
X202726211Y-77681867D01*
X202623166Y-77815505D01*
X202612642Y-77850000D01*
X202548712Y-78057312D01*
X202522357Y-77937860D01*
G36*
X202522357Y-95937860D02*
X202516202Y-95850000D01*
X202419847Y-95599892D01*
X202328477Y-95555629D01*
X202177441Y-95695173D01*
X202143093Y-95850000D01*
X202091009Y-95910261D01*
X201983116Y-95692764D01*
X201949722Y-95594805D01*
X201859065Y-95196586D01*
X201870873Y-94951221D01*
X201880296Y-94938468D01*
X202081949Y-94894371D01*
X202547743Y-94856030D01*
X203205396Y-94827901D01*
X203879654Y-94815186D01*
X204705523Y-94803140D01*
X205254005Y-94777424D01*
X205584118Y-94727911D01*
X205754883Y-94644472D01*
X205825316Y-94516981D01*
X205833620Y-94479889D01*
X205909699Y-94273162D01*
X206033299Y-94379737D01*
X206043600Y-94395783D01*
X206151562Y-94478697D01*
X206193197Y-94253649D01*
X206194776Y-94167880D01*
X206261564Y-93817276D01*
X206494874Y-93706263D01*
X206533775Y-93705298D01*
X206807757Y-93810476D01*
X206870199Y-93957615D01*
X207010437Y-94163102D01*
X207206623Y-94209933D01*
X207480605Y-94104755D01*
X207543047Y-93957615D01*
X207608792Y-93824971D01*
X207846503Y-93746894D01*
X208316891Y-93711339D01*
X208814564Y-93705298D01*
X209437775Y-93686565D01*
X209850510Y-93635595D01*
X209993758Y-93560225D01*
X209989604Y-93549196D01*
X210041761Y-93381308D01*
X210206468Y-93293645D01*
X210450209Y-93118841D01*
X210678455Y-92815653D01*
X210828730Y-92496283D01*
X210838565Y-92272936D01*
X210794630Y-92237277D01*
X210190285Y-91923284D01*
X209714962Y-91474653D01*
X209475556Y-91005128D01*
X209444083Y-90574325D01*
X209613978Y-90317885D01*
X210032126Y-90198136D01*
X210508212Y-90175423D01*
X211046786Y-90100745D01*
X211414057Y-89910953D01*
X211544716Y-89650702D01*
X211496027Y-89500000D01*
X211493096Y-89232930D01*
X211580133Y-89079470D01*
X211696230Y-88795605D01*
X211668975Y-88666604D01*
X211675055Y-88413791D01*
X211822706Y-88117171D01*
X212025721Y-87654719D01*
X212084769Y-87275816D01*
X212138152Y-86933661D01*
X212362827Y-86816009D01*
X212521398Y-86808609D01*
X213004214Y-86888457D01*
X213404510Y-87040435D01*
X213896545Y-87280450D01*
X214271524Y-87447395D01*
X214654079Y-87612407D01*
X215203733Y-87856021D01*
X215639562Y-88052232D01*
X216071973Y-88238410D01*
X214439736Y-88238410D01*
X214355630Y-88154304D01*
X214271524Y-88238410D01*
X214355630Y-88322516D01*
X214439736Y-88238410D01*
X216071973Y-88238410D01*
X216180449Y-88285115D01*
X216561888Y-88386842D01*
X216927809Y-88371656D01*
X217422145Y-88253802D01*
X217489893Y-88235359D01*
X218188991Y-88051355D01*
X218914981Y-87870603D01*
X219191722Y-87805287D01*
X219654218Y-87673231D01*
X219942689Y-87541132D01*
X219990729Y-87482716D01*
X220143703Y-87391164D01*
X220547600Y-87277583D01*
X221119886Y-87164507D01*
X221210265Y-87149757D01*
X222165003Y-86979935D01*
X222835953Y-86789189D01*
X223274215Y-86524443D01*
X223530886Y-86132621D01*
X223657063Y-85560649D01*
X223703844Y-84755449D01*
X223708300Y-84555023D01*
X223742332Y-83842138D01*
X223803897Y-83345399D01*
X223879415Y-83088705D01*
X223955308Y-83095952D01*
X224017994Y-83391039D01*
X224052657Y-83949006D01*
X224082651Y-85042384D01*
X224181392Y-84118676D01*
X224268818Y-83551894D01*
X224396745Y-83248389D01*
X224588462Y-83136436D01*
X224797136Y-83136167D01*
X224768095Y-83313238D01*
X224714621Y-83418290D01*
X224598098Y-83800653D01*
X224533233Y-84331544D01*
X224528757Y-84484636D01*
X224451483Y-85104769D01*
X224262975Y-85770172D01*
X224187609Y-85954415D01*
X223984963Y-86507096D01*
X223989801Y-86825054D01*
X224023092Y-86871170D01*
X224133316Y-87154453D01*
X224186128Y-87641293D01*
X224184603Y-87817880D01*
X223691391Y-87817880D01*
X223629845Y-87679423D01*
X223579250Y-87705739D01*
X223559118Y-87905367D01*
X223579250Y-87930022D01*
X223679252Y-87906931D01*
X223691391Y-87817880D01*
X224184603Y-87817880D01*
X224181269Y-88203716D01*
X224142144Y-88521541D01*
X220611172Y-88521541D01*
X220475551Y-88424453D01*
X220451992Y-88412255D01*
X220105480Y-88312235D01*
X219661627Y-88362646D01*
X219317881Y-88460272D01*
X218692966Y-88648459D01*
X217967106Y-88853010D01*
X217635762Y-88941529D01*
X217358406Y-89015331D01*
X215533113Y-89015331D01*
X215136001Y-88668923D01*
X214786346Y-88388329D01*
X214627836Y-88332145D01*
X214607948Y-88387276D01*
X214715905Y-88490728D01*
X212589404Y-88490728D01*
X212527858Y-88352271D01*
X212477263Y-88378587D01*
X212457131Y-88578215D01*
X212477263Y-88602869D01*
X212577265Y-88579779D01*
X212589404Y-88490728D01*
X214715905Y-88490728D01*
X214735362Y-88509373D01*
X215044658Y-88717830D01*
X215070530Y-88733683D01*
X215533113Y-89015331D01*
X217358406Y-89015331D01*
X217081865Y-89088916D01*
X216878597Y-89145565D01*
X214079723Y-89145565D01*
X213924881Y-88980941D01*
X213838714Y-88914870D01*
X213489228Y-88698410D01*
X213314901Y-88752629D01*
X213262806Y-89100906D01*
X213262252Y-89169494D01*
X213284831Y-89513299D01*
X213317013Y-89532814D01*
X212475384Y-89532814D01*
X212459673Y-89292558D01*
X212377753Y-89039726D01*
X212299964Y-89102511D01*
X212236543Y-89256690D01*
X212123170Y-89639190D01*
X212096592Y-89814967D01*
X212141015Y-89957000D01*
X212319721Y-89850835D01*
X212475384Y-89532814D01*
X213317013Y-89532814D01*
X213404641Y-89585949D01*
X213640729Y-89483133D01*
X213995288Y-89283451D01*
X214079723Y-89145565D01*
X216878597Y-89145565D01*
X216640755Y-89211849D01*
X216468694Y-89263997D01*
X216452083Y-89376329D01*
X216721760Y-89582784D01*
X217029962Y-89752127D01*
X217833134Y-90158745D01*
X219331141Y-89381643D01*
X220003783Y-89027308D01*
X220414916Y-88788695D01*
X220604170Y-88631530D01*
X220611172Y-88521541D01*
X224142144Y-88521541D01*
X224118483Y-88713746D01*
X224027361Y-88996211D01*
X223871946Y-89201611D01*
X223656668Y-89194396D01*
X223413727Y-89080514D01*
X223117461Y-88957086D01*
X222886008Y-88994871D01*
X222598784Y-89231859D01*
X222446962Y-89385095D01*
X222072811Y-89873277D01*
X221977205Y-90308040D01*
X221981723Y-90351850D01*
X222071192Y-90653749D01*
X222301962Y-90733700D01*
X222526258Y-90711551D01*
X223048726Y-90694604D01*
X223436920Y-90746018D01*
X223714144Y-90865140D01*
X223834991Y-91107725D01*
X223859603Y-91524952D01*
X223876335Y-91950804D01*
X223966078Y-92120539D01*
X224188158Y-92114186D01*
X224280133Y-92092254D01*
X224600281Y-92064758D01*
X224699988Y-92229809D01*
X224700663Y-92257261D01*
X224590436Y-92455222D01*
X224222714Y-92526419D01*
X224131020Y-92527814D01*
X223770327Y-92503052D01*
X223585422Y-92366749D01*
X223488272Y-92025880D01*
X223454489Y-91812914D01*
X223347599Y-91098013D01*
X221420530Y-91098013D01*
X221367820Y-90551324D01*
X221276734Y-90158290D01*
X221143751Y-90012864D01*
X221031969Y-90137704D01*
X221000000Y-90419247D01*
X220997943Y-90425165D01*
X220663577Y-90425165D01*
X220579471Y-90341059D01*
X220495365Y-90425165D01*
X220579471Y-90509271D01*
X220663577Y-90425165D01*
X220997943Y-90425165D01*
X220939469Y-90593377D01*
X220327153Y-90593377D01*
X220243047Y-90509271D01*
X220158941Y-90593377D01*
X220243047Y-90677483D01*
X220327153Y-90593377D01*
X220939469Y-90593377D01*
X220852839Y-90842583D01*
X220584231Y-91008046D01*
X215953643Y-91008046D01*
X215838254Y-90837694D01*
X215556678Y-90546533D01*
X215205805Y-90223452D01*
X214882521Y-89957339D01*
X214683715Y-89837084D01*
X214676582Y-89836423D01*
X214474424Y-89874087D01*
X214064910Y-89969299D01*
X213841376Y-90024605D01*
X213094040Y-90212786D01*
X213094040Y-91053486D01*
X213105754Y-91547863D01*
X213166447Y-91781290D01*
X213314452Y-91829070D01*
X213472517Y-91797046D01*
X214519052Y-91521476D01*
X215261705Y-91308946D01*
X215725443Y-91151518D01*
X215935233Y-91041250D01*
X215953643Y-91008046D01*
X220584231Y-91008046D01*
X220430395Y-91102809D01*
X219833576Y-91182119D01*
X219464253Y-91228370D01*
X219327478Y-91414286D01*
X219316030Y-91560596D01*
X219287127Y-91983929D01*
X219220362Y-92502989D01*
X218475321Y-92502989D01*
X218446838Y-92133402D01*
X218377306Y-91979734D01*
X218208997Y-91924629D01*
X217877146Y-91980708D01*
X217835759Y-91994121D01*
X212357755Y-91994121D01*
X212328165Y-91293749D01*
X212304707Y-90837359D01*
X212281846Y-90543460D01*
X212275777Y-90503772D01*
X212114997Y-90475995D01*
X211720119Y-90468161D01*
X211192659Y-90476850D01*
X210634131Y-90498646D01*
X210146049Y-90530130D01*
X209829928Y-90567886D01*
X209767895Y-90588207D01*
X209779285Y-90755743D01*
X209826639Y-90902321D01*
X210098896Y-91241192D01*
X210591473Y-91567385D01*
X211191845Y-91819286D01*
X211701345Y-91928819D01*
X212357755Y-91994121D01*
X217835759Y-91994121D01*
X217321949Y-92160637D01*
X217047020Y-92261482D01*
X216515056Y-92424773D01*
X216040055Y-92514106D01*
X215953643Y-92519319D01*
X215467655Y-92551634D01*
X214860018Y-92626453D01*
X214217023Y-92728323D01*
X213624959Y-92841790D01*
X213170120Y-92951401D01*
X212938794Y-93041702D01*
X212925828Y-93061554D01*
X213083187Y-93115255D01*
X213511931Y-93159325D01*
X214147061Y-93189285D01*
X214923578Y-93200655D01*
X214944371Y-93200662D01*
X215802544Y-93195994D01*
X216379620Y-93176670D01*
X216730860Y-93134707D01*
X216911523Y-93062124D01*
X216976870Y-92950939D01*
X216982427Y-92906291D01*
X217005923Y-92698979D01*
X217055576Y-92818431D01*
X217078867Y-92906291D01*
X217244023Y-93142502D01*
X217473590Y-93187363D01*
X217626122Y-93030192D01*
X217635762Y-92948344D01*
X217770410Y-92725334D01*
X217888080Y-92696026D01*
X218108723Y-92831451D01*
X218140398Y-92958271D01*
X218214534Y-93116556D01*
X217972186Y-93116556D01*
X217888080Y-93032450D01*
X217803974Y-93116556D01*
X217888080Y-93200662D01*
X217972186Y-93116556D01*
X218214534Y-93116556D01*
X218221946Y-93132380D01*
X218308610Y-93116556D01*
X218425744Y-92888643D01*
X218475321Y-92502989D01*
X219220362Y-92502989D01*
X219219048Y-92513204D01*
X219209915Y-92569867D01*
X219159094Y-92980347D01*
X219233902Y-93157807D01*
X219497787Y-93199859D01*
X219619962Y-93200662D01*
X220055977Y-93112256D01*
X220211200Y-92906291D01*
X220275130Y-92698979D01*
X220301485Y-92818431D01*
X220307640Y-92906291D01*
X220428928Y-93138751D01*
X220648828Y-93191472D01*
X220814684Y-93052205D01*
X220831789Y-92948344D01*
X220914989Y-92721734D01*
X221085949Y-92748554D01*
X221220472Y-92990397D01*
X221284402Y-93197709D01*
X221310757Y-93078257D01*
X221316912Y-92990397D01*
X221454676Y-92755938D01*
X221725644Y-92705250D01*
X221981221Y-92838334D01*
X222061531Y-92990397D01*
X222125461Y-93197709D01*
X222151816Y-93078257D01*
X222157971Y-92990397D01*
X222203407Y-92854642D01*
X222358354Y-92767949D01*
X222683345Y-92719723D01*
X223238913Y-92699371D01*
X223839984Y-92696026D01*
X224650969Y-92705058D01*
X225184119Y-92755876D01*
X225497966Y-92884065D01*
X225651043Y-93125208D01*
X225701880Y-93514890D01*
X225707637Y-93831457D01*
X225772822Y-94126923D01*
X225878146Y-94209933D01*
X226026576Y-94349301D01*
X226058181Y-94504304D01*
X226080479Y-94702125D01*
X226151815Y-94589093D01*
X226190907Y-94491857D01*
X226359682Y-94237566D01*
X226466888Y-94185038D01*
X226648875Y-94320703D01*
X226742868Y-94491857D01*
X226838967Y-94700781D01*
X226871046Y-94597448D01*
X226875595Y-94504304D01*
X226947275Y-94322515D01*
X227195537Y-94233659D01*
X227698835Y-94209936D01*
X227706329Y-94209933D01*
X228525240Y-94209933D01*
X228668214Y-93495033D01*
X228723882Y-93047113D01*
X228769546Y-92357176D01*
X228800465Y-91519589D01*
X228811896Y-90635430D01*
X228812604Y-88490728D01*
X229537409Y-88490728D01*
X230096264Y-88549778D01*
X230353452Y-88729769D01*
X230359038Y-88743046D01*
X230524150Y-88965638D01*
X230606077Y-88995364D01*
X230739427Y-88858855D01*
X230756292Y-88743046D01*
X230890940Y-88520036D01*
X231008610Y-88490728D01*
X231231620Y-88625376D01*
X231260928Y-88743046D01*
X231379770Y-88947390D01*
X231639170Y-88983426D01*
X231893441Y-88859602D01*
X231986034Y-88700993D01*
X232049964Y-88493681D01*
X232076319Y-88613133D01*
X232082474Y-88700993D01*
X232177118Y-88899200D01*
X232478477Y-88984443D01*
X232774835Y-88995364D01*
X233227519Y-88960797D01*
X233427736Y-88834466D01*
X233459505Y-88700993D01*
X233486868Y-88520955D01*
X233571392Y-88642440D01*
X233615895Y-88743046D01*
X233729363Y-88983442D01*
X233771009Y-88914744D01*
X233785564Y-88743046D01*
X233835221Y-88553722D01*
X233898872Y-88626974D01*
X234110655Y-88973075D01*
X234422343Y-89305801D01*
X234737478Y-89538649D01*
X234959602Y-89585115D01*
X234964288Y-89582438D01*
X235145858Y-89625490D01*
X235257784Y-89861552D01*
X235363122Y-90256953D01*
X235482012Y-89836423D01*
X235569508Y-89554548D01*
X235604976Y-89586885D01*
X235617670Y-89794370D01*
X235689927Y-90090165D01*
X235790950Y-90172847D01*
X235940555Y-90030316D01*
X236020361Y-89794370D01*
X236093258Y-89415894D01*
X236116166Y-89794370D01*
X236189013Y-90053668D01*
X236430274Y-90158524D01*
X236727815Y-90172847D01*
X237163258Y-90227562D01*
X237315493Y-90402185D01*
X237316557Y-90425165D01*
X237388946Y-90655293D01*
X237542762Y-90630052D01*
X237682976Y-90380505D01*
X237702480Y-90299006D01*
X237775378Y-89920529D01*
X237798285Y-90299006D01*
X237837342Y-90503129D01*
X237974714Y-90616803D01*
X238287559Y-90666188D01*
X238853036Y-90677446D01*
X238914570Y-90677483D01*
X239506289Y-90687968D01*
X239836186Y-90734673D01*
X239978600Y-90840471D01*
X240007947Y-91013907D01*
X239962652Y-91217403D01*
X239771233Y-91317838D01*
X239350385Y-91349261D01*
X239184885Y-91350331D01*
X238605598Y-91307366D01*
X238309709Y-91170632D01*
X238264998Y-91098013D01*
X238069940Y-90887910D01*
X237818313Y-90865904D01*
X237660295Y-91031995D01*
X237652981Y-91098013D01*
X237518333Y-91321023D01*
X237400663Y-91350331D01*
X237177653Y-91215683D01*
X237148345Y-91098013D01*
X237013697Y-90875003D01*
X236896027Y-90845695D01*
X236673017Y-90711047D01*
X236643709Y-90593377D01*
X236507767Y-90403777D01*
X236186546Y-90327372D01*
X235809951Y-90359720D01*
X235507891Y-90496379D01*
X235413966Y-90635430D01*
X235350036Y-90842742D01*
X235323682Y-90723290D01*
X235317527Y-90635430D01*
X235187570Y-90410383D01*
X234801809Y-90341075D01*
X234793378Y-90341059D01*
X234392745Y-90265833D01*
X234288742Y-90088741D01*
X234271546Y-89974919D01*
X234185908Y-89896094D01*
X233980758Y-89846552D01*
X233605023Y-89820578D01*
X233007630Y-89812456D01*
X232137508Y-89816470D01*
X231875341Y-89818666D01*
X231154023Y-89817134D01*
X230701548Y-89788820D01*
X230450627Y-89721009D01*
X230333973Y-89600985D01*
X230306183Y-89522133D01*
X230131184Y-89292253D01*
X229726990Y-89232640D01*
X229691770Y-89233787D01*
X229158279Y-89254888D01*
X229055856Y-92110888D01*
X229020855Y-93052230D01*
X228988164Y-93867893D01*
X228960205Y-94502192D01*
X228939404Y-94899445D01*
X228929697Y-95008940D01*
X228763992Y-95034105D01*
X228372522Y-95049129D01*
X228149007Y-95050993D01*
X227650089Y-95084014D01*
X227422832Y-95196293D01*
X227392053Y-95303311D01*
X227292991Y-95469617D01*
X226956154Y-95545369D01*
X226635100Y-95555629D01*
X226121329Y-95517461D01*
X225896271Y-95394732D01*
X225878146Y-95321308D01*
X225742034Y-95063975D01*
X225615334Y-94986136D01*
X225457571Y-94850258D01*
X225419269Y-94553774D01*
X225466221Y-94127080D01*
X225579921Y-93368874D01*
X224719762Y-93368874D01*
X224208332Y-93385794D01*
X224137302Y-93405670D01*
X212213624Y-93405670D01*
X212156140Y-93240600D01*
X212058486Y-93237458D01*
X211866658Y-93138122D01*
X211808279Y-92948344D01*
X211771074Y-92553375D01*
X211711698Y-92391450D01*
X211590856Y-92359625D01*
X211583552Y-92359602D01*
X211415063Y-92496460D01*
X211179727Y-92842383D01*
X211070349Y-93042540D01*
X210721940Y-93725478D01*
X211432334Y-93673335D01*
X211886934Y-93594630D01*
X212174772Y-93459861D01*
X212213624Y-93405670D01*
X224137302Y-93405670D01*
X223950538Y-93457931D01*
X223864391Y-93617355D01*
X223859603Y-93705298D01*
X223788181Y-93993446D01*
X223635213Y-94003374D01*
X223492644Y-93745102D01*
X223473680Y-93663245D01*
X223417022Y-93419608D01*
X223387846Y-93497542D01*
X223378037Y-93621192D01*
X223358200Y-93733061D01*
X223287470Y-93816102D01*
X223123168Y-93873782D01*
X222822616Y-93909570D01*
X222343136Y-93926935D01*
X221642050Y-93929345D01*
X220676680Y-93920270D01*
X219835220Y-93909139D01*
X216315149Y-93860663D01*
X216241409Y-94245563D01*
X216167670Y-94630463D01*
X216144762Y-94251986D01*
X216033844Y-93954236D01*
X215713024Y-93873510D01*
X215360900Y-93980761D01*
X215231296Y-94251986D01*
X215158398Y-94630463D01*
X215135491Y-94251986D01*
X215048474Y-93976722D01*
X214768406Y-93878938D01*
X214607948Y-93873510D01*
X214239543Y-93925022D01*
X214099841Y-94127105D01*
X214086544Y-94251986D01*
X214066408Y-94502063D01*
X214015326Y-94449234D01*
X213935100Y-94209933D01*
X213832691Y-93970657D01*
X213785030Y-94063321D01*
X213783655Y-94083774D01*
X213695483Y-94333882D01*
X213611010Y-94378145D01*
X213442708Y-94239584D01*
X213378205Y-94083774D01*
X213314275Y-93876462D01*
X213287920Y-93995914D01*
X213281765Y-94083774D01*
X213123727Y-94331287D01*
X212925828Y-94378145D01*
X212649220Y-94486530D01*
X212589404Y-94637497D01*
X212481483Y-94944306D01*
X212257499Y-95253106D01*
X211925594Y-95609365D01*
X211772236Y-95204020D01*
X211711854Y-94766976D01*
X211788314Y-94588410D01*
X211847452Y-94415490D01*
X211679556Y-94378145D01*
X211383905Y-94510848D01*
X211304539Y-94630463D01*
X211102786Y-94853841D01*
X210991391Y-94882781D01*
X210747943Y-94747439D01*
X210678243Y-94630463D01*
X210494116Y-94396514D01*
X210307146Y-94455748D01*
X210217670Y-94756622D01*
X210196500Y-95016717D01*
X210144308Y-94951908D01*
X210091511Y-94792892D01*
X209951545Y-94573363D01*
X209652449Y-94461753D01*
X209183113Y-94422617D01*
X208670423Y-94433033D01*
X208427052Y-94522249D01*
X208384106Y-94638665D01*
X208312978Y-94865227D01*
X208257948Y-94895281D01*
X207588150Y-95025005D01*
X207203839Y-95246804D01*
X207160242Y-95308058D01*
X206954611Y-95534297D01*
X206763103Y-95435678D01*
X206575281Y-95008940D01*
X206399908Y-94462251D01*
X206382736Y-95008940D01*
X206321264Y-95401820D01*
X206136992Y-95547742D01*
X206041474Y-95555629D01*
X205737030Y-95687614D01*
X205640457Y-95850000D01*
X205576527Y-96057312D01*
X205550172Y-95937860D01*
X205544017Y-95850000D01*
X205493488Y-95704908D01*
X205322108Y-95616479D01*
X204964815Y-95571385D01*
X204356549Y-95556297D01*
X204107036Y-95555629D01*
X203400653Y-95565223D01*
X202962875Y-95602871D01*
X202726211Y-95681867D01*
X202623166Y-95815505D01*
X202612642Y-95850000D01*
X202548712Y-96057312D01*
X202522357Y-95937860D01*
X202522357Y-95937860D01*
G37*
X202522357Y-95937860D02*
X202516202Y-95850000D01*
X202419847Y-95599892D01*
X202328477Y-95555629D01*
X202177441Y-95695173D01*
X202143093Y-95850000D01*
X202091009Y-95910261D01*
X201983116Y-95692764D01*
X201949722Y-95594805D01*
X201859065Y-95196586D01*
X201870873Y-94951221D01*
X201880296Y-94938468D01*
X202081949Y-94894371D01*
X202547743Y-94856030D01*
X203205396Y-94827901D01*
X203879654Y-94815186D01*
X204705523Y-94803140D01*
X205254005Y-94777424D01*
X205584118Y-94727911D01*
X205754883Y-94644472D01*
X205825316Y-94516981D01*
X205833620Y-94479889D01*
X205909699Y-94273162D01*
X206033299Y-94379737D01*
X206043600Y-94395783D01*
X206151562Y-94478697D01*
X206193197Y-94253649D01*
X206194776Y-94167880D01*
X206261564Y-93817276D01*
X206494874Y-93706263D01*
X206533775Y-93705298D01*
X206807757Y-93810476D01*
X206870199Y-93957615D01*
X207010437Y-94163102D01*
X207206623Y-94209933D01*
X207480605Y-94104755D01*
X207543047Y-93957615D01*
X207608792Y-93824971D01*
X207846503Y-93746894D01*
X208316891Y-93711339D01*
X208814564Y-93705298D01*
X209437775Y-93686565D01*
X209850510Y-93635595D01*
X209993758Y-93560225D01*
X209989604Y-93549196D01*
X210041761Y-93381308D01*
X210206468Y-93293645D01*
X210450209Y-93118841D01*
X210678455Y-92815653D01*
X210828730Y-92496283D01*
X210838565Y-92272936D01*
X210794630Y-92237277D01*
X210190285Y-91923284D01*
X209714962Y-91474653D01*
X209475556Y-91005128D01*
X209444083Y-90574325D01*
X209613978Y-90317885D01*
X210032126Y-90198136D01*
X210508212Y-90175423D01*
X211046786Y-90100745D01*
X211414057Y-89910953D01*
X211544716Y-89650702D01*
X211496027Y-89500000D01*
X211493096Y-89232930D01*
X211580133Y-89079470D01*
X211696230Y-88795605D01*
X211668975Y-88666604D01*
X211675055Y-88413791D01*
X211822706Y-88117171D01*
X212025721Y-87654719D01*
X212084769Y-87275816D01*
X212138152Y-86933661D01*
X212362827Y-86816009D01*
X212521398Y-86808609D01*
X213004214Y-86888457D01*
X213404510Y-87040435D01*
X213896545Y-87280450D01*
X214271524Y-87447395D01*
X214654079Y-87612407D01*
X215203733Y-87856021D01*
X215639562Y-88052232D01*
X216071973Y-88238410D01*
X214439736Y-88238410D01*
X214355630Y-88154304D01*
X214271524Y-88238410D01*
X214355630Y-88322516D01*
X214439736Y-88238410D01*
X216071973Y-88238410D01*
X216180449Y-88285115D01*
X216561888Y-88386842D01*
X216927809Y-88371656D01*
X217422145Y-88253802D01*
X217489893Y-88235359D01*
X218188991Y-88051355D01*
X218914981Y-87870603D01*
X219191722Y-87805287D01*
X219654218Y-87673231D01*
X219942689Y-87541132D01*
X219990729Y-87482716D01*
X220143703Y-87391164D01*
X220547600Y-87277583D01*
X221119886Y-87164507D01*
X221210265Y-87149757D01*
X222165003Y-86979935D01*
X222835953Y-86789189D01*
X223274215Y-86524443D01*
X223530886Y-86132621D01*
X223657063Y-85560649D01*
X223703844Y-84755449D01*
X223708300Y-84555023D01*
X223742332Y-83842138D01*
X223803897Y-83345399D01*
X223879415Y-83088705D01*
X223955308Y-83095952D01*
X224017994Y-83391039D01*
X224052657Y-83949006D01*
X224082651Y-85042384D01*
X224181392Y-84118676D01*
X224268818Y-83551894D01*
X224396745Y-83248389D01*
X224588462Y-83136436D01*
X224797136Y-83136167D01*
X224768095Y-83313238D01*
X224714621Y-83418290D01*
X224598098Y-83800653D01*
X224533233Y-84331544D01*
X224528757Y-84484636D01*
X224451483Y-85104769D01*
X224262975Y-85770172D01*
X224187609Y-85954415D01*
X223984963Y-86507096D01*
X223989801Y-86825054D01*
X224023092Y-86871170D01*
X224133316Y-87154453D01*
X224186128Y-87641293D01*
X224184603Y-87817880D01*
X223691391Y-87817880D01*
X223629845Y-87679423D01*
X223579250Y-87705739D01*
X223559118Y-87905367D01*
X223579250Y-87930022D01*
X223679252Y-87906931D01*
X223691391Y-87817880D01*
X224184603Y-87817880D01*
X224181269Y-88203716D01*
X224142144Y-88521541D01*
X220611172Y-88521541D01*
X220475551Y-88424453D01*
X220451992Y-88412255D01*
X220105480Y-88312235D01*
X219661627Y-88362646D01*
X219317881Y-88460272D01*
X218692966Y-88648459D01*
X217967106Y-88853010D01*
X217635762Y-88941529D01*
X217358406Y-89015331D01*
X215533113Y-89015331D01*
X215136001Y-88668923D01*
X214786346Y-88388329D01*
X214627836Y-88332145D01*
X214607948Y-88387276D01*
X214715905Y-88490728D01*
X212589404Y-88490728D01*
X212527858Y-88352271D01*
X212477263Y-88378587D01*
X212457131Y-88578215D01*
X212477263Y-88602869D01*
X212577265Y-88579779D01*
X212589404Y-88490728D01*
X214715905Y-88490728D01*
X214735362Y-88509373D01*
X215044658Y-88717830D01*
X215070530Y-88733683D01*
X215533113Y-89015331D01*
X217358406Y-89015331D01*
X217081865Y-89088916D01*
X216878597Y-89145565D01*
X214079723Y-89145565D01*
X213924881Y-88980941D01*
X213838714Y-88914870D01*
X213489228Y-88698410D01*
X213314901Y-88752629D01*
X213262806Y-89100906D01*
X213262252Y-89169494D01*
X213284831Y-89513299D01*
X213317013Y-89532814D01*
X212475384Y-89532814D01*
X212459673Y-89292558D01*
X212377753Y-89039726D01*
X212299964Y-89102511D01*
X212236543Y-89256690D01*
X212123170Y-89639190D01*
X212096592Y-89814967D01*
X212141015Y-89957000D01*
X212319721Y-89850835D01*
X212475384Y-89532814D01*
X213317013Y-89532814D01*
X213404641Y-89585949D01*
X213640729Y-89483133D01*
X213995288Y-89283451D01*
X214079723Y-89145565D01*
X216878597Y-89145565D01*
X216640755Y-89211849D01*
X216468694Y-89263997D01*
X216452083Y-89376329D01*
X216721760Y-89582784D01*
X217029962Y-89752127D01*
X217833134Y-90158745D01*
X219331141Y-89381643D01*
X220003783Y-89027308D01*
X220414916Y-88788695D01*
X220604170Y-88631530D01*
X220611172Y-88521541D01*
X224142144Y-88521541D01*
X224118483Y-88713746D01*
X224027361Y-88996211D01*
X223871946Y-89201611D01*
X223656668Y-89194396D01*
X223413727Y-89080514D01*
X223117461Y-88957086D01*
X222886008Y-88994871D01*
X222598784Y-89231859D01*
X222446962Y-89385095D01*
X222072811Y-89873277D01*
X221977205Y-90308040D01*
X221981723Y-90351850D01*
X222071192Y-90653749D01*
X222301962Y-90733700D01*
X222526258Y-90711551D01*
X223048726Y-90694604D01*
X223436920Y-90746018D01*
X223714144Y-90865140D01*
X223834991Y-91107725D01*
X223859603Y-91524952D01*
X223876335Y-91950804D01*
X223966078Y-92120539D01*
X224188158Y-92114186D01*
X224280133Y-92092254D01*
X224600281Y-92064758D01*
X224699988Y-92229809D01*
X224700663Y-92257261D01*
X224590436Y-92455222D01*
X224222714Y-92526419D01*
X224131020Y-92527814D01*
X223770327Y-92503052D01*
X223585422Y-92366749D01*
X223488272Y-92025880D01*
X223454489Y-91812914D01*
X223347599Y-91098013D01*
X221420530Y-91098013D01*
X221367820Y-90551324D01*
X221276734Y-90158290D01*
X221143751Y-90012864D01*
X221031969Y-90137704D01*
X221000000Y-90419247D01*
X220997943Y-90425165D01*
X220663577Y-90425165D01*
X220579471Y-90341059D01*
X220495365Y-90425165D01*
X220579471Y-90509271D01*
X220663577Y-90425165D01*
X220997943Y-90425165D01*
X220939469Y-90593377D01*
X220327153Y-90593377D01*
X220243047Y-90509271D01*
X220158941Y-90593377D01*
X220243047Y-90677483D01*
X220327153Y-90593377D01*
X220939469Y-90593377D01*
X220852839Y-90842583D01*
X220584231Y-91008046D01*
X215953643Y-91008046D01*
X215838254Y-90837694D01*
X215556678Y-90546533D01*
X215205805Y-90223452D01*
X214882521Y-89957339D01*
X214683715Y-89837084D01*
X214676582Y-89836423D01*
X214474424Y-89874087D01*
X214064910Y-89969299D01*
X213841376Y-90024605D01*
X213094040Y-90212786D01*
X213094040Y-91053486D01*
X213105754Y-91547863D01*
X213166447Y-91781290D01*
X213314452Y-91829070D01*
X213472517Y-91797046D01*
X214519052Y-91521476D01*
X215261705Y-91308946D01*
X215725443Y-91151518D01*
X215935233Y-91041250D01*
X215953643Y-91008046D01*
X220584231Y-91008046D01*
X220430395Y-91102809D01*
X219833576Y-91182119D01*
X219464253Y-91228370D01*
X219327478Y-91414286D01*
X219316030Y-91560596D01*
X219287127Y-91983929D01*
X219220362Y-92502989D01*
X218475321Y-92502989D01*
X218446838Y-92133402D01*
X218377306Y-91979734D01*
X218208997Y-91924629D01*
X217877146Y-91980708D01*
X217835759Y-91994121D01*
X212357755Y-91994121D01*
X212328165Y-91293749D01*
X212304707Y-90837359D01*
X212281846Y-90543460D01*
X212275777Y-90503772D01*
X212114997Y-90475995D01*
X211720119Y-90468161D01*
X211192659Y-90476850D01*
X210634131Y-90498646D01*
X210146049Y-90530130D01*
X209829928Y-90567886D01*
X209767895Y-90588207D01*
X209779285Y-90755743D01*
X209826639Y-90902321D01*
X210098896Y-91241192D01*
X210591473Y-91567385D01*
X211191845Y-91819286D01*
X211701345Y-91928819D01*
X212357755Y-91994121D01*
X217835759Y-91994121D01*
X217321949Y-92160637D01*
X217047020Y-92261482D01*
X216515056Y-92424773D01*
X216040055Y-92514106D01*
X215953643Y-92519319D01*
X215467655Y-92551634D01*
X214860018Y-92626453D01*
X214217023Y-92728323D01*
X213624959Y-92841790D01*
X213170120Y-92951401D01*
X212938794Y-93041702D01*
X212925828Y-93061554D01*
X213083187Y-93115255D01*
X213511931Y-93159325D01*
X214147061Y-93189285D01*
X214923578Y-93200655D01*
X214944371Y-93200662D01*
X215802544Y-93195994D01*
X216379620Y-93176670D01*
X216730860Y-93134707D01*
X216911523Y-93062124D01*
X216976870Y-92950939D01*
X216982427Y-92906291D01*
X217005923Y-92698979D01*
X217055576Y-92818431D01*
X217078867Y-92906291D01*
X217244023Y-93142502D01*
X217473590Y-93187363D01*
X217626122Y-93030192D01*
X217635762Y-92948344D01*
X217770410Y-92725334D01*
X217888080Y-92696026D01*
X218108723Y-92831451D01*
X218140398Y-92958271D01*
X218214534Y-93116556D01*
X217972186Y-93116556D01*
X217888080Y-93032450D01*
X217803974Y-93116556D01*
X217888080Y-93200662D01*
X217972186Y-93116556D01*
X218214534Y-93116556D01*
X218221946Y-93132380D01*
X218308610Y-93116556D01*
X218425744Y-92888643D01*
X218475321Y-92502989D01*
X219220362Y-92502989D01*
X219219048Y-92513204D01*
X219209915Y-92569867D01*
X219159094Y-92980347D01*
X219233902Y-93157807D01*
X219497787Y-93199859D01*
X219619962Y-93200662D01*
X220055977Y-93112256D01*
X220211200Y-92906291D01*
X220275130Y-92698979D01*
X220301485Y-92818431D01*
X220307640Y-92906291D01*
X220428928Y-93138751D01*
X220648828Y-93191472D01*
X220814684Y-93052205D01*
X220831789Y-92948344D01*
X220914989Y-92721734D01*
X221085949Y-92748554D01*
X221220472Y-92990397D01*
X221284402Y-93197709D01*
X221310757Y-93078257D01*
X221316912Y-92990397D01*
X221454676Y-92755938D01*
X221725644Y-92705250D01*
X221981221Y-92838334D01*
X222061531Y-92990397D01*
X222125461Y-93197709D01*
X222151816Y-93078257D01*
X222157971Y-92990397D01*
X222203407Y-92854642D01*
X222358354Y-92767949D01*
X222683345Y-92719723D01*
X223238913Y-92699371D01*
X223839984Y-92696026D01*
X224650969Y-92705058D01*
X225184119Y-92755876D01*
X225497966Y-92884065D01*
X225651043Y-93125208D01*
X225701880Y-93514890D01*
X225707637Y-93831457D01*
X225772822Y-94126923D01*
X225878146Y-94209933D01*
X226026576Y-94349301D01*
X226058181Y-94504304D01*
X226080479Y-94702125D01*
X226151815Y-94589093D01*
X226190907Y-94491857D01*
X226359682Y-94237566D01*
X226466888Y-94185038D01*
X226648875Y-94320703D01*
X226742868Y-94491857D01*
X226838967Y-94700781D01*
X226871046Y-94597448D01*
X226875595Y-94504304D01*
X226947275Y-94322515D01*
X227195537Y-94233659D01*
X227698835Y-94209936D01*
X227706329Y-94209933D01*
X228525240Y-94209933D01*
X228668214Y-93495033D01*
X228723882Y-93047113D01*
X228769546Y-92357176D01*
X228800465Y-91519589D01*
X228811896Y-90635430D01*
X228812604Y-88490728D01*
X229537409Y-88490728D01*
X230096264Y-88549778D01*
X230353452Y-88729769D01*
X230359038Y-88743046D01*
X230524150Y-88965638D01*
X230606077Y-88995364D01*
X230739427Y-88858855D01*
X230756292Y-88743046D01*
X230890940Y-88520036D01*
X231008610Y-88490728D01*
X231231620Y-88625376D01*
X231260928Y-88743046D01*
X231379770Y-88947390D01*
X231639170Y-88983426D01*
X231893441Y-88859602D01*
X231986034Y-88700993D01*
X232049964Y-88493681D01*
X232076319Y-88613133D01*
X232082474Y-88700993D01*
X232177118Y-88899200D01*
X232478477Y-88984443D01*
X232774835Y-88995364D01*
X233227519Y-88960797D01*
X233427736Y-88834466D01*
X233459505Y-88700993D01*
X233486868Y-88520955D01*
X233571392Y-88642440D01*
X233615895Y-88743046D01*
X233729363Y-88983442D01*
X233771009Y-88914744D01*
X233785564Y-88743046D01*
X233835221Y-88553722D01*
X233898872Y-88626974D01*
X234110655Y-88973075D01*
X234422343Y-89305801D01*
X234737478Y-89538649D01*
X234959602Y-89585115D01*
X234964288Y-89582438D01*
X235145858Y-89625490D01*
X235257784Y-89861552D01*
X235363122Y-90256953D01*
X235482012Y-89836423D01*
X235569508Y-89554548D01*
X235604976Y-89586885D01*
X235617670Y-89794370D01*
X235689927Y-90090165D01*
X235790950Y-90172847D01*
X235940555Y-90030316D01*
X236020361Y-89794370D01*
X236093258Y-89415894D01*
X236116166Y-89794370D01*
X236189013Y-90053668D01*
X236430274Y-90158524D01*
X236727815Y-90172847D01*
X237163258Y-90227562D01*
X237315493Y-90402185D01*
X237316557Y-90425165D01*
X237388946Y-90655293D01*
X237542762Y-90630052D01*
X237682976Y-90380505D01*
X237702480Y-90299006D01*
X237775378Y-89920529D01*
X237798285Y-90299006D01*
X237837342Y-90503129D01*
X237974714Y-90616803D01*
X238287559Y-90666188D01*
X238853036Y-90677446D01*
X238914570Y-90677483D01*
X239506289Y-90687968D01*
X239836186Y-90734673D01*
X239978600Y-90840471D01*
X240007947Y-91013907D01*
X239962652Y-91217403D01*
X239771233Y-91317838D01*
X239350385Y-91349261D01*
X239184885Y-91350331D01*
X238605598Y-91307366D01*
X238309709Y-91170632D01*
X238264998Y-91098013D01*
X238069940Y-90887910D01*
X237818313Y-90865904D01*
X237660295Y-91031995D01*
X237652981Y-91098013D01*
X237518333Y-91321023D01*
X237400663Y-91350331D01*
X237177653Y-91215683D01*
X237148345Y-91098013D01*
X237013697Y-90875003D01*
X236896027Y-90845695D01*
X236673017Y-90711047D01*
X236643709Y-90593377D01*
X236507767Y-90403777D01*
X236186546Y-90327372D01*
X235809951Y-90359720D01*
X235507891Y-90496379D01*
X235413966Y-90635430D01*
X235350036Y-90842742D01*
X235323682Y-90723290D01*
X235317527Y-90635430D01*
X235187570Y-90410383D01*
X234801809Y-90341075D01*
X234793378Y-90341059D01*
X234392745Y-90265833D01*
X234288742Y-90088741D01*
X234271546Y-89974919D01*
X234185908Y-89896094D01*
X233980758Y-89846552D01*
X233605023Y-89820578D01*
X233007630Y-89812456D01*
X232137508Y-89816470D01*
X231875341Y-89818666D01*
X231154023Y-89817134D01*
X230701548Y-89788820D01*
X230450627Y-89721009D01*
X230333973Y-89600985D01*
X230306183Y-89522133D01*
X230131184Y-89292253D01*
X229726990Y-89232640D01*
X229691770Y-89233787D01*
X229158279Y-89254888D01*
X229055856Y-92110888D01*
X229020855Y-93052230D01*
X228988164Y-93867893D01*
X228960205Y-94502192D01*
X228939404Y-94899445D01*
X228929697Y-95008940D01*
X228763992Y-95034105D01*
X228372522Y-95049129D01*
X228149007Y-95050993D01*
X227650089Y-95084014D01*
X227422832Y-95196293D01*
X227392053Y-95303311D01*
X227292991Y-95469617D01*
X226956154Y-95545369D01*
X226635100Y-95555629D01*
X226121329Y-95517461D01*
X225896271Y-95394732D01*
X225878146Y-95321308D01*
X225742034Y-95063975D01*
X225615334Y-94986136D01*
X225457571Y-94850258D01*
X225419269Y-94553774D01*
X225466221Y-94127080D01*
X225579921Y-93368874D01*
X224719762Y-93368874D01*
X224208332Y-93385794D01*
X224137302Y-93405670D01*
X212213624Y-93405670D01*
X212156140Y-93240600D01*
X212058486Y-93237458D01*
X211866658Y-93138122D01*
X211808279Y-92948344D01*
X211771074Y-92553375D01*
X211711698Y-92391450D01*
X211590856Y-92359625D01*
X211583552Y-92359602D01*
X211415063Y-92496460D01*
X211179727Y-92842383D01*
X211070349Y-93042540D01*
X210721940Y-93725478D01*
X211432334Y-93673335D01*
X211886934Y-93594630D01*
X212174772Y-93459861D01*
X212213624Y-93405670D01*
X224137302Y-93405670D01*
X223950538Y-93457931D01*
X223864391Y-93617355D01*
X223859603Y-93705298D01*
X223788181Y-93993446D01*
X223635213Y-94003374D01*
X223492644Y-93745102D01*
X223473680Y-93663245D01*
X223417022Y-93419608D01*
X223387846Y-93497542D01*
X223378037Y-93621192D01*
X223358200Y-93733061D01*
X223287470Y-93816102D01*
X223123168Y-93873782D01*
X222822616Y-93909570D01*
X222343136Y-93926935D01*
X221642050Y-93929345D01*
X220676680Y-93920270D01*
X219835220Y-93909139D01*
X216315149Y-93860663D01*
X216241409Y-94245563D01*
X216167670Y-94630463D01*
X216144762Y-94251986D01*
X216033844Y-93954236D01*
X215713024Y-93873510D01*
X215360900Y-93980761D01*
X215231296Y-94251986D01*
X215158398Y-94630463D01*
X215135491Y-94251986D01*
X215048474Y-93976722D01*
X214768406Y-93878938D01*
X214607948Y-93873510D01*
X214239543Y-93925022D01*
X214099841Y-94127105D01*
X214086544Y-94251986D01*
X214066408Y-94502063D01*
X214015326Y-94449234D01*
X213935100Y-94209933D01*
X213832691Y-93970657D01*
X213785030Y-94063321D01*
X213783655Y-94083774D01*
X213695483Y-94333882D01*
X213611010Y-94378145D01*
X213442708Y-94239584D01*
X213378205Y-94083774D01*
X213314275Y-93876462D01*
X213287920Y-93995914D01*
X213281765Y-94083774D01*
X213123727Y-94331287D01*
X212925828Y-94378145D01*
X212649220Y-94486530D01*
X212589404Y-94637497D01*
X212481483Y-94944306D01*
X212257499Y-95253106D01*
X211925594Y-95609365D01*
X211772236Y-95204020D01*
X211711854Y-94766976D01*
X211788314Y-94588410D01*
X211847452Y-94415490D01*
X211679556Y-94378145D01*
X211383905Y-94510848D01*
X211304539Y-94630463D01*
X211102786Y-94853841D01*
X210991391Y-94882781D01*
X210747943Y-94747439D01*
X210678243Y-94630463D01*
X210494116Y-94396514D01*
X210307146Y-94455748D01*
X210217670Y-94756622D01*
X210196500Y-95016717D01*
X210144308Y-94951908D01*
X210091511Y-94792892D01*
X209951545Y-94573363D01*
X209652449Y-94461753D01*
X209183113Y-94422617D01*
X208670423Y-94433033D01*
X208427052Y-94522249D01*
X208384106Y-94638665D01*
X208312978Y-94865227D01*
X208257948Y-94895281D01*
X207588150Y-95025005D01*
X207203839Y-95246804D01*
X207160242Y-95308058D01*
X206954611Y-95534297D01*
X206763103Y-95435678D01*
X206575281Y-95008940D01*
X206399908Y-94462251D01*
X206382736Y-95008940D01*
X206321264Y-95401820D01*
X206136992Y-95547742D01*
X206041474Y-95555629D01*
X205737030Y-95687614D01*
X205640457Y-95850000D01*
X205576527Y-96057312D01*
X205550172Y-95937860D01*
X205544017Y-95850000D01*
X205493488Y-95704908D01*
X205322108Y-95616479D01*
X204964815Y-95571385D01*
X204356549Y-95556297D01*
X204107036Y-95555629D01*
X203400653Y-95565223D01*
X202962875Y-95602871D01*
X202726211Y-95681867D01*
X202623166Y-95815505D01*
X202612642Y-95850000D01*
X202548712Y-96057312D01*
X202522357Y-95937860D01*
D13*
X89370000Y-92130000D02*
X89370000Y-94670000D01*
X89370000Y-94670000D02*
X86830000Y-94670000D01*
X84010000Y-94950000D02*
X84010000Y-93400000D01*
X89370000Y-87050000D02*
X89370000Y-92130000D01*
X84290000Y-87050000D02*
X89370000Y-87050000D01*
X86830000Y-92130000D02*
X84290000Y-92130000D01*
X86830000Y-94670000D02*
X86830000Y-92130000D01*
X84010000Y-94950000D02*
X85560000Y-94950000D01*
X84290000Y-92130000D02*
X84290000Y-87050000D01*
X86298095Y-80952380D02*
X86298095Y-79952380D01*
X85917142Y-79952380D01*
X85821904Y-80000000D01*
X85774285Y-80047619D01*
X85726666Y-80142857D01*
X85726666Y-80285714D01*
X85774285Y-80380952D01*
X85821904Y-80428571D01*
X85917142Y-80476190D01*
X86298095Y-80476190D01*
X84774285Y-80952380D02*
X85345714Y-80952380D01*
X85060000Y-80952380D02*
X85060000Y-79952380D01*
X85155238Y-80095238D01*
X85250476Y-80190476D01*
X85345714Y-80238095D01*
X86298095Y-98952380D02*
X86298095Y-97952380D01*
X85917142Y-97952380D01*
X85821904Y-98000000D01*
X85774285Y-98047619D01*
X85726666Y-98142857D01*
X85726666Y-98285714D01*
X85774285Y-98380952D01*
X85821904Y-98428571D01*
X85917142Y-98476190D01*
X86298095Y-98476190D01*
X84774285Y-98952380D02*
X85345714Y-98952380D01*
X85060000Y-98952380D02*
X85060000Y-97952380D01*
X85155238Y-98095238D01*
X85250476Y-98190476D01*
X85345714Y-98238095D01*
%LPC*%
D15*
X85560000Y-75400000D03*
D16*
X88100000Y-75400000D03*
X85560000Y-72860000D03*
X88100000Y-72860000D03*
X85560000Y-70320000D03*
X88100000Y-70320000D03*
X88100000Y-88320000D03*
X85560000Y-88320000D03*
X88100000Y-90860000D03*
X85560000Y-90860000D03*
X88100000Y-93400000D03*
D15*
X85560000Y-93400000D03*
M02*
